
<svg width="948px" height="351px" viewBox="0 0 948 351" version="1.1" xmlns="http://www.w3.org/2000/svg" xmlns:xlink="http://www.w3.org/1999/xlink">
    <g id="页面-1" stroke="none" stroke-width="1" fill="none" fill-rule="evenodd">
        <g id="首页" transform="translate(-485.000000, -1606.000000)">
            <g id="编组-6" transform="translate(0.000000, 1549.000000)">
                <g id="编组-12" transform="translate(485.000000, 57.000000)">
                    <g id="编组-4" transform="translate(0.000000, 92.000000)">
                        <text id="Steam-and-mechanizat" font-family="PingFangSC-Light, PingFang SC" font-size="9" font-weight="300" fill="#FFFFFF">
                            <tspan x="0" y="135">Steam and mechanization</tspan>
                        </text>
                        <text id="第一次工业革命" font-family="PingFangSC-Regular, PingFang SC" font-size="14" font-weight="normal" fill="#FFFFFF">
                            <tspan x="4" y="254">第一次工业革命</tspan>
                        </text>
                        <g id="编组-5" transform="translate(45.000000, 160.000000)">
                            <circle id="椭圆形" fill="#FFFFFF" cx="4.5" cy="52.5" r="4.5"></circle>
                            <ellipse id="椭圆形备份-2" fill="#FFFFFF" cx="4.625" cy="26.5" rx="2.625" ry="2.5"></ellipse>
                            <ellipse id="椭圆形备份-4" fill="#FFFFFF" cx="4.625" cy="2.5" rx="2.625" ry="2.5"></ellipse>
                            <circle id="椭圆形备份" stroke="#FFFFFF" opacity="0.145438058" cx="4.5" cy="38.5" r="3.5"></circle>
                            <ellipse id="椭圆形备份-3" stroke="#FFFFFF" opacity="0.145438058" cx="4.5" cy="15.5" rx="2.625" ry="2.5"></ellipse>
                        </g>
                        <text id="蒸汽和机械化" font-family="PingFangSC-Regular, PingFang SC" font-size="12" font-weight="normal" fill="#FFFFFF">
                            <tspan x="17" y="121">蒸汽和机械化</tspan>
                        </text>
                        <g id="编组" transform="translate(8.000000, 0.000000)">
                            <rect id="矩形" fill="url(#linearGradient-1)" x="16.8" y="26.8339579" width="1.6" height="60.8" rx="0.8"></rect>
                            <path d="M54.4,53.2505602 L52.3680014,57.2339579 L35.2,57.2339579 L35.2,55.5494994 L51.4536095,55.5489938 L52.635,53.2339579 L52,53.2339579 C51.1163444,53.2339579 50.4,52.5176135 50.4,51.6339579 L50.4,34.8339579 C50.4,33.9503023 51.1163444,33.2339579 52,33.2339579 L57.6,33.2339579 L57.6,10.0339579 C57.6,9.59213009 57.9581722,9.23395789 58.4,9.23395789 C58.8418278,9.23395789 59.2,9.59213009 59.2,10.0339579 L59.2,33.2339579 L64,33.2339579 C64.8836556,33.2339579 65.6,33.9503023 65.6,34.8339579 L65.6,51.6339579 C65.6,52.5176135 64.8836556,53.2339579 64,53.2339579 L59.2,53.2339579 L59.2,53.2339579 L59.2007161,57.2403101 C64.0210071,57.3933433 68.1470443,60.2974771 70.0604703,64.4343538 L75.2,64.4339579 C76.0836556,64.4339579 76.8,65.1503023 76.8,66.0339579 L76.8,85.2339579 C76.8,86.1176135 76.0836556,86.8339579 75.2,86.8339579 L69.6,86.8339579 C70.007841,86.8339579 70.3444016,86.5287697 70.3937669,86.1343082 L70.4,86.0339579 L70.4,70.0339579 C70.4,69.5921301 70.0418278,69.2339579 69.6,69.2339579 L48,69.2339579 C47.592159,69.2339579 47.2555984,69.539146 47.2062331,69.9336076 L47.2,70.0339579 L47.2,86.0339579 C47.2,86.4417989 47.5051881,86.7783595 47.8996497,86.8277248 L48,86.8339579 L42.4,86.8339579 C41.5163444,86.8339579 40.8,86.1176135 40.8,85.2339579 L40.8,66.0339579 C40.8,65.1503023 41.5163444,64.4339579 42.4,64.4339579 L47.5395297,64.4343538 C49.3463994,60.5278546 53.126307,57.7206215 57.6006973,57.29121 L57.6,53.2339579 L54.373,53.2339579 L54.4,53.2505602 Z M58.386,34.8329579 L52.8,34.8339579 C52.392159,34.8339579 52.0555984,35.139146 52.0062331,35.5336076 L52,35.6339579 L52,50.8339579 C52,51.2417989 52.3051881,51.5783595 52.6996497,51.6277248 L52.8,51.6339579 L63.2,51.6339579 C63.607841,51.6339579 63.9444016,51.3287697 63.9937669,50.9343082 L64,50.8339579 L64,35.6339579 C64,35.1921301 63.6418278,34.8339579 63.2,34.8339579 L58.414245,34.8338336 C58.4095066,34.8339163 58.4047581,34.8339579 58.4,34.8339579 L58.386,34.8329579 Z" id="形状结合" fill="url(#linearGradient-2)"></path>
                            <g id="huo" transform="translate(52.800000, 70.833958)" fill="url(#linearGradient-3)" fill-rule="nonzero">
                                <path d="M5.55580415,13.285318 C2.06271774,13.285318 2.79031196,7.23909831 2.79031196,7.23909831 C2.83815393,7.79204105 3.65272712,9.92631651 5.67610264,9.92631651 C6.52545326,9.92631651 7.65092847,10.1147261 7.83861618,11.2691896 C7.93284221,11.848955 7.38641051,13.285318 5.55579,13.285318 M8.97281052,4.05835766 C8.65756309,5.55850059 7.84226803,6.63469007 6.87840808,6.63469007 C5.64278312,6.63469007 4.64122993,4.87509648 4.64122993,2.70533587 C4.64122993,1.65451112 4.87966127,0.705145306 5.26159021,-1.77635684e-15 C5.0622817,0.16957005 0.164707991,4.36491427 0.164707991,9.43786135 C0.164707991,12.2301337 2.59827884,14.4941345 5.60000843,14.4941345 C8.60173803,14.4941345 11.0353089,12.2301479 11.0353089,9.43786135 C11.0353089,7.55869115 10.0931901,5.66140328 8.97279636,4.05835766" id="形状"></path>
                            </g>
                            <g id="形状结合">
                                <use fill="black" fill-opacity="1" filter="url(#filter-6)" xlink:href="#path-5"></use>
                                <use fill="url(#linearGradient-4)" fill-rule="evenodd" xlink:href="#path-5"></use>
                            </g>
                            <g id="形状结合">
                                <use fill="black" fill-opacity="1" filter="url(#filter-9)" xlink:href="#path-8"></use>
                                <use fill="url(#linearGradient-7)" fill-rule="evenodd" xlink:href="#path-8"></use>
                            </g>
                        </g>
                    </g>
                    <g id="编组-4备份" transform="translate(276.000000, 108.000000)">
                        <text id="Electricity-and-scal" font-family="PingFangSC-Light, PingFang SC" font-size="9" font-weight="300" fill="#FFFFFF">
                            <tspan x="10" y="119">Electricity and scale</tspan>
                        </text>
                        <text id="第二次工业革命" font-family="PingFangSC-Regular, PingFang SC" font-size="14" font-weight="normal" fill="#FFFFFF">
                            <tspan x="9" y="238">第二次工业革命</tspan>
                        </text>
                        <g id="编组-5" transform="translate(50.000000, 144.000000)">
                            <circle id="椭圆形" fill="#FFFFFF" cx="4.5" cy="52.5" r="4.5"></circle>
                            <ellipse id="椭圆形备份-2" fill="#FFFFFF" cx="4.625" cy="26.5" rx="2.625" ry="2.5"></ellipse>
                            <ellipse id="椭圆形备份-4" fill="#FFFFFF" cx="4.625" cy="2.5" rx="2.625" ry="2.5"></ellipse>
                            <circle id="椭圆形备份" stroke="#FFFFFF" opacity="0.145438058" cx="4.5" cy="38.5" r="3.5"></circle>
                            <ellipse id="椭圆形备份-3" stroke="#FFFFFF" opacity="0.145438058" cx="4.5" cy="15.5" rx="2.625" ry="2.5"></ellipse>
                        </g>
                        <text id="电力和规模化" font-family="PingFangSC-Regular, PingFang SC" font-size="12" font-weight="normal" fill="#FFFFFF">
                            <tspan x="17" y="105">电力和规模化</tspan>
                        </text>
                        <g id="编组-2">
                            <rect id="矩形" fill="#FFFFFF" x="20.088" y="35.604" width="10.044" height="10.044"></rect>
                            <rect id="矩形备份-8" fill="#FFFFFF" x="33.696" y="35.604" width="10.044" height="10.044"></rect>
                            <rect id="矩形备份-9" fill="#FFFFFF" x="47.304" y="35.604" width="10.044" height="10.044"></rect>
                            <rect id="矩形备份-10" fill="url(#linearGradient-10)" x="65.124" y="57.96" width="10.044" height="10.044"></rect>
                            <rect id="矩形备份-11" fill="url(#linearGradient-10)" x="76.464" y="57.96" width="10.044" height="10.044"></rect>
                            <rect id="矩形备份-12" fill="url(#linearGradient-10)" x="87.804" y="57.96" width="10.044" height="10.044"></rect>
                            <rect id="矩形备份-13" fill="url(#linearGradient-10)" x="99.144" y="57.96" width="10.044" height="10.044"></rect>
                            <rect id="矩形备份-14" fill="url(#linearGradient-10)" x="70.956" y="46.62" width="10.044" height="10.044"></rect>
                            <rect id="矩形备份-20" fill="url(#linearGradient-11)" x="47.7" y="18" width="8.1" height="8.1"></rect>
                            <rect id="矩形备份-15" fill="url(#linearGradient-10)" x="82.296" y="46.62" width="10.044" height="10.044"></rect>
                            <rect id="矩形备份-21" fill="url(#linearGradient-11)" x="56.7" y="18" width="8.1" height="8.1"></rect>
                            <rect id="矩形备份-16" fill="url(#linearGradient-10)" x="93.636" y="46.62" width="10.044" height="10.044"></rect>
                            <rect id="矩形备份-22" fill="url(#linearGradient-11)" x="65.7" y="18" width="8.1" height="8.1"></rect>
                            <rect id="矩形备份-17" fill="url(#linearGradient-10)" x="76.464" y="35.28" width="10.044" height="10.044"></rect>
                            <rect id="矩形备份-23" fill="url(#linearGradient-11)" x="52.2" y="9" width="8.1" height="8.1"></rect>
                            <rect id="矩形备份-18" fill="url(#linearGradient-10)" x="87.804" y="35.28" width="10.044" height="10.044"></rect>
                            <rect id="矩形备份-24" fill="url(#linearGradient-11)" x="61.2" y="9" width="8.1" height="8.1"></rect>
                            <rect id="矩形备份-19" fill="url(#linearGradient-10)" x="82.296" y="23.94" width="10.044" height="10.044"></rect>
                            <rect id="矩形备份-25" fill="url(#linearGradient-11)" x="56.7" y="0" width="8.1" height="8.1"></rect>
                            <path d="M21.384,67.2 L23.652,68.652 L15.552,68.652 L18.144,66.993 L18.1440872,56.3598333 C16.0676688,55.6259654 14.58,53.6457145 14.58,51.318 C14.58,48.3654857 16.9734857,45.972 19.926,45.972 L57.186,45.972 C60.1385143,45.972 62.532,48.3654857 62.532,51.318 C62.532,53.522285 61.1979186,55.4149786 59.2931254,56.2327113 L59.292,67.2 L61.56,68.652 L53.46,68.652 L56.052,66.993 L56.052,56.664 L21.384,56.664 L21.384,67.2 Z M57.186,48.24 L19.926,48.24 C18.2260675,48.24 16.848,49.6180675 16.848,51.318 C16.848,52.9886233 18.1789576,54.3483848 19.8383649,54.3947765 L19.926,54.396 L57.186,54.396 C58.8859325,54.396 60.264,53.0179325 60.264,51.318 C60.264,49.6473767 58.9330424,48.2876152 57.2736351,48.2412235 L57.186,48.24 Z" id="形状结合" fill="url(#linearGradient-12)"></path>
                            <ellipse id="椭圆形" fill="#FDC854" cx="32.076" cy="51.444377" rx="1.944" ry="1.90837696"></ellipse>
                            <ellipse id="椭圆形备份-5" fill="#FDC854" cx="20.736" cy="51.444377" rx="1.944" ry="1.90837696"></ellipse>
                            <ellipse id="椭圆形备份-3" fill="#FDC854" cx="44.064" cy="51.444377" rx="1.944" ry="1.90837696"></ellipse>
                            <ellipse id="椭圆形备份-4" fill="#FDC854" cx="56.7" cy="51.642" rx="1.944" ry="1.90837696"></ellipse>
                            <g id="ren" transform="translate(0.000000, 18.108000)" fill="url(#linearGradient-13)">
                                <path d="M7.28999997,10.7941423 C9.83302323,10.7941423 12.0369767,8.39544404 12.0369767,5.48273894 C12.0369767,2.57003384 9.83302323,0 7.28999997,0 C4.74697672,0 2.54302325,2.39869829 2.54302325,5.31140339 C2.54302325,8.22410849 4.57744183,10.7941423 7.28999997,10.7941423 Z M11.1893023,14.2208542 L3.39069767,14.2208542 C2.54302325,14.2208542 1.69534884,14.5635254 1.01720931,15.2488678 C0.339069788,15.9342101 0,16.9622237 0,17.9902373 L0,29.1270508 C0,31.183078 1.35627905,32.7250983 3.05162788,32.8964339 L3.39069767,33.0677695 L3.39069767,50.544 L11.1893023,50.544 L11.1893023,32.8964339 L11.5283721,32.8964339 C13.223721,32.7250982 14.4104652,31.1830779 14.58,29.1270508 L14.58,17.9902373 C14.58,15.9342101 13.0541861,14.2208542 11.1893023,14.2208542 L11.1893023,14.2208542 Z" id="形状"></path>
                            </g>
                        </g>
                    </g>
                    <g id="编组-4备份-2" transform="translate(552.000000, 99.000000)">
                        <text id="Information-and-auto" font-family="PingFangSC-Light, PingFang SC" font-size="9" font-weight="300" fill="#FFFFFF">
                            <tspan x="0" y="128">Information and automation</tspan>
                        </text>
                        <text id="第三次工业革命" font-family="PingFangSC-Regular, PingFang SC" font-size="14" font-weight="normal" fill="#FFFFFF">
                            <tspan x="14" y="247">第三次工业革命</tspan>
                        </text>
                        <g id="编组-5" transform="translate(55.000000, 153.000000)">
                            <circle id="椭圆形" fill="#FFFFFF" cx="4.5" cy="52.5" r="4.5"></circle>
                            <ellipse id="椭圆形备份-2" fill="#FFFFFF" cx="4.625" cy="26.5" rx="2.625" ry="2.5"></ellipse>
                            <ellipse id="椭圆形备份-4" fill="#FFFFFF" cx="4.625" cy="2.5" rx="2.625" ry="2.5"></ellipse>
                            <circle id="椭圆形备份" stroke="#FFFFFF" opacity="0.145438058" cx="4.5" cy="38.5" r="3.5"></circle>
                            <ellipse id="椭圆形备份-3" stroke="#FFFFFF" opacity="0.145438058" cx="4.5" cy="15.5" rx="2.625" ry="2.5"></ellipse>
                        </g>
                        <text id="信息和自动化" font-family="PingFangSC-Regular, PingFang SC" font-size="12" font-weight="normal" fill="#FFFFFF">
                            <tspan x="24" y="114">信息和自动化</tspan>
                        </text>
                        <g id="编组" transform="translate(10.000000, -0.000000)">
                            <path d="M34.56,50.24 L34.56,53.44 C34.56,57.248736 37.5845785,60.3510438 41.3628944,60.4760823 L41.6,60.48 C45.408736,60.48 48.5110438,57.4554215 48.6360823,53.6771056 L48.64,53.44 L48.64,50.24 L56.96,50.24 L56.96,73.92 L62.72,73.92 L62.72,79.36 L27,79.36 L27,73.92 L27.52,73.92 L27.52,50.24 L34.56,50.24 Z" id="形状结合" fill="url(#linearGradient-14)"></path>
                            <rect id="矩形" fill="#FFFFFF" x="80.96" y="38.08" width="12.8" height="12.8"></rect>
                            <path d="M93.76,63.68 L93.76,77.439 L96.96,77.44 L96.96,79.36 L88,79.36 L88,77.44 L91.2,77.439 L91.2,63.68 L93.76,63.68 Z" id="形状结合" fill="url(#linearGradient-15)"></path>
                            <path d="M94.56,53.12 C97.4760635,53.12 99.84,55.4839365 99.84,58.4 C99.84,61.3160635 97.4760635,63.68 94.56,63.68 L57.76,63.68 C54.8439365,63.68 52.48,61.3160635 52.48,58.4 C52.48,55.4839365 54.8439365,53.12 57.76,53.12 L94.56,53.12 Z M94.56,55.36 L57.76,55.36 C56.0810544,55.36 54.72,56.7210544 54.72,58.4 C54.72,60.0499983 56.034526,61.3929726 57.6734468,61.4387916 L57.76,61.44 L94.56,61.44 C96.2389456,61.44 97.6,60.0789456 97.6,58.4 C97.6,56.7500017 96.285474,55.4070274 94.6465532,55.3612084 L94.56,55.36 Z" id="矩形" fill="#FFFFFF" fill-rule="nonzero"></path>
                            <circle id="椭圆形" fill="#FFFFFF" cx="67.84" cy="58.4" r="2.4"></circle>
                            <circle id="椭圆形备份-3" fill="#FFFFFF" cx="80.48" cy="58.4" r="2.4"></circle>
                            <circle id="椭圆形备份-4" fill="#FFFFFF" cx="93.6" cy="58.4" r="2.4"></circle>
                            <rect id="矩形备份-4" fill="#FFFFFF" x="40.32" y="1.28" width="2.56" height="15.68"></rect>
                            <path d="M41.6,15.36 C37.0049909,15.36 33.28,19.0849909 33.28,23.68 L33.28,53.44 C33.28,58.0350091 37.0049909,61.76 41.6,61.76 C46.1950091,61.76 49.92,58.0350091 49.92,53.44 L49.92,23.68 C49.92,19.0849909 46.1950091,15.36 41.6,15.36 Z M41.6,17.92 C44.7811602,17.92 47.36,20.4988398 47.36,23.68 L47.36,53.44 C47.36,56.6211602 44.7811602,59.2 41.6,59.2 C38.4188398,59.2 35.84,56.6211602 35.84,53.44 L35.84,23.68 C35.84,20.4988398 38.4188398,17.92 41.6,17.92 Z" id="矩形" fill="url(#linearGradient-16)"></path>
                            <path d="M50.5713708,-0.81137085 C47.8320385,-0.81137085 45.6113708,1.40929679 45.6113708,4.14862915 L45.6113708,25.5886292 C45.6113708,28.3279615 47.8320385,30.5486292 50.5713708,30.5486292 C53.3107032,30.5486292 55.5313708,28.3279615 55.5313708,25.5886292 L55.5313708,4.14862915 C55.5313708,1.40929679 53.3107032,-0.81137085 50.5713708,-0.81137085 Z M50.5713708,1.10862915 C52.2503165,1.10862915 53.6113708,2.46968351 53.6113708,4.14862915 L53.6113708,25.5886292 C53.6113708,27.2675748 52.2503165,28.6286292 50.5713708,28.6286292 C48.8924252,28.6286292 47.5313708,27.2675748 47.5313708,25.5886292 L47.5313708,4.14862915 C47.5313708,2.46968351 48.8924252,1.10862915 50.5713708,1.10862915 Z" id="矩形备份-5" fill="url(#linearGradient-17)" transform="translate(50.571371, 14.868629) rotate(-315.000000) translate(-50.571371, -14.868629) "></path>
                            <path d="M66.7176824,-2.06748126 C63.9783501,-2.06748126 61.7576824,0.153186381 61.7576824,2.89251874 L61.7576824,24.3325187 C61.7576824,27.0718511 63.9783501,29.2925187 66.7176824,29.2925187 C69.4570148,29.2925187 71.6776824,27.0718511 71.6776824,24.3325187 L71.6776824,2.89251874 C71.6776824,0.153186381 69.4570148,-2.06748126 66.7176824,-2.06748126 Z M66.7176824,-0.14748126 C68.3966281,-0.14748126 69.7576824,1.2135731 69.7576824,2.89251874 L69.7576824,24.3325187 C69.7576824,26.0114644 68.3966281,27.3725187 66.7176824,27.3725187 C65.0387368,27.3725187 63.6776824,26.0114644 63.6776824,24.3325187 L63.6776824,2.89251874 C63.6776824,1.2135731 65.0387368,-0.14748126 66.7176824,-0.14748126 Z" id="矩形备份-5" fill="url(#linearGradient-17)" transform="translate(66.717682, 13.612519) rotate(-53.000000) translate(-66.717682, -13.612519) "></path>
                            <circle id="椭圆形" fill="#FFFFFF" cx="41.76" cy="24.16" r="4"></circle>
                            <circle id="椭圆形备份-2" fill="#FFFFFF" cx="58.08" cy="7.2" r="2.4"></circle>
                            <g id="扳子" transform="translate(79.318989, 23.860610) rotate(-285.000000) translate(-79.318989, -23.860610) translate(68.318989, 12.860610)" fill="#FFFFFF" fill-rule="nonzero">
                                <path d="M19.7800872,4.53650932 L17.1978039,7.11969935 C17.0902654,7.22635499 16.9161328,7.22635499 16.808642,7.11969935 L15.6275323,5.93780217 L15.62758,5.93777831 L15.5120722,5.82227049 L15.4978514,5.80804974 L14.3167655,4.6269638 C14.2109449,4.52030816 14.2109449,4.34622326 14.3167655,4.23956762 L16.8999555,1.65637759 C15.8213019,1.21176435 14.6171669,1.17334923 13.5145337,1.5368851 L10.4185377,4.633764 C10.091174,5.62637725 10.0902912,6.70285953 10.4177503,7.69480469 L2.06821239,16.0451777 C2.07837689,16.0384491 2.08877999,16.0322931 2.09901607,16.0257554 L2.09901623,16.0257552 C2.05422015,16.0641331 2.01091366,16.1042161 1.96919222,16.1459158 C1.05185829,17.0632736 1.05185829,18.5507499 1.96919222,19.4672965 C2.88659774,20.3846304 4.37316737,20.3846304 5.28971392,19.4672965 L5.28973778,19.4672726 L5.29143186,19.4689906 L13.7421136,11.0182611 C14.7340349,11.3456247 15.8105411,11.3450759 16.8035122,11.0187621 L19.8996276,7.92188323 C20.2631158,6.8192739 20.2255596,5.61516275 19.7800874,4.53650918 L19.7800872,4.53650932 Z M3.00012498,18.436316 C2.65190745,18.0882177 2.65190745,17.524112 3.00012498,17.1776601 C3.08203747,17.093982 3.17673909,17.0334006 3.27659453,16.9907384 L2.23463814,15.947923 L3.26893537,16.9830554 C3.59491509,16.8422556 3.98577102,16.9028847 4.25202835,17.1682592 C4.51826182,17.4353516 4.57970215,17.8262314 4.43806728,18.1521634 L4.44606049,18.1601566 C4.40253926,18.2613005 4.34128982,18.3547375 4.25968752,18.436316 C3.91146998,18.7854163 3.34741197,18.7854163 3.00012498,18.436316 L3.00012498,18.436316 Z" id="形状" transform="translate(10.713635, 10.722990) rotate(7.000000) translate(-10.713635, -10.722990) "></path>
                            </g>
                            <circle id="椭圆形备份" fill="#FFFFFF" cx="41.76" cy="52.96" r="4"></circle>
                            <path d="M27.52,50.24 L27.52,79.36 L0,79.36 L0,50.24 L27.52,50.24 Z M24.32,53.44 L3.2,53.44 L3.2,76.16 L24.32,76.16 L24.32,53.44 Z" id="矩形" fill="#FFFFFF" fill-rule="nonzero"></path>
                            <rect id="矩形备份" stroke="#FFFFFF" stroke-width="3.2" x="4.16" y="44.16" width="19.2" height="7.36"></rect>
                            <path d="M24.32,23.68 L24.32,42.56 L3.84,42.56 L3.84,23.68 L24.32,23.68 Z M21.76,26.24 L6.4,26.24 L6.4,40 L21.76,40 L21.76,26.24 Z" id="矩形备份-2" fill="url(#linearGradient-18)"></path>
                            <rect id="矩形" fill="#FDC854" x="8.32" y="28.16" width="11.2" height="9.92"></rect>
                            <rect id="矩形" fill="#FFFFFF" x="12.8" y="1.28" width="2.56" height="22.4"></rect>
                            <rect id="矩形备份-3" fill="#FFFFFF" transform="translate(27.520000, 2.560000) rotate(-270.000000) translate(-27.520000, -2.560000) " x="26.24" y="-12.16" width="2.56" height="29.44"></rect>
                        </g>
                    </g>
                    <g id="编组-4备份-3" transform="translate(837.000000, 91.000000)">
                        <text id="Date-and-intelligenc" font-family="PingFangSC-Light, PingFang SC" font-size="9" font-weight="300" fill="#FFFFFF">
                            <tspan x="13" y="136">Date and intelligence</tspan>
                        </text>
                        <text id="第四次工业革命" font-family="PingFangSC-Regular, PingFang SC" font-size="14" font-weight="normal" fill="#FFFFFF">
                            <tspan x="10" y="255">第四次工业革命</tspan>
                        </text>
                        <g id="编组-5" transform="translate(51.000000, 161.000000)">
                            <circle id="椭圆形" fill="#FFFFFF" cx="4.5" cy="52.5" r="4.5"></circle>
                            <ellipse id="椭圆形备份-2" fill="#FFFFFF" cx="4.625" cy="26.5" rx="2.625" ry="2.5"></ellipse>
                            <ellipse id="椭圆形备份-4" fill="#FFFFFF" cx="4.625" cy="2.5" rx="2.625" ry="2.5"></ellipse>
                            <circle id="椭圆形备份" stroke="#FFFFFF" opacity="0.145438058" cx="4.5" cy="38.5" r="3.5"></circle>
                            <ellipse id="椭圆形备份-3" stroke="#FFFFFF" opacity="0.145438058" cx="4.5" cy="15.5" rx="2.625" ry="2.5"></ellipse>
                        </g>
                        <text id="数据和智能化" font-family="PingFangSC-Regular, PingFang SC" font-size="12" font-weight="normal" fill="#FFFFFF">
                            <tspan x="20" y="122">数据和智能化</tspan>
                        </text>
                        <g id="编组-3" transform="translate(0.000000, -0.000000)">
                            <g id="编组" transform="translate(59.224000, 36.760000)">
                                <path d="M0,51.42528 L0,47.90016 L3.525,47.89952 L3.52512,32.55552 L8.08612,32.55552 L8.08704,34.62912 C8.08704,37.0766137 10.0144375,39.0739397 12.4342094,39.1860746 L12.64896,39.19104 C15.0964537,39.19104 17.0937797,37.2636425 17.2059146,34.8438706 L17.21088,34.62912 L17.21012,32.55552 L22.60224,32.55552 L22.602,47.89952 L26.33472,47.90016 L26.33472,51.42528 L0,51.42528 Z" id="形状结合" fill="url(#linearGradient-19)"></path>
                                <rect id="矩形" fill="#FFFFFF" x="38.15424" y="24.67584" width="8.2944" height="8.2944"></rect>
                                <path d="M46.44864,41.26464 L46.44816,50.18064 L48.52224,50.18112 L48.52224,51.42528 L42.71616,51.42528 L42.71616,50.18112 L44.78916,50.18064 L44.78976,41.26464 L46.44864,41.26464 Z" id="形状结合" fill="url(#linearGradient-20)"></path>
                                <path d="M46.96704,34.42176 C48.8566491,34.42176 50.38848,35.9535909 50.38848,37.8432 C50.38848,39.7328091 48.8566491,41.26464 46.96704,41.26464 L23.12064,41.26464 C21.2310309,41.26464 19.6992,39.7328091 19.6992,37.8432 C19.6992,35.9535909 21.2310309,34.42176 23.12064,34.42176 L46.96704,34.42176 Z M46.96704,35.87328 L23.12064,35.87328 C22.0326832,35.87328 21.15072,36.7552432 21.15072,37.8432 C21.15072,38.9123989 22.0025329,39.7826462 23.0645535,39.8123369 L23.12064,39.81312 L46.96704,39.81312 C48.0549968,39.81312 48.93696,38.9311568 48.93696,37.8432 C48.93696,36.7740011 48.0851471,35.9037538 47.0231265,35.8740631 L46.96704,35.87328 Z" id="矩形" fill="#FFFFFF" fill-rule="nonzero"></path>
                                <circle id="椭圆形" fill="#FFFFFF" cx="29.65248" cy="37.8432" r="1.5552"></circle>
                                <circle id="椭圆形备份-3" fill="#FFFFFF" cx="37.8432" cy="37.8432" r="1.5552"></circle>
                                <circle id="椭圆形备份-4" fill="#FFFFFF" cx="46.34496" cy="37.8432" r="1.5552"></circle>
                                <path d="M12.64896,9.95328 C9.67139409,9.95328 7.2576,12.3670741 7.2576,15.34464 L7.2576,34.62912 C7.2576,37.6066859 9.67139409,40.02048 12.64896,40.02048 C15.6265259,40.02048 18.04032,37.6066859 18.04032,34.62912 L18.04032,15.34464 C18.04032,12.3670741 15.6265259,9.95328 12.64896,9.95328 Z M12.64896,11.61216 C14.7103518,11.61216 16.38144,13.2832482 16.38144,15.34464 L16.38144,34.62912 C16.38144,36.6905118 14.7103518,38.3616 12.64896,38.3616 C10.5875682,38.3616 8.91648,36.6905118 8.91648,34.62912 L8.91648,15.34464 C8.91648,13.2832482 10.5875682,11.61216 12.64896,11.61216 Z" id="矩形" fill="url(#linearGradient-21)"></path>
                                <path d="M18.4624083,-0.525768311 C16.6873209,-0.525768311 15.2483283,0.913224321 15.2483283,2.68831169 L15.2483283,16.5814317 C15.2483283,18.3565191 16.6873209,19.7955117 18.4624083,19.7955117 C20.2374957,19.7955117 21.6764883,18.3565191 21.6764883,16.5814317 L21.6764883,2.68831169 C21.6764883,0.913224321 20.2374957,-0.525768311 18.4624083,-0.525768311 Z M18.4624083,0.718391689 C19.5503651,0.718391689 20.4323283,1.60035491 20.4323283,2.68831169 L20.4323283,16.5814317 C20.4323283,17.6693885 19.5503651,18.5513517 18.4624083,18.5513517 C17.3744515,18.5513517 16.4924883,17.6693885 16.4924883,16.5814317 L16.4924883,2.68831169 C16.4924883,1.60035491 17.3744515,0.718391689 18.4624083,0.718391689 Z" id="矩形备份-5" fill="url(#linearGradient-22)" transform="translate(18.462408, 9.634872) rotate(-315.000000) translate(-18.462408, -9.634872) "></path>
                                <path d="M28.9252182,-1.13236786 C27.1501309,-1.13236786 25.7111382,0.306624775 25.7111382,2.08171214 L25.7111382,15.9748321 C25.7111382,17.7499195 27.1501309,19.1889121 28.9252182,19.1889121 C30.7003056,19.1889121 32.1392982,17.7499195 32.1392982,15.9748321 L32.1392982,2.08171214 C32.1392982,0.306624775 30.7003056,-1.13236786 28.9252182,-1.13236786 Z M28.9252182,0.111792144 C30.013175,0.111792144 30.8951382,0.993755369 30.8951382,2.08171214 L30.8951382,15.9748321 C30.8951382,17.0627889 30.013175,17.9447521 28.9252182,17.9447521 C27.8372614,17.9447521 26.9552982,17.0627889 26.9552982,15.9748321 L26.9552982,2.08171214 C26.9552982,0.993755369 27.8372614,0.111792144 28.9252182,0.111792144 Z" id="矩形备份-5" fill="url(#linearGradient-22)" transform="translate(28.925218, 9.028272) rotate(-53.000000) translate(-28.925218, -9.028272) "></path>
                                <circle id="椭圆形" fill="#FFFFFF" cx="12.75264" cy="15.65568" r="2.592"></circle>
                                <circle id="椭圆形备份-2" fill="#FFFFFF" cx="23.53536" cy="4.87296" r="1.5552"></circle>
                                <g id="扳子" transform="translate(37.181374, 15.304908) rotate(-285.000000) translate(-37.181374, -15.304908) translate(30.181374, 8.304908)" fill="#FFFFFF" fill-rule="nonzero">
                                    <path d="M12.8174965,2.93965804 L11.1441769,4.61356518 C11.074492,4.68267803 10.9616541,4.68267803 10.892,4.61356518 L10.1266409,3.8476958 L10.1266718,3.84768034 L10.0518228,3.77283128 L10.0426077,3.76361623 L9.27726402,2.99827254 C9.20869232,2.92915969 9.20869232,2.81635267 9.27726402,2.74723982 L10.9511712,1.07333268 C10.2522036,0.7852233 9.47192416,0.760330303 8.75741785,0.995901543 L6.7512124,3.00267907 C6.53908078,3.64589246 6.53850871,4.34345297 6.75070217,4.98623344 L1.34020163,10.3972751 C1.34678822,10.392915 1.35352943,10.3889259 1.36016241,10.3846895 L1.36016252,10.3846894 C1.33113466,10.4095583 1.30307205,10.435532 1.27603656,10.4625534 C0.68160417,11.0570013 0.68160417,12.020886 1.27603656,12.6148081 C1.87051533,13.2092405 2.83381246,13.2092405 3.42773462,12.6148081 L3.42775008,12.6147927 L3.42884784,12.6159059 L8.90488964,7.13983317 C9.54765464,7.35196479 10.2452306,7.35160918 10.8886759,7.14015786 L12.8949587,5.13338033 C13.130499,4.41888948 13.1061626,3.63862546 12.8174966,2.93965795 L12.8174965,2.93965804 Z M1.94408099,11.9467328 C1.71843603,11.7211651 1.71843603,11.3556246 1.94408099,11.1311238 C1.99716028,11.0769003 2.05852693,11.0376436 2.12323326,11.0099985 L1.44804551,10.3342541 L2.11827012,11.0050199 C2.32950498,10.9137816 2.58277962,10.9530693 2.75531437,11.1250319 C2.92783366,11.2981078 2.96764699,11.551398 2.8758676,11.7626019 L2.8810472,11.7677815 C2.85284544,11.8333227 2.8131558,11.8938699 2.76027751,11.9467328 C2.53463255,12.1729498 2.16912296,12.1729498 1.94408099,11.9467328 L1.94408099,11.9467328 Z" id="形状" transform="translate(6.942436, 6.948497) rotate(7.000000) translate(-6.942436, -6.948497) "></path>
                                </g>
                                <circle id="椭圆形备份" fill="#FFFFFF" cx="12.75264" cy="34.31808" r="2.592"></circle>
                            </g>
                            <g id="手机" transform="translate(35.608000, 13.720000)" fill="#FFFFFF" fill-rule="nonzero">
                                <path d="M7.95645124,21.9006979 L7.95965124,21.032543 L7.95325124,21.0334112 L7.95645124,21.9006979 Z M13.9971002,0.185540482 L1.84293217,0.185540482 C0.884489207,0.185540482 0.106622456,0.963407233 0.106622456,1.92185019 L0.106622456,22.7575667 C0.106622456,23.7160097 0.884489207,24.4938765 1.84293217,24.4938765 L13.9971002,24.4938765 C14.9555431,24.4938765 15.7334099,23.7160097 15.7334099,22.7575667 L15.7334099,1.92185019 C15.7334099,0.963407233 14.9555431,0.185540482 13.9971002,0.185540482 Z M7.78430971,23.6326194 C7.14898171,23.6326194 6.63230971,23.1159474 6.63230971,22.4806194 C6.63230971,21.8452914 7.14898171,21.3286194 7.78430971,21.3286194 C8.41963771,21.3286194 8.93630971,21.8452914 8.93630971,22.4806194 C8.93630971,23.1159474 8.41963771,23.6326194 7.78430971,23.6326194 Z M13.8738583,20.2306326 L1.77785828,20.2306326 L1.77785828,1.79863256 L13.8738583,1.79863256 L13.8738583,20.2306326 Z M21.0534755,22.8764216 C21.6009065,22.879696 22.0473203,23.3228354 22.0473203,23.8702664 L22.0473203,23.8702664 L22.0473203,29.5889784 C22.0473203,29.6736903 22.1157492,29.7453713 22.2037355,29.7453713 C22.2884475,29.7453713 22.3601285,29.6769647 22.3601285,29.5889784 L22.3601285,29.5889784 L22.3601285,27.2102506 C22.3601285,26.5650545 22.8065423,26.0404331 23.3539733,26.0404331 C23.9014044,26.0404331 24.3478404,26.5650545 24.3478404,27.2102506 L24.3478404,27.2102506 L24.3478404,30.315612 C24.3478404,30.4003462 24.416247,30.4720272 24.5042334,30.4720272 C24.5889676,30.4720272 24.6606486,30.4035983 24.6606486,30.315612 L24.6606486,30.315612 L24.6606486,28.2432104 C24.6606486,27.5980143 25.1070401,27.0733929 25.6544935,27.0733929 C26.2019468,27.0733929 26.6483383,27.5980143 26.6483383,28.2432104 L26.6483383,28.2432104 L26.6483383,30.863043 C26.6483383,30.9477772 26.7167672,31.0194582 26.8047535,31.0194582 C26.8894654,31.0194582 26.9611687,30.9510294 26.9611687,30.863043 L26.9611687,30.863043 L26.9611687,29.0447995 C26.9611687,28.3996034 27.4075825,27.8749819 27.9550136,27.8749819 C28.5056968,27.8749819 28.9488584,28.4028778 28.9488584,29.0447772 L28.9488584,29.0447772 L28.9488584,34.0107715 C28.9488584,35.2946371 28.5773778,36.2950086 27.8507442,36.9890538 C27.0914999,37.7124576 25.9640495,38.0774116 24.5009812,38.0774116 C23.3507434,38.0774116 22.4937341,37.8297578 21.7182068,37.2758225 C20.9915509,36.7544532 20.3822176,36.0017356 19.6099647,35.0502356 C19.2710502,34.633158 18.8898131,34.1606601 18.4596824,33.6653749 L18.4596824,33.6653749 L16.8108627,31.7623972 C16.4165947,31.3094568 16.4165947,30.5437082 16.8108627,30.0907901 C16.9966141,29.8757248 17.2442901,29.7584022 17.5049525,29.7584022 C17.7656148,29.7584022 18.0132686,29.8757248 18.1989977,30.0907901 L18.1989977,30.0907901 L19.7793885,31.9122858 C19.8080569,31.9475943 19.8512084,31.9679736 19.8966888,31.9676838 L19.8966888,31.9676838 C19.9879273,31.9676838 20.0596306,31.8992549 20.0596306,31.8112686 L20.0596306,31.8112686 L20.0596306,23.8865717 C20.0596306,23.345645 20.4930135,22.8927046 21.0241393,22.8764216 L21.0241393,22.8764216 Z M23.8785947,21.8532405 C24.5205387,22.9024834 24.527043,24.2221895 23.8949001,25.2812111 C23.7222018,25.5842405 23.3376903,25.6885322 23.0346386,25.5125595 C22.7316091,25.3398612 22.6273397,24.9553497 22.8032901,24.652298 C22.8065423,24.6457937 22.8098167,24.6392894 22.816321,24.6327628 C23.3995926,23.6584532 23.0802801,22.3974194 22.1059705,21.8141479 C21.1316608,21.2308763 19.870627,21.5501888 19.2873555,22.5244984 C18.8963397,23.1794733 18.8995918,23.9973454 19.2971342,24.6490459 C19.4613635,24.9159185 19.401249,25.2566943 19.1714008,25.4552065 L19.0885732,25.5158117 C18.9891403,25.5754134 18.8754096,25.6069446 18.7594819,25.6070502 C18.5411644,25.6070502 18.3358555,25.493002 18.2218074,25.3072729 C17.2670775,23.7464618 17.7623627,21.706604 19.323196,20.7518742 C20.8840294,19.7971443 22.9238649,20.2924072 23.8785947,21.8532405 Z" id="形状"></path>
                            </g>
                            <g id="电脑" transform="translate(0.472000, 54.616000)" fill-rule="nonzero">
                                <path d="M3.64319186,15.6384347 L24.7104102,15.6384347 C25.1856117,15.6384347 25.8192109,15.3216337 25.8192109,14.846435 L25.8192109,1.06562824 C25.8192109,0.590426758 25.5024099,0.273628555 24.8688107,0.273628555 L3.64318908,0.273628555 C3.1679876,0.273628555 2.6927889,0.590429542 2.6927889,1.06562824 L2.6927889,14.846435 C2.6927889,15.3216365 3.16799038,15.6384347 3.64318908,15.6384347 L3.64319186,15.6384347 Z M4.55040713,2.14563958 L24.1344071,2.14563958 L24.1344071,13.9536396 L4.55040713,13.9536396 L4.55040713,2.14563958 Z M25.8192301,16.7472298 L2.69279698,16.7472298 L-5.84719237e-06,19.1232316 L-5.84719237e-06,20.5488333 L28.5120273,20.5488333 L28.5120273,19.1232316 L25.8192245,16.7472298 L25.8192301,16.7472298 Z M19.8000169,19.9152397 L8.71201017,19.9152397 L8.71201017,18.806439 L19.6416136,18.806439 L19.6416136,19.9152397 L19.8000169,19.9152397 Z" id="形状" fill="#FFFFFF"></path>
                                <g id="数据-(14)" transform="translate(8.528000, 3.384000)" fill="#FDC854">
                                    <path d="M5.27415579,7.94966303 L5.27415579,8.43428878 L4.52471479,8.43428878 L4.52471479,7.94966303 L5.27415579,7.94966303 Z M6.23904932,7.94966303 L6.23904932,8.43428878 L5.48960832,8.43428878 L5.48960832,7.94966303 L6.23904932,7.94966303 Z M7.21331087,7.94966303 L7.21331087,8.43428878 L6.46386987,8.43428878 L6.46386987,7.94966303 L7.21331087,7.94966303 Z M10.8949045,4.59975209 C11.4101335,4.59975209 11.822326,4.97385739 11.822326,5.42447357 C11.822326,5.8836028 11.4195015,6.25769744 10.9042608,6.25769744 C10.501448,6.25769744 10.1548315,6.02813282 10.0330474,5.69653948 L10.0330474,5.69653948 L8.29062055,5.69653948 C7.98147614,5.69653948 7.93463608,5.74756451 7.92526806,5.7560669 L7.92526806,5.7560669 L6.66996614,7.45652422 C6.50134192,7.70309363 6.11726516,7.82211646 5.83622479,7.82211646 L5.83622479,7.82211646 L4.29988249,7.82211646 C4.17809833,8.16221219 3.83148187,8.41728399 3.40993306,8.41728399 C2.90406038,8.41728399 2.49186783,8.05169175 2.49186783,7.58406012 C2.49186783,7.12494155 2.90406038,6.75082558 3.40993306,6.75082558 C3.82211385,6.75082558 4.17809833,7.00589738 4.29051448,7.34599311 L4.29051448,7.34599311 L5.83622479,7.34599311 C5.97674497,7.34599311 6.16409347,7.26947157 6.22030154,7.19295003 L6.22030154,7.19295003 L7.47560346,5.49249271 C7.66296371,5.24592331 8.00021216,5.21191373 8.28125254,5.21191373 L8.28125254,5.21191373 L10.0049433,5.21191373 C10.1173712,4.85482388 10.473344,4.59975209 10.8949045,4.59975209 Z M8.37493266,6.61479796 C8.88079358,6.61479796 9.29298613,6.98889259 9.29298613,7.44802183 C9.29298613,7.90715106 8.88080534,8.2812457 8.37493266,8.2812457 C7.86905999,8.2812457 7.45686744,7.9071404 7.45686744,7.44802183 C7.45686744,6.98890326 7.86905999,6.61479796 8.37493266,6.61479796 Z M5.41466422,4.41270997 C5.9205369,4.41270997 6.33271769,4.78679407 6.33271769,5.24592331 C6.33271769,5.70505254 5.9205369,6.07915779 5.41466422,6.07915779 C5.00248343,6.07915779 4.64649895,5.83258844 4.5340828,5.49249271 L4.53408279,5.49250332 L1.79864664,5.49250332 C1.67686248,5.83259905 1.33024602,6.07915779 0.918065225,6.07915779 C0.41219255,6.07915779 3.11839443e-12,5.70505249 3.11839443e-12,5.24593392 C3.11839443e-12,4.78681535 0.402824537,4.41270997 0.918065225,4.41270997 C1.32938562,4.41255109 1.69168016,4.658298 1.80801466,5.0163693 L1.80801466,5.0163693 L4.52471479,5.01636936 C4.63713094,4.6677819 4.99310366,4.41270997 5.41466422,4.41270997 Z M7.90653204,4.42120183 L7.90653204,4.90583824 L7.15709104,4.90583824 L7.15709104,4.42119116 L7.90653204,4.42120183 Z M8.88080534,4.42120183 L8.88080534,4.90583824 L8.13136434,4.90583824 L8.13136434,4.42119116 L8.88080534,4.42120183 Z M9.84569887,4.42120183 L9.84569887,4.90583824 L9.09625787,4.90583824 L9.09625787,4.42119116 L9.84569887,4.42120183 Z M2.72606815,4.26815875 L2.72606815,4.75279517 L1.97662715,4.75279517 L1.97662715,4.26815875 L2.72606815,4.26815875 Z M3.69097343,4.26815875 L3.69097343,4.75279517 L2.94153243,4.75279517 L2.94153243,4.26815875 L3.69097343,4.26815875 Z M4.65586697,4.26815875 L4.65586697,4.75279517 L3.90642597,4.75279517 L3.90642597,4.26815875 L4.65586697,4.26815875 Z M0.974273318,0.136038292 C1.41455815,0.136038292 1.77991064,0.408114877 1.87359076,0.782220181 L1.87359076,0.782220181 L3.98137007,0.782220181 C4.26241044,0.782220181 4.61839492,0.892740625 4.78701914,1.14781242 L4.78701914,1.14781242 L6.03295305,2.93329367 C6.08914937,3.00981521 6.28587763,3.08633675 6.41702981,3.08633675 L6.41702981,3.08633675 L7.60675564,3.08633675 C7.68169974,2.69523733 8.05642024,2.39765357 8.5154411,2.39765357 C9.02131377,2.39765357 9.43350632,2.7717482 9.43350632,3.23087744 C9.43350632,3.69000667 9.02131377,4.06410131 8.51545285,4.06410131 C8.14073235,4.06410131 7.81285191,3.86854627 7.67233173,3.57097317 L7.67233173,3.57097317 L6.40766179,3.57097317 C6.13600119,3.57097317 5.75191267,3.43493488 5.57392044,3.18836547 L5.57392044,3.18836547 L4.31861852,1.39438183 C4.25304243,1.31786029 4.06568218,1.24133875 3.95326603,1.24133875 L3.95326603,1.24133875 L1.83611871,1.24133875 C1.70496654,1.5559273 1.36771809,1.79398364 0.964905305,1.79398364 C0.449664618,1.79398364 0.0374720682,1.41987834 0.0562080932,0.969262165 C0.0562080932,0.510132928 0.468400643,0.136038292 0.974273318,0.136038292 Z M3.47550915,2.17659134 C3.98137007,2.17659134 4.39356262,2.55069664 4.39356262,3.00981521 C4.39356262,3.47744684 3.97200205,3.85154148 3.47550915,3.84303909 C2.96963647,3.84303909 2.55744392,3.47744684 2.55744392,3.00981521 C2.55744392,2.55069664 2.96964823,2.17659134 3.47550915,2.17659134 Z M6.46386987,0.357100517 C6.91353447,0.357100517 7.28824321,0.64617122 7.37255533,1.02877892 L7.37255533,1.02877892 L9.04941781,1.02877892 L9.04941781,1.51341533 L7.31634725,1.51341533 C7.17583882,1.81949082 6.84795838,2.03205066 6.46386987,2.03205066 C5.94862918,2.03205066 5.53644839,1.65794535 5.5458164,1.19032439 C5.5458164,0.731195153 5.95800895,0.357100517 6.46386987,0.357100517 Z M10.0049551,1.02877892 L10.0049551,1.51341533 L9.25551408,1.51341533 L9.25551408,1.02877892 L10.0049551,1.02877892 Z M10.9698486,1.02877892 L10.9698486,1.51341533 L10.2204076,1.51341533 L10.2204076,1.02877892 L10.9698486,1.02877892 Z M3.39119703,3.10862447e-15 L3.39119703,0.484625748 L2.64175603,0.484625748 L2.64175603,3.10862447e-15 L3.39119703,3.10862447e-15 Z M4.35609057,3.4139358e-15 L4.35609057,0.484625748 L3.60664957,0.484625748 L3.60664957,3.4139358e-15 L4.35609057,3.4139358e-15 Z M5.3209841,3.4139358e-15 L5.3209841,0.484625748 L4.5715431,0.484625748 L4.5715431,3.4139358e-15 L5.3209841,3.4139358e-15 Z" id="形状结合"></path>
                                </g>
                            </g>
                            <g id="wifi" transform="translate(5.656000, 42.232000)" fill="url(#linearGradient-23)">
                                <path d="M5.07530096,9.64878332 C7.27704315,7.82068364 10.4687981,7.82068364 12.6705258,9.64878343 L12.6705258,9.64878343 L11.4105704,11.0507048 C9.90348389,9.95273067 7.86009221,9.95273067 6.35300566,11.0507048 L6.35300566,11.0507048 Z M2.55540085,6.86267997 C6.11359785,3.54467017 11.6322502,3.54467017 15.1904412,6.86268005 L15.1904412,6.86268005 L13.9304859,8.26460087 C11.0553741,5.67665558 6.69046804,5.67665558 3.81535629,8.26460087 L3.81535629,8.26460087 Z M1.27258204e-11,4.05884922 C4.90807514,-0.823058678 12.8378865,-0.823058678 17.745899,4.05884889 L17.745899,4.05884889 L16.4859437,5.44302608 C12.2374527,1.34588186 5.50838772,1.34588186 1.25995459,5.44302608 L1.25995459,5.44302608 Z" id="形状结合"></path>
                            </g>
                            <g id="wifi备份" transform="translate(35.608000, 0.760000)" fill="url(#linearGradient-23)">
                                <path d="M5.07530096,9.64878332 C7.27704315,7.82068364 10.4687981,7.82068364 12.6705258,9.64878343 L12.6705258,9.64878343 L11.4105704,11.0507048 C9.90348389,9.95273067 7.86009221,9.95273067 6.35300566,11.0507048 L6.35300566,11.0507048 Z M2.55540085,6.86267997 C6.11359785,3.54467017 11.6322502,3.54467017 15.1904412,6.86268005 L15.1904412,6.86268005 L13.9304859,8.26460087 C11.0553741,5.67665558 6.69046804,5.67665558 3.81535629,8.26460087 L3.81535629,8.26460087 Z M1.27258204e-11,4.05884922 C4.90807514,-0.823058678 12.8378865,-0.823058678 17.745899,4.05884889 L17.745899,4.05884889 L16.4859437,5.44302608 C12.2374527,1.34588186 5.50838772,1.34588186 1.25995459,5.44302608 L1.25995459,5.44302608 Z" id="形状结合"></path>
                            </g>
                            <g id="wifi备份-2" transform="translate(72.184000, 23.800000)" fill="url(#linearGradient-24)">
                                <path d="M5.88090428,11.1803362 C8.43212937,9.06206199 12.130512,9.06206199 14.6817203,11.1803364 L14.6817203,11.1803364 L13.2217721,12.8047849 C11.4754655,11.5325292 9.1077259,11.5325292 7.36141925,12.8047849 L7.36141925,12.8047849 Z M2.96102003,7.95199425 C7.08401021,4.10731622 13.4786391,4.10731622 17.6016223,7.95199434 L17.6016223,7.95199434 L16.1416741,9.57644227 C12.8101954,6.57771203 7.75244709,6.57771203 4.4209684,9.57644227 L4.4209684,9.57644227 Z M-9.5070618e-12,4.70311101 C5.68713468,-0.953702913 14.8756463,-0.953702913 20.5627084,4.70311062 L20.5627084,4.70311062 L19.1027602,6.30699847 C14.1799055,1.5595139 6.38273498,1.5595139 1.45994738,6.30699847 L1.45994738,6.30699847 Z" id="形状结合"></path>
                            </g>
                            <path d="M23.8045685,78.0140177 C29.3100723,83.1522381 36.6999037,86.296 44.824,86.296 C49.0270541,86.296 53.0335765,85.4545477 56.684298,83.9309124 C56.7110758,84.6434278 56.7516505,85.3523068 56.8039447,86.056128 C53.0931523,87.5128501 49.0519019,88.312 44.824,88.312 C35.7838851,88.312 27.5971247,84.658355 21.6598192,78.7471654 C22.3934647,78.5464987 23.1092629,78.3012705 23.8045685,78.0140177 Z M53.7517597,23.8764099 C63.0528757,26.4986388 70.6791035,33.1163231 74.6602928,41.759312 C74.0865971,42.1182289 73.5227599,42.5024729 72.9688995,42.9108555 C69.3495373,34.8191737 62.3427377,28.5732629 53.7517546,25.9770721 L53.7517597,23.8764099 Z M33.0155348,24.8355895 L33.0152259,27.0076391 C26.5719685,29.6829654 21.2326642,34.4817126 17.8705252,40.5306684 C17.5456142,40.5128567 17.2178031,40.504 16.888,40.504 C16.4463814,40.504 16.0083345,40.5198802 15.5743598,40.5511206 C19.2366355,33.391012 25.4500822,27.7527956 33.0155348,24.8355895 Z" id="形状结合" fill="url(#linearGradient-25)"></path>
                        </g>
                    </g>
                    <text id="人类历史上的四次工业革命" font-family="PingFangSC-Medium, PingFang SC" font-size="16" font-weight="400" fill="#FFFFFF">
                        <tspan x="388" y="17">人类历史上的四次工业革命</tspan>
                    </text>
                </g>
            </g>
        </g>
    </g>
</svg>
