
<svg width="144px" height="246px" viewBox="0 0 144 246" version="1.1" xmlns="http://www.w3.org/2000/svg" xmlns:xlink="http://www.w3.org/1999/xlink">
    <g id="页面-1" stroke="none" stroke-width="1" fill="none" fill-rule="evenodd">
        <g id="投资理念" transform="translate(-548.000000, -1626.000000)" fill-rule="nonzero">
            <g id="编组-8" transform="translate(-163.000000, 557.000000)">
                <g id="编组-11" transform="translate(163.000000, 904.000000)">
                    <g id="编组" transform="translate(548.000000, 165.242677)">
                        <g id="编组备份" opacity="0.271449498" transform="translate(0.000000, 88.557323)">
                            <g id="几何体" opacity="0.773810977">
                                <path d="M72.0000953,156.143979 L72.0000955,156.143979 C71.6301061,156.235099 71.243532,156.235099 70.8735425,156.143979 L1.23208216,112.413239 L1.23208205,112.413239 C0.564399347,111.957889 0.20835098,111.166669 0.310356837,110.36496 L0.310356837,39.5969469 L0.310356768,39.596934 C0.306380932,38.8457647 0.694616967,38.1469514 1.33450709,37.7534836 L1.33450713,37.7534835 C2.00513903,37.3892469 2.81456739,37.3892469 3.48519929,37.7534836 L73.1266596,81.4842241 L73.1266597,81.4842241 C73.6847739,81.8923948 74.0245672,82.5342276 74.0484152,83.2252607 L74.0484152,153.993274 L74.0484152,153.993287 C74.0523608,154.744456 73.6641263,155.443269 73.0242346,155.836737 L73.0242346,155.836737 C72.7207054,156.03808 72.3643322,156.144992 72.0000955,156.143979 L72.0000953,156.143979 Z" id="形状" fill="#1A3255"></path>
                                <path d="M72.0000953,156.143979 L72.0000953,156.143979 C71.6655682,156.24071 71.3104832,156.24071 70.9759561,156.143979 L70.9759562,156.143979 C70.3360677,155.750515 69.9478373,155.051698 69.9517868,154.300529 L69.9517868,83.3276875 L69.9517868,83.3276868 C69.9756343,82.6366537 70.3154281,81.9948209 70.8735423,81.5866503 L140.515003,37.8559097 L140.515003,37.8559097 C141.185635,37.491673 141.995063,37.491673 142.665695,37.8559097 L142.665695,37.8559097 C143.305583,38.2493744 143.693814,38.9481909 143.689864,39.6993601 L143.689864,110.467374 L143.689864,110.467374 C143.682067,111.162589 143.338703,111.811163 142.768109,112.208411 L73.1266484,155.939151 L73.1266483,155.939151 C72.7736932,156.099047 72.3867446,156.169402 72.0000953,156.143979 L72.0000953,156.143979 Z" id="形状" fill="#0A1D39"></path>
                                <path d="M72.0000953,85.3759657 L72.0000955,85.3759657 C71.6301061,85.4670853 71.243532,85.4670853 70.8735425,85.3759658 L1.23208216,41.3379835 L1.23208193,41.3379834 C0.631240308,40.920317 0.283985136,40.2258067 0.308955364,39.4945329 L0.308955364,39.4945303 C0.292916048,38.7379635 0.739629372,38.0475914 1.43691289,37.7534938 L71.0783732,0.474829737 L71.0783732,0.474829743 C71.6538754,0.165293294 72.3463215,0.165293294 72.9218237,0.474829731 L142.563284,37.7534938 L142.563284,37.7534937 C143.260567,38.0475913 143.707279,38.7379635 143.691238,39.4945303 L143.691238,39.4945295 C143.716209,40.2258033 143.368955,40.9203136 142.768112,41.33798 L73.1266513,85.0687205 L73.1266514,85.0687205 C72.7828719,85.2640638 72.3954512,85.3697246 72.0000983,85.3759622 L72.0000953,85.3759657 Z" id="形状" fill="#214273"></path>
                            </g>
                        </g>
                        <g id="几何体" transform="translate(0.293112, 0.000000)" opacity="0.773810977">
                            <path d="M71.7069833,155.901302 L71.7069835,155.901302 C71.336994,155.992421 70.9504199,155.992421 70.5804305,155.901302 L0.938970106,112.170561 L0.938969996,112.170561 C0.271287296,111.715211 -0.0847610713,110.923992 0.0172447855,110.122283 L0.0172447855,39.3542695 L0.0172447169,39.3542566 C0.0132688808,38.6030873 0.401504916,37.904274 1.04139504,37.5108062 L1.04139508,37.5108061 C1.71202698,37.1465695 2.52145534,37.1465695 3.19208724,37.5108062 L72.8335476,81.2415467 L72.8335476,81.2415467 C73.3916618,81.6497174 73.7314552,82.2915502 73.7553031,82.9825832 L73.7553031,153.750597 L73.7553031,153.750609 C73.7592488,154.501779 73.3710143,155.200592 72.7311226,155.59406 L72.7311226,155.59406 C72.4275934,155.795402 72.0712201,155.902315 71.7069835,155.901302 L71.7069833,155.901302 Z" id="形状" fill="#1A3255"></path>
                            <path d="M71.7069833,155.901302 L71.7069832,155.901302 C71.3724562,155.998033 71.0173711,155.998033 70.6828441,155.901302 L70.6828442,155.901302 C70.0429556,155.507837 69.6547253,154.809021 69.6586747,154.057851 L69.6586747,83.0850101 L69.6586747,83.0850094 C69.6825222,82.3939763 70.0223161,81.7521435 70.5804303,81.3439729 L140.221891,37.6132323 L140.221891,37.6132323 C140.892523,37.2489956 141.701951,37.2489956 142.372583,37.6132323 L142.372583,37.6132323 C143.012471,38.006697 143.400702,38.7055135 143.396752,39.4566827 L143.396752,110.224696 L143.396752,110.224697 C143.388955,110.919911 143.045591,111.568486 142.474997,111.965733 L72.8335364,155.696474 L72.8335363,155.696474 C72.4805811,155.85637 72.0936326,155.926724 71.7069832,155.901302 L71.7069833,155.901302 Z" id="形状" fill="#0A1D39"></path>
                            <path d="M71.7069833,85.1332883 L71.7069835,85.1332883 C71.336994,85.2244079 70.9504199,85.2244079 70.5804305,85.1332884 L0.938970106,41.0953061 L0.938969878,41.095306 C0.338128257,40.6776396 -0.0091269153,39.9831293 0.0158433124,39.2518555 L0.0158433124,39.2518529 C-0.000196002627,38.4952861 0.446517321,37.804914 1.14380084,37.5108164 L70.7852612,0.232152332 L70.7852612,0.232152338 C71.3607634,-0.0773841106 72.0532094,-0.0773841106 72.6287116,0.232152326 L142.270172,37.5108164 L142.270172,37.5108163 C142.967455,37.8049139 143.414167,38.4952861 143.398126,39.2518529 L143.398126,39.2518521 C143.423097,39.9831259 143.075843,40.6776362 142.475,41.0953026 L72.8335393,84.8260431 L72.8335393,84.8260431 C72.4897598,85.0213864 72.1023392,85.1270472 71.7069863,85.1332848 L71.7069833,85.1332883 Z" id="形状" fill="#214273"></path>
                        </g>
                        <g id="yuanliao" transform="translate(42.000000, 42.757323)" fill="#FFDE9E">
                            <path d="M17.6479779,40.0032169 C16.7068015,40.9443934 15.3538603,40.7090993 14.4126838,39.7679228 C13.4715074,38.8267463 13.7068015,37.4738051 14.6479779,36.5326287 C17.4126838,34.0032169 20.5891544,33.2973346 23.5891544,34.9443934 C24.7068015,35.4149817 25.6479779,36.0620405 26.3538603,37.238511 C26.5891544,37.4738051 26.5891544,37.4738051 26.8244486,37.9443934 C27.765625,39.0620405 28.1773897,39.2973346 30.0597427,39.0620405 C30.765625,39.0620405 31.4126838,38.3561581 33.0597427,36.7679228 L33.5303309,36.2973346 C37.8244485,31.5326287 41.4715073,30.3561581 47.1773897,34.9443934 C48.1185662,35.6502758 48.2950368,37.238511 47.6479779,38.1796875 C46.9420956,39.120864 45.3538603,39.2973346 44.4126838,38.6502758 C41.0009191,35.8855699 39.8244486,36.120864 36.8244485,39.5914522 L36.3538603,40.0620404 C34.0597427,42.5914522 32.7068015,43.4738051 30.4126838,43.7090992 C27.0009191,43.9443933 25.1185662,43.0032169 23.2950367,40.9443934 L22.8244485,40.4738051 C22.3538603,40.0032169 21.8832721,39.5326287 21.4715074,39.3561581 C20.3538603,38.4149816 19.0009191,38.6502757 17.6479779,40.0032169" id="路径"></path>
                            <path d="M20.5891544,0.356158066 C21.7068015,-0.114430195 23.1185661,0.591452168 23.5891544,1.70909924 C24.0597427,2.82674631 23.3538603,4.23851098 22.2362132,4.70909924 C11.7068014,7.94439334 4.58915437,17.5326287 4.58915443,28.5326287 C4.58915443,42.5326287 15.8244486,53.7679228 29.8244486,53.7679228 C43.8244485,53.7679228 55.0597427,42.5326287 55.0597427,28.5326287 C55.0597427,17.5326287 47.9420956,7.88556984 37.4126838,4.47380514 C36.2950368,4.00321688 35.5891544,2.88556986 36.0597427,1.47380514 C36.5303309,0.120863965 37.6479779,-0.114430137 39.0597427,0.120863965 C51.2362133,4.00321693 59.7068014,15.4738051 59.7068014,28.5326287 C59.7068014,45.0620405 46.4126838,58.3561581 29.8832721,58.3561581 C13.2950368,58.3561581 0.000919101562,45.0620405 0.000919101562,28.5326287 C0.000919101562,15.7090993 8.47150734,4.23851104 20.5891544,0.356158066" id="路径"></path>
                        </g>
                    </g>
                </g>
            </g>
        </g>
    </g>
</svg>
