
<svg width="144px" height="246px" viewBox="0 0 144 246" version="1.1" xmlns="http://www.w3.org/2000/svg" xmlns:xlink="http://www.w3.org/1999/xlink">
    <g id="页面-1" stroke="none" stroke-width="1" fill="none" fill-rule="evenodd">
        <g id="投资理念" transform="translate(-775.000000, -1671.000000)" fill-rule="nonzero">
            <g id="编组-8" transform="translate(-163.000000, 557.000000)">
                <g id="编组-11" transform="translate(163.000000, 904.000000)">
                    <g id="编组备份-2" transform="translate(775.000000, 210.242677)">
                        <g id="编组备份" opacity="0.271449498" transform="translate(0.000000, 88.557323)">
                            <g id="几何体" opacity="0.773810977">
                                <path d="M72.0000953,156.143979 L72.0000955,156.143979 C71.6301061,156.235099 71.243532,156.235099 70.8735425,156.143979 L1.23208216,112.413239 L1.23208205,112.413239 C0.564399347,111.957889 0.20835098,111.166669 0.310356837,110.36496 L0.310356837,39.5969469 L0.310356768,39.596934 C0.306380932,38.8457647 0.694616967,38.1469514 1.33450709,37.7534836 L1.33450713,37.7534835 C2.00513903,37.3892469 2.81456739,37.3892469 3.48519929,37.7534836 L73.1266596,81.4842241 L73.1266597,81.4842241 C73.6847739,81.8923948 74.0245672,82.5342276 74.0484152,83.2252607 L74.0484152,153.993274 L74.0484152,153.993287 C74.0523608,154.744456 73.6641263,155.443269 73.0242346,155.836737 L73.0242346,155.836737 C72.7207054,156.03808 72.3643322,156.144992 72.0000955,156.143979 L72.0000953,156.143979 Z" id="形状" fill="#1A3255"></path>
                                <path d="M72.0000953,156.143979 L72.0000953,156.143979 C71.6655682,156.24071 71.3104832,156.24071 70.9759561,156.143979 L70.9759562,156.143979 C70.3360677,155.750515 69.9478373,155.051698 69.9517868,154.300529 L69.9517868,83.3276875 L69.9517868,83.3276868 C69.9756343,82.6366537 70.3154281,81.9948209 70.8735423,81.5866503 L140.515003,37.8559097 L140.515003,37.8559097 C141.185635,37.491673 141.995063,37.491673 142.665695,37.8559097 L142.665695,37.8559097 C143.305583,38.2493744 143.693814,38.9481909 143.689864,39.6993601 L143.689864,110.467374 L143.689864,110.467374 C143.682067,111.162589 143.338703,111.811163 142.768109,112.208411 L73.1266484,155.939151 L73.1266483,155.939151 C72.7736932,156.099047 72.3867446,156.169402 72.0000953,156.143979 L72.0000953,156.143979 Z" id="形状" fill="#0A1D39"></path>
                                <path d="M72.0000953,85.3759657 L72.0000955,85.3759657 C71.6301061,85.4670853 71.243532,85.4670853 70.8735425,85.3759658 L1.23208216,41.3379835 L1.23208193,41.3379834 C0.631240308,40.920317 0.283985136,40.2258067 0.308955364,39.4945329 L0.308955364,39.4945303 C0.292916048,38.7379635 0.739629372,38.0475914 1.43691289,37.7534938 L71.0783732,0.474829737 L71.0783732,0.474829743 C71.6538754,0.165293294 72.3463215,0.165293294 72.9218237,0.474829731 L142.563284,37.7534938 L142.563284,37.7534937 C143.260567,38.0475913 143.707279,38.7379635 143.691238,39.4945303 L143.691238,39.4945295 C143.716209,40.2258033 143.368955,40.9203136 142.768112,41.33798 L73.1266513,85.0687205 L73.1266514,85.0687205 C72.7828719,85.2640638 72.3954512,85.3697246 72.0000983,85.3759622 L72.0000953,85.3759657 Z" id="形状" fill="#214273"></path>
                            </g>
                        </g>
                        <g id="几何体" transform="translate(0.293112, 0.000000)">
                            <path d="M71.7069833,155.901302 L71.7069835,155.901302 C71.336994,155.992421 70.9504199,155.992421 70.5804305,155.901302 L0.938970106,112.170561 L0.938969996,112.170561 C0.271287296,111.715211 -0.0847610713,110.923992 0.0172447855,110.122283 L0.0172447855,39.3542695 L0.0172447169,39.3542566 C0.0132688808,38.6030873 0.401504916,37.904274 1.04139504,37.5108062 L1.04139508,37.5108061 C1.71202698,37.1465695 2.52145534,37.1465695 3.19208724,37.5108062 L72.8335476,81.2415467 L72.8335476,81.2415467 C73.3916618,81.6497174 73.7314552,82.2915502 73.7553031,82.9825832 L73.7553031,153.750597 L73.7553031,153.750609 C73.7592488,154.501779 73.3710143,155.200592 72.7311226,155.59406 L72.7311226,155.59406 C72.4275934,155.795402 72.0712201,155.902315 71.7069835,155.901302 L71.7069833,155.901302 Z" id="形状" fill="#1A3255" opacity="0.773810977"></path>
                            <path d="M71.7069833,155.901302 L71.7069832,155.901302 C71.3724562,155.998033 71.0173711,155.998033 70.6828441,155.901302 L70.6828442,155.901302 C70.0429556,155.507837 69.6547253,154.809021 69.6586747,154.057851 L69.6586747,83.0850101 L69.6586747,83.0850094 C69.6825222,82.3939763 70.0223161,81.7521435 70.5804303,81.3439729 L140.221891,37.6132323 L140.221891,37.6132323 C140.892523,37.2489956 141.701951,37.2489956 142.372583,37.6132323 L142.372583,37.6132323 C143.012471,38.006697 143.400702,38.7055135 143.396752,39.4566827 L143.396752,110.224696 L143.396752,110.224697 C143.388955,110.919911 143.045591,111.568486 142.474997,111.965733 L72.8335364,155.696474 L72.8335363,155.696474 C72.4805811,155.85637 72.0936326,155.926724 71.7069832,155.901302 L71.7069833,155.901302 Z" id="形状" fill="#0A1D39" opacity="0.773810977"></path>
                            <path d="M71.7069833,85.1332883 L71.7069835,85.1332883 C71.336994,85.2244079 70.9504199,85.2244079 70.5804305,85.1332884 L0.938970106,41.0953061 L0.938969878,41.095306 C0.338128257,40.6776396 -0.0091269153,39.9831293 0.0158433124,39.2518555 L0.0158433124,39.2518529 C-0.000196002627,38.4952861 0.446517321,37.804914 1.14380084,37.5108164 L70.7852612,0.232152332 L70.7852612,0.232152338 C71.3607634,-0.0773841106 72.0532094,-0.0773841106 72.6287116,0.232152326 L142.270172,37.5108164 L142.270172,37.5108163 C142.967455,37.8049139 143.414167,38.4952861 143.398126,39.2518529 L143.398126,39.2518521 C143.423097,39.9831259 143.075843,40.6776362 142.475,41.0953026 L72.8335393,84.8260431 L72.8335393,84.8260431 C72.4897598,85.0213864 72.1023392,85.1270472 71.7069863,85.1332848 L71.7069833,85.1332883 Z" id="形状" fill="#214273" opacity="0.773810977"></path>
                            <path d="M64.518278,96.352207 L64.5182779,96.352207 C64.1502706,96.350594 63.7912447,96.2383983 63.4877984,96.0301831 L63.4877983,96.0301831 C63.0121876,95.6983427 62.7330596,95.1514463 62.7433569,94.5716052 L62.7433569,87.9416958 L59.3905169,87.9416958 L59.3905169,94.4390037 L59.3905169,94.4390011 C59.3838397,95.0147892 59.108444,95.5543746 58.6460755,95.8975789 L58.6460755,95.8975789 C58.1741789,96.241955 57.5612361,96.3272828 57.0132262,96.1248899 L57.0132264,96.12489 C52.0673174,94.3785076 48.7459227,89.7202131 48.7068953,84.4751848 L48.7068953,84.4752391 C48.7021566,80.1286142 51.0028156,76.1054655 54.7514534,73.9052414 L54.7514534,62.0661373 L54.7514535,62.0661374 C51.0108265,59.8488462 48.7142259,55.8255912 48.7068953,51.4771886 L48.7068953,51.4771848 C48.7875387,46.2632608 52.0821599,41.6417505 56.984828,39.8653817 L56.9848281,39.8653817 C57.5328409,39.6629888 58.1457848,39.7483172 58.6176775,40.0926927 L58.6176775,40.0926927 C59.0899435,40.4274367 59.368106,40.9724357 59.3621188,41.5512705 L59.3621188,48.18118 L62.7433687,48.18118 L62.7433687,41.5512705 L62.7433687,41.5512731 C62.7500459,40.975485 63.0254416,40.4358996 63.4878101,40.0926952 L63.4878099,40.0926954 C63.9597065,39.7483193 64.5726493,39.6629909 65.1206593,39.8653843 L65.1206589,39.8653842 C70.0483435,41.6083118 73.3569365,46.2504951 73.3966834,51.4771873 L73.396684,51.477138 C73.350818,55.8447712 71.070125,59.8843106 67.3540339,62.1797372 L67.3540339,74.0377923 L67.3540346,74.0377927 C73.1996271,77.4874566 75.1418596,85.0227573 71.6922126,90.8682939 C70.2088642,93.3818814 67.8793759,95.2855241 65.1207216,96.2384999 L65.1207217,96.2384999 C64.9327992,96.326799 64.7255249,96.3659075 64.5183462,96.3521554 L64.518278,96.352207 Z M57.587164,84.3425993 L64.518278,84.3425993 L64.5182781,84.3425993 C65.5079261,84.3352672 66.3161414,85.1315952 66.3234759,86.1212432 C66.3235275,86.1282105 66.3235385,86.1351781 66.3235088,86.1421455 L66.3235088,91.6354943 L66.3235093,91.6354943 C70.1832205,88.7787301 70.9962658,83.3339777 68.139502,79.4742218 C67.285983,78.3210524 66.1603736,77.3970119 64.8630308,76.7844789 L64.8630307,76.7844789 C64.2258277,76.4947792 63.8205824,75.8553121 63.8306617,75.1554141 L63.8306617,61.1378881 L63.8306617,61.1378872 C63.8253292,60.4573316 64.2166602,59.8359324 64.8327258,59.5467078 L64.832726,59.5467077 C67.8574891,57.9844413 69.7740118,54.8812856 69.8165204,51.4771882 L69.8165204,51.477187 C69.8336458,48.7216464 68.5220453,46.1266588 66.293199,44.5063261 L66.293199,49.980735 L66.293199,49.9807357 C66.2994777,50.9787635 65.4955046,51.7929158 64.4974823,51.7991937 C64.4949434,51.7992096 64.4924045,51.7992203 64.4898657,51.7992255 L57.5872063,51.7992255 L57.5872063,51.7992255 C56.5881163,51.7971469 55.7798786,50.9855373 55.7819582,49.9864473 C55.7819621,49.9845434 55.7819691,49.9826396 55.7819791,49.9807357 L55.7819791,44.5631577 L55.7819796,44.5631573 C53.6172315,46.2089929 52.3286821,48.7581625 52.2869999,51.4772209 L52.2869999,51.4772295 C52.2983833,54.8379911 54.2361095,57.8944287 57.2708792,59.3383991 L57.2708792,59.3383991 C57.9044261,59.6322865 58.3079776,60.2690864 58.3032482,60.9674639 L58.3032482,74.9849899 L58.3032482,74.9849067 C58.3028315,75.6817859 57.9009233,76.316054 57.2709519,76.6140161 L57.2709512,76.6140165 C54.2431079,78.0657741 52.3084727,81.117365 52.2869999,84.475186 L52.2869999,84.4752473 C52.2705102,87.2359085 53.5813632,89.8364305 55.8105282,91.4650592 L55.8105282,86.1421862 L55.8105282,86.1421866 C55.803191,85.1556747 56.5969694,84.350003 57.5834813,84.3426629 C57.5847689,84.3426534 57.5860565,84.3426452 57.5873441,84.3426384 L57.587164,84.3425993 Z M89.7232486,96.9584518 L80.6724666,96.9584518 L80.6724664,96.9584518 C78.0151918,96.9584518 75.8610483,94.8042181 75.8610483,92.1469436 L75.8610483,72.5603205 L75.8610483,72.5603592 C75.8705891,70.0164836 77.8478745,67.9141845 80.3863946,67.7489022 L80.3863946,56.4212532 L77.545004,50.7953029 L77.545004,50.7953029 C77.3122749,50.3411801 77.2914852,49.8075779 77.4881765,49.3367251 L80.4944022,41.8165069 L80.4944022,41.816507 C80.7533447,41.1279628 81.4203042,40.6792699 82.155667,40.6988918 L88.2002737,40.6988918 L88.2002737,40.6988918 C88.9308735,40.6953281 89.5895096,41.1384256 89.8615385,41.816507 L92.867725,49.3367251 L92.867725,49.3367252 C93.0646775,49.8075317 93.0438833,50.341249 92.810897,50.795303 L89.9695064,56.4212533 L89.9695064,67.7868044 L89.9695067,67.7868044 C92.5136394,67.9240191 94.5036353,70.0314657 94.4949208,72.5792825 L94.4949208,92.1848567 L94.4949208,92.1848389 C94.5033065,94.8128036 92.3797409,96.950014 89.7517706,96.9584518 C89.7384814,96.9584518 89.725192,96.9584518 89.7119029,96.9584518 L89.7232486,96.9584518 Z M80.6724666,71.3479835 L80.6724666,71.3479835 C80.0008163,71.3677506 79.4609681,71.9075989 79.4411941,72.5792492 L79.4411941,92.1848234 L79.4411941,92.1848234 C79.4389904,92.8522754 79.9782762,93.3951479 80.6457282,93.3973627 C80.6546421,93.3973627 80.663556,93.3973627 80.6724684,93.3973627 L89.7232505,93.3973627 L89.7232505,93.3973627 C90.3914292,93.3863624 90.9333737,92.8527546 90.9545162,92.184823 L90.9545162,72.5792488 L90.9545162,72.5792493 C90.9347493,71.907599 90.3949008,71.3677452 89.7232505,71.347978 L88.2078418,71.347978 L88.2078418,71.347978 C87.2230517,71.3595575 86.4150879,70.5710962 86.4026104,69.5863173 L86.4026104,56.004498 L86.4026104,56.0044981 C86.3961176,55.7199851 86.4654172,55.438862 86.6034017,55.1899658 L89.2667305,49.8670983 L87.0049853,44.2032459 L83.3964233,44.2032459 L81.132783,49.8670983 L83.7961118,55.1899658 L83.7961118,55.1899657 C83.9211413,55.4437674 83.9896458,55.7216632 83.9969031,56.0044981 L83.9969031,69.5484711 L83.9969031,69.5484717 C84.000167,70.5287281 83.2081587,71.3260312 82.2279023,71.3292903 C82.2164572,71.3293284 82.2050119,71.3292558 82.1935682,71.3290725 L80.6781595,71.3290725 L80.6781595,71.3480151 L80.6724666,71.3479835 Z" id="形状" fill="#FFDE9E"></path>
                        </g>
                    </g>
                </g>
            </g>
        </g>
    </g>
</svg>
