
<svg width="144px" height="246px" viewBox="0 0 144 246" version="1.1" xmlns="http://www.w3.org/2000/svg" xmlns:xlink="http://www.w3.org/1999/xlink">
    <g id="页面-1" stroke="none" stroke-width="1" fill="none" fill-rule="evenodd">
        <g id="Investment-philosoph" transform="translate(-1002.000000, -1688.000000)" fill-rule="nonzero">
            <g id="编组-8" transform="translate(-163.000000, 557.000000)">
                <g id="编组-11" transform="translate(163.000000, 925.000000)">
                    <g id="编组-13" transform="translate(548.000000, 206.000000)">
                        <g id="编组备份-3" transform="translate(436.000000, 0.242677)">
                            <g id="编组备份" opacity="0.271449498" transform="translate(18.000000, 88.557323)">
                                <g id="几何体" opacity="0.773810977">
                                    <path d="M72.0000953,156.143979 L72.0000955,156.143979 C71.6301061,156.235099 71.243532,156.235099 70.8735425,156.143979 L1.23208216,112.413239 L1.23208205,112.413239 C0.564399347,111.957889 0.20835098,111.166669 0.310356837,110.36496 L0.310356837,39.5969469 L0.310356768,39.596934 C0.306380932,38.8457647 0.694616967,38.1469514 1.33450709,37.7534836 L1.33450713,37.7534835 C2.00513903,37.3892469 2.81456739,37.3892469 3.48519929,37.7534836 L73.1266596,81.4842241 L73.1266597,81.4842241 C73.6847739,81.8923948 74.0245672,82.5342276 74.0484152,83.2252607 L74.0484152,153.993274 L74.0484152,153.993287 C74.0523608,154.744456 73.6641263,155.443269 73.0242346,155.836737 L73.0242346,155.836737 C72.7207054,156.03808 72.3643322,156.144992 72.0000955,156.143979 L72.0000953,156.143979 Z" id="形状" fill="#1A3255"></path>
                                    <path d="M72.0000953,156.143979 L72.0000953,156.143979 C71.6655682,156.24071 71.3104832,156.24071 70.9759561,156.143979 L70.9759562,156.143979 C70.3360677,155.750515 69.9478373,155.051698 69.9517868,154.300529 L69.9517868,83.3276875 L69.9517868,83.3276868 C69.9756343,82.6366537 70.3154281,81.9948209 70.8735423,81.5866503 L140.515003,37.8559097 L140.515003,37.8559097 C141.185635,37.491673 141.995063,37.491673 142.665695,37.8559097 L142.665695,37.8559097 C143.305583,38.2493744 143.693814,38.9481909 143.689864,39.6993601 L143.689864,110.467374 L143.689864,110.467374 C143.682067,111.162589 143.338703,111.811163 142.768109,112.208411 L73.1266484,155.939151 L73.1266483,155.939151 C72.7736932,156.099047 72.3867446,156.169402 72.0000953,156.143979 L72.0000953,156.143979 Z" id="形状" fill="#0A1D39"></path>
                                    <path d="M72.0000953,85.3759657 L72.0000955,85.3759657 C71.6301061,85.4670853 71.243532,85.4670853 70.8735425,85.3759658 L1.23208216,41.3379835 L1.23208193,41.3379834 C0.631240308,40.920317 0.283985136,40.2258067 0.308955364,39.4945329 L0.308955364,39.4945303 C0.292916048,38.7379635 0.739629372,38.0475914 1.43691289,37.7534938 L71.0783732,0.474829737 L71.0783732,0.474829743 C71.6538754,0.165293294 72.3463215,0.165293294 72.9218237,0.474829731 L142.563284,37.7534938 L142.563284,37.7534937 C143.260567,38.0475913 143.707279,38.7379635 143.691238,39.4945303 L143.691238,39.4945295 C143.716209,40.2258033 143.368955,40.9203136 142.768112,41.33798 L73.1266513,85.0687205 L73.1266514,85.0687205 C72.7828719,85.2640638 72.3954512,85.3697246 72.0000983,85.3759622 L72.0000953,85.3759657 Z" id="形状" fill="#214273"></path>
                                </g>
                            </g>
                            <g id="几何体" opacity="0.773810977">
                                <path d="M90.0000953,155.901302 L90.0000955,155.901302 C89.6301061,155.992421 89.243532,155.992421 88.8735425,155.901302 L19.2320822,112.170561 L19.232082,112.170561 C18.5643993,111.715211 18.208351,110.923992 18.3103568,110.122283 L18.3103568,39.3542695 L18.3103568,39.3542566 C18.3063809,38.6030873 18.694617,37.904274 19.3345071,37.5108062 L19.3345071,37.5108061 C20.005139,37.1465695 20.8145674,37.1465695 21.4851993,37.5108062 L91.1266596,81.2415467 L91.1266597,81.2415467 C91.6847739,81.6497174 92.0245672,82.2915502 92.0484152,82.9825832 L92.0484152,153.750597 L92.0484152,153.750609 C92.0523608,154.501779 91.6641263,155.200592 91.0242346,155.59406 L91.0242346,155.59406 C90.7207054,155.795402 90.3643322,155.902315 90.0000955,155.901302 L90.0000953,155.901302 Z" id="形状" fill="#1A3255"></path>
                                <path d="M90.0000953,155.901302 L90.0000953,155.901302 C89.6655682,155.998033 89.3104832,155.998033 88.9759561,155.901302 L88.9759562,155.901302 C88.3360677,155.507837 87.9478373,154.809021 87.9517868,154.057851 L87.9517868,83.0850101 L87.9517868,83.0850094 C87.9756343,82.3939763 88.3154281,81.7521435 88.8735423,81.3439729 L158.515003,37.6132323 L158.515003,37.6132323 C159.185635,37.2489956 159.995063,37.2489956 160.665695,37.6132323 L160.665695,37.6132323 C161.305583,38.006697 161.693814,38.7055135 161.689864,39.4566827 L161.689864,110.224696 L161.689864,110.224697 C161.682067,110.919911 161.338703,111.568486 160.768109,111.965733 L91.1266484,155.696474 L91.1266483,155.696474 C90.7736932,155.85637 90.3867446,155.926724 90.0000953,155.901302 L90.0000953,155.901302 Z" id="形状" fill="#0A1D39"></path>
                                <path d="M90.0000953,85.1332883 L90.0000955,85.1332883 C89.6301061,85.2244079 89.243532,85.2244079 88.8735425,85.1332884 L19.2320822,41.0953061 L19.2320819,41.095306 C18.6312403,40.6776396 18.2839851,39.9831293 18.3089554,39.2518555 L18.3089554,39.2518529 C18.292916,38.4952861 18.7396294,37.804914 19.4369129,37.5108164 L89.0783732,0.232152332 L89.0783732,0.232152338 C89.6538754,-0.0773841106 90.3463215,-0.0773841106 90.9218237,0.232152326 L160.563284,37.5108164 L160.563284,37.5108163 C161.260567,37.8049139 161.707279,38.4952861 161.691238,39.2518529 L161.691238,39.2518521 C161.716209,39.9831259 161.368955,40.6776362 160.768112,41.0953026 L91.1266513,84.8260431 L91.1266514,84.8260431 C90.7828719,85.0213864 90.3954512,85.1270472 90.0000983,85.1332848 L90.0000953,85.1332883 Z" id="形状" fill="#214273"></path>
                            </g>
                        </g>
                        <g id="制造" transform="translate(502.566749, 45.525716)" fill="#FFDE9E">
                            <path d="M47.8662431,7.96533349 C47.8909801,6.3821648 47.2972905,4.89793507 46.1841202,3.78477234 C44.5762091,2.12739179 42.2014522,1.6326511 40.1482776,2.325285 L11.9479969,2.325285 C11.8985228,2.325285 11.8490488,2.325285 11.7748377,2.35002211 C10.2906156,0.915269515 8.26217568,0 6.03584257,0 L1.23685173,0 C0.544213996,0 0,0.544215527 0,1.23685173 C0,1.92948946 0.544215527,2.47370346 1.23685173,2.47370346 L6.03584257,2.47370346 C9.20218759,2.47370346 11.7748377,5.04636118 11.7748377,8.21269855 C11.7748377,11.3790436 9.20217993,13.9269589 6.03584257,13.9269589 L1.23685173,13.9269589 C0.544213996,13.9269589 0,14.4711744 0,15.1638106 C0,15.8564484 0.544215527,16.4006624 1.23685173,16.4006624 L6.03584257,16.4006624 C8.50954603,16.4006624 10.7111444,15.3122344 12.2201089,13.5806343 L27.7549942,13.5806343 L19.9380974,21.2243879 C18.824927,22.3128159 18.1817625,23.7970457 18.1817625,25.3802143 C18.1817625,25.7512699 18.2064996,26.0975891 18.2559737,26.4439076 L18.2559737,41.3603862 L14.3475177,41.3603862 C12.8880303,41.3603862 11.7006557,42.5477684 11.7006557,44.0072481 L11.7006557,49.1525559 L8.11378187,49.1525559 C6.48113606,49.1525559 5.14533772,50.4883542 5.14533772,52.121 C5.14533772,53.7536458 6.48113606,55.0894442 8.11378187,55.0894442 L36.8334844,55.0894442 C38.4661302,55.0894442 39.8019286,53.7536458 39.8019286,52.121 C39.8019286,50.4883542 38.4661302,49.1525559 36.8334844,49.1525559 L33.2466106,49.1525559 L33.2466106,44.0072481 C33.2466106,42.5477608 32.0592283,41.3603862 30.5997486,41.3603862 L29.5360554,41.3603862 L29.5360554,28.3486585 L45.7635286,12.4674409 L46.1098471,12.1211217 C47.2230175,11.0079513 47.8661819,9.52372923 47.8661819,7.96529528 L47.8662431,7.96533349 Z M44.0319989,10.6864073 C42.6962006,11.9974709 40.5193369,11.9727362 39.2082733,10.6369332 C37.8972097,9.30113488 37.9219445,7.12427125 39.2577474,5.81320765 C39.9009111,5.19478102 40.7419695,4.848461 41.6325043,4.848461 L41.6572413,4.848461 C42.5725108,4.848461 43.4135761,5.21951729 44.0567329,5.86267712 C44.6998965,6.50584079 45.0462143,7.37163394 45.0214795,8.28691111 C45.0462166,9.20218062 44.675161,10.0432459 44.0319981,10.6864027 L44.0319989,10.6864073 Z M24.0692051,28.8434351 L24.0197309,28.8434351 C23.1044614,28.8434351 22.2633961,28.4723796 21.6202394,27.829219 C20.9770757,27.1860553 20.630758,26.3202545 20.6554927,25.404985 C20.6554927,24.4897155 21.0265482,23.6486502 21.6697088,23.0054934 C22.3128725,22.3870668 23.1539309,22.0407467 24.0444657,22.0407467 L24.0692028,22.0407467 C24.9844723,22.0407467 25.8255376,22.4118023 26.4686944,23.0549629 C27.1118581,23.6981265 27.4581758,24.5639273 27.433441,25.4791969 C27.433441,26.3944664 27.0623855,27.2355317 26.4192249,27.8786884 C25.8255353,28.4971151 24.9844723,28.8434351 24.0692028,28.8434351 L24.0692051,28.8434351 Z M28.2745086,21.3233704 C27.4087086,20.4328357 26.2955459,19.8638831 25.1081636,19.6412475 L35.8192774,9.15275402 C35.9924366,10.3153939 36.5366522,11.453299 37.4271885,12.3685685 C38.3177232,13.283838 39.4308936,13.8280559 40.5935335,14.0506915 L29.8824197,24.5391849 C29.7092605,23.327068 29.1403079,22.2138976 28.2745086,21.3233704 L28.2745086,21.3233704 Z M13.5064661,4.774292 L15.8070141,4.774292 L15.8070141,11.106982 L13.7043623,11.106982 C14.0506808,10.1917125 14.2485779,9.22696589 14.2485779,8.18800737 C14.2485779,6.97589038 14.0012075,5.81325052 13.5064661,4.774292 L13.5064661,4.774292 Z M18.30546,11.106982 L18.30546,4.774292 L36.7592893,4.774292 L30.3029179,11.106982 L18.30546,11.106982 L18.30546,11.106982 Z M37.3529789,52.1210206 C37.3529789,52.393128 37.1303356,52.6157621 36.8582275,52.6157621 L8.11379787,52.6157621 C7.84169049,52.6157621 7.61905642,52.3931288 7.61905642,52.1210206 C7.61905642,51.8489132 7.84168973,51.6262792 8.11379787,51.6262792 L36.8335004,51.6262792 C37.1303448,51.6262792 37.3529789,51.8489125 37.3529789,52.1210206 L37.3529789,52.1210206 Z M30.7976509,43.9825186 L30.7976509,49.1278264 L14.1743147,49.1278264 L14.1743147,43.9825186 C14.1743147,43.8835705 14.2485259,43.8093594 14.3474739,43.8093594 L19.0475182,43.8093594 C19.1712033,43.8588335 19.3196256,43.8835706 19.4927856,43.8835706 C19.6659448,43.8835706 19.78963,43.8588335 19.9380529,43.8093594 L27.8786617,43.8093594 C28.0023469,43.8588335 28.1507691,43.8835706 28.3239291,43.8835706 C28.4970884,43.8835706 28.6207735,43.8588335 28.7691965,43.8093594 L30.6492127,43.8093594 C30.7234238,43.8093594 30.7976509,43.8835706 30.7976509,43.9825186 L30.7976509,43.9825186 Z M20.7296703,41.335672 L20.7296703,30.2782107 C21.6944176,30.9461114 22.8075803,31.2924268 23.9949626,31.3171692 L24.0691738,31.3171692 C25.132867,31.3171692 26.1470832,31.0203248 27.0623603,30.5008463 L27.0623603,41.335672 L20.7296703,41.335672 L20.7296703,41.335672 Z" id="形状"></path>
                        </g>
                    </g>
                </g>
            </g>
        </g>
    </g>
</svg>
