
<svg width="144px" height="246px" viewBox="0 0 144 246" version="1.1" xmlns="http://www.w3.org/2000/svg" xmlns:xlink="http://www.w3.org/1999/xlink">
    <g id="页面-1" stroke="none" stroke-width="1" fill="none" fill-rule="evenodd">
        <g id="Investment-philosoph" transform="translate(-1229.000000, -1733.000000)" fill-rule="nonzero">
            <g id="编组-8" transform="translate(-163.000000, 557.000000)">
                <g id="编组-11" transform="translate(163.000000, 925.000000)">
                    <g id="编组-13" transform="translate(548.000000, 206.000000)">
                        <g id="编组备份-4" transform="translate(680.000000, 45.000000)">
                            <g id="编组备份" opacity="0.271449498" transform="translate(1.000000, 88.800000)">
                                <g id="几何体" opacity="0.773810977">
                                    <path d="M72.0000953,156.143979 L72.0000955,156.143979 C71.6301061,156.235099 71.243532,156.235099 70.8735425,156.143979 L1.23208216,112.413239 L1.23208205,112.413239 C0.564399347,111.957889 0.20835098,111.166669 0.310356837,110.36496 L0.310356837,39.5969469 L0.310356768,39.596934 C0.306380932,38.8457647 0.694616967,38.1469514 1.33450709,37.7534836 L1.33450713,37.7534835 C2.00513903,37.3892469 2.81456739,37.3892469 3.48519929,37.7534836 L73.1266596,81.4842241 L73.1266597,81.4842241 C73.6847739,81.8923948 74.0245672,82.5342276 74.0484152,83.2252607 L74.0484152,153.993274 L74.0484152,153.993287 C74.0523608,154.744456 73.6641263,155.443269 73.0242346,155.836737 L73.0242346,155.836737 C72.7207054,156.03808 72.3643322,156.144992 72.0000955,156.143979 L72.0000953,156.143979 Z" id="形状" fill="#1A3255"></path>
                                    <path d="M72.0000953,156.143979 L72.0000953,156.143979 C71.6655682,156.24071 71.3104832,156.24071 70.9759561,156.143979 L70.9759562,156.143979 C70.3360677,155.750515 69.9478373,155.051698 69.9517868,154.300529 L69.9517868,83.3276875 L69.9517868,83.3276868 C69.9756343,82.6366537 70.3154281,81.9948209 70.8735423,81.5866503 L140.515003,37.8559097 L140.515003,37.8559097 C141.185635,37.491673 141.995063,37.491673 142.665695,37.8559097 L142.665695,37.8559097 C143.305583,38.2493744 143.693814,38.9481909 143.689864,39.6993601 L143.689864,110.467374 L143.689864,110.467374 C143.682067,111.162589 143.338703,111.811163 142.768109,112.208411 L73.1266484,155.939151 L73.1266483,155.939151 C72.7736932,156.099047 72.3867446,156.169402 72.0000953,156.143979 L72.0000953,156.143979 Z" id="形状" fill="#0A1D39"></path>
                                    <path d="M72.0000953,85.3759657 L72.0000955,85.3759657 C71.6301061,85.4670853 71.243532,85.4670853 70.8735425,85.3759658 L1.23208216,41.3379835 L1.23208193,41.3379834 C0.631240308,40.920317 0.283985136,40.2258067 0.308955364,39.4945329 L0.308955364,39.4945303 C0.292916048,38.7379635 0.739629372,38.0475914 1.43691289,37.7534938 L71.0783732,0.474829737 L71.0783732,0.474829743 C71.6538754,0.165293294 72.3463215,0.165293294 72.9218237,0.474829731 L142.563284,37.7534938 L142.563284,37.7534937 C143.260567,38.0475913 143.707279,38.7379635 143.691238,39.4945303 L143.691238,39.4945295 C143.716209,40.2258033 143.368955,40.9203136 142.768112,41.33798 L73.1266513,85.0687205 L73.1266514,85.0687205 C72.7828719,85.2640638 72.3954512,85.3697246 72.0000983,85.3759622 L72.0000953,85.3759657 Z" id="形状" fill="#214273"></path>
                                </g>
                            </g>
                            <g id="几何体" opacity="0.773810977">
                                <path d="M73.0000953,156.143979 L73.0000955,156.143979 C72.6301061,156.235099 72.243532,156.235099 71.8735425,156.143979 L2.23208216,112.413239 L2.23208205,112.413239 C1.56439935,111.957889 1.20835098,111.166669 1.31035684,110.36496 L1.31035684,39.5969469 L1.31035677,39.596934 C1.30638093,38.8457647 1.69461697,38.1469514 2.33450709,37.7534836 L2.33450713,37.7534835 C3.00513903,37.3892469 3.81456739,37.3892469 4.48519929,37.7534836 L74.1266596,81.4842241 L74.1266597,81.4842241 C74.6847739,81.8923948 75.0245672,82.5342276 75.0484152,83.2252607 L75.0484152,153.993274 L75.0484152,153.993287 C75.0523608,154.744456 74.6641263,155.443269 74.0242346,155.836737 L74.0242346,155.836737 C73.7207054,156.03808 73.3643322,156.144992 73.0000955,156.143979 L73.0000953,156.143979 Z" id="形状" fill="#1A3255"></path>
                                <path d="M73.0000953,156.143979 L73.0000953,156.143979 C72.6655682,156.24071 72.3104832,156.24071 71.9759561,156.143979 L71.9759562,156.143979 C71.3360677,155.750515 70.9478373,155.051698 70.9517868,154.300529 L70.9517868,83.3276875 L70.9517868,83.3276868 C70.9756343,82.6366537 71.3154281,81.9948209 71.8735423,81.5866503 L141.515003,37.8559097 L141.515003,37.8559097 C142.185635,37.491673 142.995063,37.491673 143.665695,37.8559097 L143.665695,37.8559097 C144.305583,38.2493744 144.693814,38.9481909 144.689864,39.6993601 L144.689864,110.467374 L144.689864,110.467374 C144.682067,111.162589 144.338703,111.811163 143.768109,112.208411 L74.1266484,155.939151 L74.1266483,155.939151 C73.7736932,156.099047 73.3867446,156.169402 73.0000953,156.143979 L73.0000953,156.143979 Z" id="形状" fill="#0A1D39"></path>
                                <path d="M73.0000953,85.3759657 L73.0000955,85.3759657 C72.6301061,85.4670853 72.243532,85.4670853 71.8735425,85.3759658 L2.23208216,41.3379835 L2.23208193,41.3379834 C1.63124031,40.920317 1.28398514,40.2258067 1.30895536,39.4945329 L1.30895536,39.4945303 C1.29291605,38.7379635 1.73962937,38.0475914 2.43691289,37.7534938 L72.0783732,0.474829737 L72.0783732,0.474829743 C72.6538754,0.165293294 73.3463215,0.165293294 73.9218237,0.474829731 L143.563284,37.7534938 L143.563284,37.7534937 C144.260567,38.0475913 144.707279,38.7379635 144.691238,39.4945303 L144.691238,39.4945295 C144.716209,40.2258033 144.368955,40.9203136 143.768112,41.33798 L74.1266513,85.0687205 L74.1266514,85.0687205 C73.7828719,85.2640638 73.3954512,85.3697246 73.0000983,85.3759622 L73.0000953,85.3759657 Z" id="形状" fill="#214273"></path>
                            </g>
                        </g>
                        <g id="创新" transform="translate(725.000000, 91.000000)" fill="#FFDE9E">
                            <path d="M39.3911546,0.0613621477 L39.3911542,0.061362214 C40.6452523,-0.128977754 41.9263832,0.126691978 43.0113508,0.783828875 L43.0113509,0.78382892 C44.0364199,1.41484723 44.8445932,2.34356413 45.3279654,3.44597167 L45.3279656,3.44597213 C46.032901,5.06763613 46.0129044,6.91294736 45.2729951,8.51895997 L45.2729952,8.51895976 C44.7364395,9.67211882 43.8373592,10.6180823 42.7129409,11.2125127 L42.7129412,11.2125125 C41.6282583,11.7818975 40.3836133,11.9699773 39.179128,11.7465116 L39.1791274,11.7465115 C37.9265063,11.5036164 36.7938112,10.8417228 35.9672848,9.86966114 L35.9672849,9.86966124 C35.0020338,8.73172925 34.4903559,7.2777886 34.5301988,5.78614282 L34.5301989,5.78613915 C34.5636797,4.47556927 35.0149003,3.20995012 35.8180812,2.1737951 L35.818081,2.17379542 C36.6982216,1.04212613 37.975394,0.287051521 39.3911569,0.0613632704 L39.3911546,0.0613621477 Z M15.6046475,3.09259077 L15.6046473,3.0925908 C17.3760146,2.81833545 19.1889166,3.06952134 20.8189863,3.81505746 L20.8189874,3.81505793 C23.2663345,4.90657825 25.5164226,6.39514101 27.478292,8.22054695 L27.4782918,8.22054713 C29.1993104,6.63323132 31.1309997,5.29082155 33.2187624,4.23126465 L33.2187624,4.2312646 C32.9778712,5.41653209 32.9885726,6.63917707 33.2501741,7.820051 L33.2501727,7.82005182 C31.9990502,8.56768208 30.8257549,9.43845019 29.7477697,10.4193688 L29.747772,10.4193713 C31.3733892,12.1499988 32.8793919,13.9892138 34.2553496,15.9242654 L34.2553495,15.9242653 C34.3279485,16.0799982 34.4712414,16.1911231 34.6401427,16.2226767 L34.6401437,16.2226768 C36.9721787,16.5189268 39.2792971,16.986125 41.5428666,17.6204948 L41.5428668,17.6204939 C41.8004637,16.197899 41.9292492,14.7549691 41.9276599,13.3092409 L41.9276602,13.3092408 C43.0388817,12.9953381 44.0609698,12.4251201 44.9117682,11.64442 L44.9117691,11.6444365 C45.0430388,13.9725828 44.8980574,16.3080821 44.4798558,18.6021057 L44.4798562,18.6021059 C47.3276886,19.5947926 49.9473137,21.1489526 52.1835712,23.1725038 L52.1835712,23.1725037 C53.2423385,24.1697827 54.0612433,25.3941088 54.5787112,26.7534376 L54.5787114,26.7534383 C55.0796895,28.1531416 55.0907642,29.6814344 54.6101228,31.088249 L54.6101229,31.0882488 C54.021923,32.6776056 53.0316372,34.0872723 51.735956,35.1796197 L51.7359561,35.1796196 C49.642629,36.9474688 47.2523552,38.3300491 44.6761823,39.263138 L44.6761823,39.263138 C44.562475,39.276573 44.4811883,39.379642 44.4946235,39.4933493 C44.4970862,39.5141916 44.5026993,39.5345391 44.5112709,39.5536963 L44.5112708,39.5536954 C44.827873,41.3765769 44.9803075,43.2241816 44.9667406,45.0743268 L44.9667405,45.0743067 C44.9735147,46.962243 44.6465166,48.8365152 44.0008395,50.6106217 L44.0008396,50.6106216 C43.5265081,51.8886157 42.7052282,53.0090379 41.6292572,53.8460272 L41.6292571,53.8460273 C40.5451274,54.6250624 39.2333329,55.022744 37.8991194,54.9768479 L37.8991189,54.9768479 C36.1509065,54.8856998 34.4460495,54.3997501 32.9125145,53.5554669 L32.9125144,53.5554668 C30.9473202,52.5082688 29.121592,51.2181252 27.478304,49.7154042 L27.4783047,49.7154036 C26.2155966,50.8534968 24.8572616,51.8807895 23.4183439,52.785895 L23.4183438,52.7858951 C21.9028288,53.7589236 20.2242204,54.4505816 18.4631495,54.8276543 L18.4631495,54.8276543 C17.0814394,55.1277903 15.6405774,54.9905651 14.340363,54.4350081 L14.340363,54.4350081 C13.2295175,53.9229811 12.3009456,53.0847995 11.6782203,52.0320156 L11.6782201,52.0320152 C10.7928372,50.5010798 10.2590412,48.7923879 10.1154878,47.0297056 L10.1154865,47.0296921 C9.87806081,44.4653033 9.99964532,41.8803218 10.4767236,39.3495562 L10.4767251,39.3495567 C7.7620691,38.3846171 5.25083278,36.9226144 3.07142839,35.0383036 L3.07142941,35.0383045 C1.62543799,33.8055619 0.598972436,32.1533309 0.134436739,30.3108449 L0.134436686,30.3108446 C-0.187994744,28.7152251 0.0739983828,27.0568658 0.872613814,25.6383582 L0.872614106,25.6383577 C1.75181484,24.1267852 2.94639044,22.8223921 4.37501711,21.8139842 L4.37501827,21.8139833 C6.24924213,20.4687161 8.29978847,19.3879488 10.4689072,18.6021407 L10.4689066,18.6021372 C10.0377802,16.2276007 9.90324917,13.8087097 10.0684078,11.400996 L10.0684076,11.4009995 C10.1623707,9.32434964 10.7956922,7.3080011 11.9059899,5.55058255 L11.9059901,5.55058226 C12.7718329,4.28092405 14.0988007,3.39909685 15.6047175,3.09261651 M14.8586878,7.49810552 L14.858688,7.4981053 C13.8453226,8.62272233 13.2395968,10.0554471 13.1388994,11.5659186 L13.1388982,11.5659308 C12.9395488,13.5868609 13.0321159,15.6259668 13.4137524,17.6205042 L13.4137494,17.6205042 C15.6711368,16.9936484 17.9698709,16.5265507 20.2928931,16.2226861 L20.2928931,16.2226861 C20.4478407,16.2116105 20.586696,16.1229797 20.6619806,15.9870984 L20.6619838,15.9870939 C22.0487857,14.0274427 23.5707137,12.1670118 25.2166819,10.4193579 L25.2166819,10.4193578 C24.3881843,9.68190044 23.5119967,8.99983519 22.5938072,8.37759863 L22.5938073,8.37759872 C21.2450167,7.39973626 19.6844919,6.75400113 18.0391145,6.49289585 L18.0391146,6.49289585 C16.8821904,6.33773659 15.7163018,6.70621554 14.8586822,7.49807036 M27.4783502,12.6495752 L27.4783485,12.6495752 C26.5284695,13.6596047 25.6320114,14.7185762 24.7926481,15.8221605 C26.583115,15.7593364 28.373582,15.7593364 30.1640708,15.8221605 L30.1640708,15.8221605 C29.3266841,14.7169922 28.4301454,13.6579133 27.4783704,12.6495752 M22.2404737,19.371668 L22.2404731,19.3716688 C20.2647892,22.3603208 18.5391407,25.5069152 17.0811019,28.7794728 L17.0811018,28.7794728 C17.002926,28.9117254 17.009063,29.0774233 17.0968078,29.2035308 L17.0968068,29.2035287 C18.5548671,32.4564763 20.2723461,35.5868125 22.2326204,38.5642281 L22.2326172,38.5642278 C25.72011,38.8783463 29.2287972,38.8783469 32.7162524,38.5642283 L32.7162539,38.5642261 C34.6945106,35.5730336 36.4227694,32.4238234 37.8834669,29.1485804 L37.8834669,29.1485804 C37.9488123,29.0243044 37.942824,28.8745936 37.8677611,28.7559341 L37.8677636,28.7559398 C36.4122922,25.4911704 34.6892541,22.352407 32.716261,19.371715 L32.7162634,19.3717152 C29.2312198,19.0615251 25.7255082,19.0615251 22.2404699,19.3717148 M14.1048638,20.8009484 L14.1048638,20.8009448 C14.4507047,22.1749098 14.8674687,23.5300491 15.3534781,24.8609056 C16.1937383,23.1882323 17.0968244,21.5469745 18.047031,19.929269 C16.7198859,20.1491511 15.4084513,20.455415 14.1048638,20.8009448 M36.901907,19.9292298 C37.8599662,21.539079 38.7551943,23.1881947 39.5954599,24.860868 L39.5954605,24.860868 C40.0840464,23.530128 40.5034288,22.1749941 40.8519273,20.8009056 C39.5483398,20.4632299 38.2369052,20.1412593 36.901907,19.9292298 M5.99278469,24.593869 L5.992785,24.5938688 C4.99730533,25.3502056 4.22193333,26.3587317 3.74684879,27.5151563 L3.74684874,27.5151565 C3.39043436,28.4912572 3.40440513,29.5641882 3.78611336,30.53068 L3.78611301,30.5306793 C4.36014396,31.8046236 5.27282275,32.896579 6.42469274,33.687554 L6.42469356,33.6875546 C7.87868256,34.7239513 9.46630452,35.5587062 11.1442952,36.169078 L11.1442966,36.169078 C11.7470683,33.7980542 12.5105648,31.4708264 13.4294956,29.2035078 L13.4294956,29.2035078 C13.5055939,29.0494544 13.5026693,28.8681454 13.4216427,28.7166267 L13.421641,28.7166225 C12.5064646,26.4541003 11.7456107,24.1321791 11.1442999,21.766795 L11.1442998,21.766795 C9.28825708,22.4304053 7.54941717,23.3846456 5.99278645,24.5938467 M43.8046322,21.7667951 L43.8046313,21.7667951 C43.1990612,24.1593713 42.4302903,26.5076539 41.5037326,28.7951516 L41.5037326,28.7951516 C41.4420246,28.9469926 41.456617,29.1191831 41.5429972,29.258474 L41.5429978,29.2584755 C42.4508426,31.5068341 43.2089949,33.8127708 43.8124917,36.1611987 L43.8124908,36.1611987 C45.568051,35.5317917 47.2217053,34.6480792 48.7205644,33.538324 L48.7205642,33.5383242 C49.8082012,32.7633013 50.6613414,31.7036692 51.1863825,30.4756854 L51.1863825,30.4756855 C51.5771982,29.4532214 51.5575013,28.3192372 51.131412,27.3109582 L51.131412,27.3109582 C50.5408004,26.066657 49.630211,25.0015947 48.4928322,24.2247618 L48.4928317,24.2247614 C47.0482314,23.1975492 45.4711636,22.3707167 43.8046348,21.7667951 M14.0970265,37.1271211 L14.0970265,37.1271211 C15.394502,37.4881616 16.7104591,37.7791404 18.039194,37.9987969 C17.1046978,36.3810968 16.1937593,34.7555387 15.3613462,33.0907179 L15.3613458,33.0907179 C14.8715536,34.4138142 14.449564,35.7610311 14.0970265,37.127122 M39.1243115,34.0016574 C38.4489601,35.3602127 37.6715202,36.6795053 36.917638,37.9987925 L36.917638,37.9987925 C38.2437791,37.7791321 39.5571151,37.4881539 40.8519315,37.127122 C40.4985502,35.7607141 40.0901967,34.4100114 39.6033173,33.0828663 C39.4305531,33.3812776 39.2813472,33.6953919 39.1242887,34.0016574 M13.4137998,40.3153854 L13.4137996,40.3153854 C12.999359,42.4365952 12.9251369,44.6102418 13.1939175,46.7547985 L13.1939174,46.7547976 C13.3360211,48.0764373 13.8785285,49.3231072 14.7487971,50.3278789 L14.7487971,50.3278789 C15.4208774,51.0223299 16.3352643,51.4302864 17.3009988,51.4665521 L17.3009991,51.4665521 C18.581088,51.4608389 19.8393004,51.1341357 20.9604584,50.5163508 L20.9604603,50.5163497 C22.4989958,49.7020964 23.9267792,48.6939409 25.2088957,47.5165313 L25.2088957,47.5165341 C23.549027,45.7462303 22.0115389,43.8650401 20.6070822,41.88601 L20.6070822,41.88601 C20.4909596,41.7482971 20.3154578,41.6751712 20.1359067,41.6896872 L20.1359048,41.6896869 C17.8644719,41.3974513 15.6176764,40.9381196 13.413812,40.3153854 M34.640238,41.7132446 L34.640238,41.7132446 C34.4740218,41.7412296 34.3326733,41.8501861 34.263298,42.0038028 L34.2632971,42.0038041 C32.8823711,43.9394143 31.3711047,45.7786454 29.7400144,47.5086982 L29.7400144,47.5086986 C31.0159895,48.6865701 32.4386489,49.6948384 33.9727425,50.5085171 L33.972742,50.5085168 C35.0928581,51.1289272 36.3517526,51.4558124 37.6322014,51.4587181 L37.6322013,51.4587181 C38.6647523,51.4286143 39.6391933,50.9740644 40.3257542,50.2022513 L40.325754,50.2022515 C41.1766706,49.1229397 41.6926668,47.8179397 41.8099555,46.4485562 L41.8099556,46.4485548 C42.0197921,44.4020744 41.9298439,42.335925 41.5429561,40.3154031 L41.5429555,40.3154031 C39.2793914,40.9497732 36.972273,41.4169729 34.6402326,41.7132213 M24.7612655,42.1058671 C25.6250991,43.1974254 26.5203326,44.2732729 27.4705339,45.2862999 L27.4705342,45.2862999 C28.4281262,44.2738257 29.3324368,43.2122439 30.1797923,42.1058671 C28.3814728,42.1843964 26.5674482,42.1922495 24.7612655,42.1058671 L24.7612655,42.1058671 Z" id="形状"></path>
                        </g>
                    </g>
                </g>
            </g>
        </g>
    </g>
</svg>
