
<svg width="274px" height="86px" viewBox="0 0 274 86" version="1.1" xmlns="http://www.w3.org/2000/svg" xmlns:xlink="http://www.w3.org/1999/xlink">
    <g id="页面-1" stroke="none" stroke-width="1" fill="none" fill-rule="evenodd">
        <g id="首页" transform="translate(-435.000000, -436.000000)">
            <circle id="椭圆形" fill="#4AF2F6" cx="454.5" cy="508.5" r="3.5"></circle>
            <circle id="椭圆形备份-5" fill="#4AF2F6" cx="571.5" cy="508.5" r="3.5"></circle>
            <circle id="椭圆形备份-6" fill="#4AF2F6" cx="688.5" cy="508.5" r="3.5"></circle>
            <circle id="椭圆形" fill="#4AF2F6" opacity="0.417736235" cx="453.5" cy="519.5" r="2.5"></circle>
            <circle id="椭圆形备份-5" fill="#4AF2F6" opacity="0.417736235" cx="571.5" cy="519.5" r="2.5"></circle>
            <circle id="椭圆形备份-6" fill="#4AF2F6" opacity="0.417736235" cx="688.5" cy="519.5" r="2.5"></circle>
            <g id="科技" transform="translate(435.586536, 436.000053)" fill="#FFFFFF" fill-rule="nonzero">
                <path d="M0.630576495,17.224807 L0.630576232,17.2248066 C1.52945775,18.4830964 3.27818908,18.7744549 4.53647882,17.8755734 C5.72047981,17.0297626 6.05929739,15.4180159 5.31606606,14.1670695 L17.6403343,4.9783205 L17.6403344,4.97832057 C18.6355949,6.00210379 20.233162,6.13578832 21.3847301,5.29164949 L21.3847302,5.29164947 C21.5640978,5.15260931 21.7283332,4.99507752 21.8747249,4.82165673 L33.5045743,14.4470976 L33.5045744,14.4470976 C32.7470001,15.6516333 32.9893527,17.2297828 34.0734555,18.1514937 L34.0734556,18.1514937 C35.327384,19.0935331 37.1014498,18.8772325 38.0922931,17.661499 L38.0922932,17.6614989 C39.1218299,16.4619991 38.9840462,14.6550107 37.7845481,13.6254739 C37.7760625,13.6181907 37.7675343,13.6109573 37.758964,13.6037741 L37.758964,13.6037741 C36.6411264,12.7186641 35.0458066,12.7770716 33.9956792,13.7415501 L22.2324975,3.93946449 L22.2324976,3.9394642 C22.5941574,2.99259513 22.4461716,1.92650912 21.8402806,1.11394763 L21.8402807,1.11394775 C20.8790471,-0.131928306 19.09234,-0.368170768 17.8403322,0.585066279 L17.8403323,0.58506627 C16.7150009,1.45912901 16.3910376,3.02104489 17.0758958,4.27057329 L4.88384257,13.4660254 L4.8838426,13.4660254 C3.89259965,12.4337731 2.28845833,12.2995385 1.13944684,13.1526961 L1.13944658,13.1526963 C-0.11957363,14.1423451 -0.347054754,15.96118 0.629454195,17.2304182 L0.630576495,17.224807 Z M0.591688141,29.8146224 L0.591688144,29.8146224 C1.52175212,31.0791083 3.30078505,31.3502156 4.56527089,30.4201516 C5.71527067,29.5742979 6.0593906,28.0066371 5.36940191,26.7568853 L17.6403459,17.5636675 L17.6403459,17.5636676 C18.6356065,18.5874508 20.2331736,18.7211354 21.3847417,17.8769965 L21.3847417,17.8769965 C21.5655501,17.7372624 21.7315966,17.5794062 21.8802923,17.4058909 L33.3246025,27.0113083 L33.3246025,27.0113084 C32.5579274,28.2139406 32.8012726,29.7985397 33.8934836,30.7157045 L33.8934835,30.7157044 C35.1421525,31.7104579 36.9581515,31.5184647 37.9712054,30.2845984 L37.9712056,30.2845983 C39.0007423,29.0850985 38.8629586,27.27811 37.6634604,26.2485733 C37.6549749,26.2412901 37.6464467,26.2340567 37.6378763,26.2268734 L37.6378762,26.2268733 C36.5248768,25.3362246 34.9297203,25.3861458 33.8745913,26.3446499 L22.1125269,16.5436815 L22.1125269,16.5436815 C22.5,15.6228129 22.3967981,14.5686206 21.838086,13.7403841 L21.838086,13.7403841 C20.9125165,12.4589556 19.1233902,12.1704717 17.8419618,13.0960411 C17.8343647,13.1015285 17.8267946,13.1070531 17.8192518,13.1126148 L17.8192519,13.1126146 C16.6622139,13.9928864 16.3354103,15.5936503 17.0548155,16.8570104 L4.86164504,26.0502281 L4.86164506,26.0502282 C3.86812477,25.0353137 2.27790534,24.9095956 1.13725128,25.7557875 L1.13725129,25.7557875 C-0.131518548,26.7275183 -0.375448128,28.5423614 0.591702216,29.8146246 L0.591688141,29.8146224 Z M38.168978,14.1526237 L38.168978,14.1526238 C37.2067905,12.8868746 35.4006916,12.6407837 34.1349424,13.6029712 C33.0166966,14.4530316 32.6751763,15.9859993 33.3268196,17.2303629 L21.1336492,26.4235806 L21.1336492,26.4235807 C20.1383887,25.3997974 18.5408216,25.2661129 17.3892534,26.1102513 L17.3892535,26.1102513 C17.2143421,26.24754 17.0565483,26.4053339 16.9192608,26.580244 L5.35386452,16.9559203 L5.35386449,16.9559203 C6.12053961,15.7532881 5.8771944,14.168689 4.78498336,13.2515242 L4.78498336,13.2515242 C3.52095298,12.2704563 1.7028829,12.4889225 0.707261426,13.7415189 L0.70726144,13.7415189 C-0.244531855,14.92445 -0.107027398,16.6447488 1.02059079,17.661468 L1.02059079,17.661468 C2.10487409,18.5854476 3.69959235,18.5854476 4.78387564,17.661468 L16.5459401,27.4624364 L16.5459402,27.4624363 C16.1851015,28.4086651 16.3330568,29.4736941 16.9381572,30.2857314 L16.9381572,30.2857314 C17.8682212,31.5502172 19.6472541,31.8213246 20.91174,30.8912606 C22.0617397,30.0454069 22.4058597,28.4777461 21.715871,27.2279942 L33.9090414,18.0347765 L33.9090415,18.0347765 C34.9064504,19.0413508 36.4902546,19.1665618 37.6334352,18.3292172 L37.6334353,18.3292172 C38.9250517,17.3811493 39.203554,15.5655284 38.2554861,14.2739121 C38.2254851,14.2330396 38.1944179,14.1929606 38.162316,14.1537167 L38.168978,14.1526237 Z M38.1900888,26.7380134 L38.1900889,26.7380135 C37.3141527,25.4155283 35.531983,25.0535248 34.2094936,25.929461 C32.9307636,26.7764147 32.5431292,28.4786323 33.3290414,29.7957549 L21.135871,38.9889727 L21.135871,38.9889727 C20.1406105,37.9651895 18.5430434,37.8315049 17.3914752,38.6756433 L17.3914751,38.6756434 C17.2188007,38.8154355 17.0612736,38.972963 16.9214824,39.1456362 L5.3560861,29.5213125 L5.35608612,29.5213124 C6.12394288,28.3189766 5.8815172,26.7337115 4.78942648,25.8158077 L4.78942637,25.8158076 C3.54075733,24.8210541 1.72475835,25.0130473 0.711704433,26.2469136 L0.711704397,26.2469136 C-0.317832348,27.4464135 -0.180048594,29.2534019 1.01944952,30.2829387 C1.02793509,30.2902219 1.03646327,30.2974553 1.04503362,30.3046385 L1.04503342,30.3046383 C2.15803276,31.195287 3.75318931,31.1453659 4.80831827,30.1868626 L16.5670312,39.9889482 L16.5670312,39.9889481 C16.2061926,40.9351769 16.3541479,42.0002059 16.9592483,42.8122432 L16.9592483,42.8122432 C17.8893123,44.076729 19.6683452,44.3478364 20.932831,43.4177724 C22.0828308,42.5719187 22.4269507,41.0042579 21.736962,39.754506 L33.9301325,30.5612883 L33.9301325,30.5612883 C34.9253931,31.5850715 36.5229601,31.7187561 37.6745283,30.8746172 L37.6745284,30.8746172 C38.955149,29.8934762 39.1979227,28.0599588 38.2167817,26.7793425 C38.2061516,26.7654677 38.1953972,26.7516886 38.1845198,26.7380069 L38.1900888,26.7380134 Z" id="形状"></path>
            </g>
            <g id="环保" transform="translate(551.000000, 436.000000)" fill="#FFFFFF" fill-rule="nonzero">
                <path d="M40.9583457,33.7392865 L40.9359209,33.6888966 L35.2115314,23.4011776 C34.8806992,22.8063046 34.1302173,22.5926509 33.53534,22.9234848 C32.940467,23.2543171 32.7266844,24.0049322 33.0576473,24.5996762 L38.7260914,34.787192 C38.9516148,35.3163313 38.9000377,35.5907472 38.8595409,35.653052 C38.8380394,35.6862935 38.7617512,35.7094657 38.6740304,35.7094657 L21.56003,35.7094657 L23.5308198,33.3998841 C23.9725433,32.8821788 23.9110305,32.1042115 23.393149,31.6623118 C22.8755769,31.2205882 22.0976096,31.2821011 21.6555767,31.7999825 L18.2379458,35.8052763 C17.796089,36.3229816 17.8576912,37.1009489 18.3754408,37.5428486 L22.3807775,40.9605225 C22.6127643,41.1585206 22.8971206,41.2553869 23.1801132,41.2553869 C23.5284015,41.2553869 23.874446,41.1085264 24.1183498,40.82285 C24.5600734,40.3051447 24.4985605,39.5271774 23.980679,39.0852777 L22.9132567,38.1744337 L38.6740836,38.1744337 C39.6050671,38.1744337 40.4471396,37.733896 40.9265038,36.9960745 C41.2546097,36.4912083 41.6951469,35.3966554 40.9583823,33.7392887 L40.9583457,33.7392865 Z M28.6548314,16.6871182 L27.0030892,16.0677101 C26.3666654,15.8285118 25.6554888,16.1515173 25.4164233,16.7889543 C25.1773569,17.4262589 25.5002305,18.1366879 26.1377105,18.3756202 L31.0676928,20.2243485 C31.2101563,20.2779044 31.3564014,20.3031873 31.5002296,20.3031873 C31.9991146,20.3031873 32.4688495,19.9979021 32.6543587,19.5031039 L34.503087,14.5731216 C34.7421534,13.935817 34.4192798,13.225388 33.7818428,12.9864557 C33.1452858,12.7472574 32.4342424,13.0702629 32.1951769,13.7077429 L31.238034,16.2601712 L23.3160912,2.02293199 C22.8489516,1.10720671 22.0974573,0.582948678 21.2497989,0.582948678 C21.2488756,0.582948678 21.2478643,0.582948678 21.2469409,0.582948678 C20.3550504,0.58422382 19.5585721,1.15113371 19.0573539,2.13980283 L14.3793407,10.4553399 C14.0456506,11.0485843 14.2560482,11.8000828 14.8492948,12.1337699 C15.4425392,12.4674162 16.1940377,12.2571944 16.5278151,11.6639061 L21.2194494,3.32422062 L28.6548136,16.6871737 L28.6548314,16.6871182 Z M13.3737511,16.268126 C13.2806222,15.9408116 13.063717,15.6821777 12.7881551,15.5287232 C12.5125498,15.3751794 12.1783763,15.3267681 11.8509282,15.4200289 L6.78675437,16.8608888 C6.13208174,17.0471465 5.75231059,17.7288628 5.93856745,18.3836214 C6.09277087,18.9255525 6.5864682,19.2791213 7.12343211,19.2791213 C7.23507236,19.2791213 7.34864749,19.2637757 7.46134348,19.2317216 L9.81929075,18.5608239 L1.09112435,34.0758693 L1.05119937,34.2186409 C0.74481464,35.3130175 0.891631295,36.3317175 1.46465161,37.0873024 C1.9886905,37.7781634 2.81827623,38.1744646 3.74059723,38.1744646 L13.0129205,38.1744646 C13.6936237,38.1744646 14.2454075,37.6225948 14.2454075,36.9419776 C14.2454075,36.2613175 13.6936237,35.7094906 13.0129205,35.7094906 L3.74055426,35.7094906 C3.67226867,35.7094906 3.50509383,35.698674 3.4285853,35.5977185 C3.36500437,35.5139113 3.32740968,35.3189472 3.39310132,35.0114178 L11.8610916,19.9591034 L12.4437872,22.0070179 C12.597903,22.548949 13.091688,22.9025178 13.6286089,22.9025178 C13.7402492,22.9025178 13.8537367,22.8871722 13.9665203,22.855118 C14.6211929,22.6688599 15.0009641,21.987144 14.8147072,21.3323854 L13.3737571,16.2681686 L13.3737511,16.268126 Z" id="形状"></path>
            </g>
            <g id="市场机遇" transform="translate(669.000000, 436.000000)" fill="#FFFFFF" fill-rule="nonzero">
                <path d="M19.98851,44.0000512 L0.94551124,33.0017142 L0.94551124,11.0182745 L19.98851,0 L39.0315087,11.0182745 L39.0315087,33.0017142 L19.98851,44.0000512 Z M2.79072042,31.9396973 L19.98851,41.895955 L37.1862995,31.9396973 L37.1862995,12.0802484 L19.98851,2.15716267 L2.79072042,12.0802484 L2.79072042,31.9396973 Z M30.3430025,30.5922817 L9.63397448,30.5922817 L9.63397448,24.5587747 L17.3534053,18.797432 L21.9996646,22.5011621 L30.3430025,15.3791265 L30.3430025,30.5922817 Z M11.4791837,28.7470553 L28.4977503,28.7470553 L28.4977503,19.4014273 L22.0792858,24.9238204 L17.3201905,21.1537164 L11.4791837,25.514577 L11.4791837,28.7470553 Z M11.5853836,21.5852021 L10.4105436,20.158125 L17.5126847,14.2905635 L21.8801624,18.1867809 L25.4312286,15.306101 L24.9666027,15.2729135 L25.0927153,13.4276871 L30.2301509,13.79275 L21.8270435,20.6094923 L17.466183,16.726548 L11.5853441,21.5852021 L11.5853836,21.5852021 Z" id="形状"></path>
            </g>
        </g>
    </g>
</svg>
