<?xml version="1.0" encoding="UTF-8"?>
<svg width="30px" height="30px" viewBox="0 0 30 30" version="1.1" xmlns="http://www.w3.org/2000/svg" xmlns:xlink="http://www.w3.org/1999/xlink">
    <title>形状</title>
    <g id="页面-1" stroke="none" stroke-width="1" fill="none" fill-rule="evenodd">
        <g id="关于我们" transform="translate(-869.000000, -3666.000000)" fill="#336DD6" fill-rule="nonzero">
            <g id="编组-5" transform="translate(462.000000, 3481.000000)">
                <g id="编组-6备份-10" transform="translate(0.000000, 129.000000)">
                    <path d="M421.999979,85.841259 C430.212784,85.841259 436.841259,79.1804504 436.841259,70.9999787 C436.841259,62.8195069 430.18045,56.1586984 421.999979,56.1586984 C413.819507,56.1586984 407.158698,62.8195069 407.158698,70.9999787 C407.158698,79.1804504 413.787173,85.841259 421.999979,85.841259 Z M416.761867,70.1916281 L424.133988,62.7871371 C424.360326,62.5607989 424.651333,62.4637969 424.942339,62.4637969 C425.233345,62.4637969 425.524351,62.5607989 425.750689,62.7871371 C426.203366,63.2398134 426.203366,63.9511619 425.750689,64.4038382 L419.154549,70.9999787 L425.718355,77.4991171 C426.171032,77.9517934 426.171032,78.6631419 425.718355,79.0834484 C425.265679,79.5361247 424.554331,79.5361247 424.134024,79.0834484 L416.761867,71.7759594 C416.535529,71.5496212 416.438527,71.2909491 416.438527,70.9676088 C416.438527,70.7089367 416.535529,70.4179305 416.761867,70.1915923 L416.761867,70.1916281 Z" id="形状" transform="translate(421.999979, 70.999979) rotate(-180.000000) translate(-421.999979, -70.999979) "></path>
                </g>
            </g>
        </g>
    </g>
</svg>