<?xml version="1.0" encoding="UTF-8"?>
<svg width="143px" height="143px" viewBox="0 0 143 143" version="1.1" xmlns="http://www.w3.org/2000/svg" xmlns:xlink="http://www.w3.org/1999/xlink">
    <title>编组 4</title>
    <g id="页面-1" stroke="none" stroke-width="1" fill="none" fill-rule="evenodd">
        <g id="关于我们" transform="translate(-446.000000, -803.000000)">
            <g id="编组-4" transform="translate(446.000000, 804.000000)">
                <path d="M1,0 L142,0 L142,141 L1,141 L1,0 Z" id="矩形" stroke="#1F3980" stroke-width="2" stroke-dasharray="2"></path>
                <line x1="0.5" y1="70.5" x2="140.5" y2="70.5" id="直线" stroke="#8B9BC5" stroke-linecap="square" stroke-dasharray="3"></line>
                <line x1="1.5" y1="0.5" x2="140.5" y2="140.5" id="直线备份-2" stroke="#8B9BC5" stroke-linecap="square" stroke-dasharray="3"></line>
                <line x1="141" y1="1" x2="1" y2="140" id="直线备份-2" stroke="#8B9BC5" stroke-linecap="square" stroke-dasharray="3"></line>
                <line x1="70.2085889" y1="0.00325213065" x2="70.2085889" y2="140.003252" id="直线备份" stroke="#8B9BC5" stroke-linecap="square" stroke-dasharray="3"></line>
                <path d="M68.9453125,111.228516 C69.765625,111.228516 70.8349609,111.067383 72.1533203,110.745117 C73.4716797,110.422852 74.21875,109.763672 74.3945312,108.767578 L74.3945312,77.2148438 L77.2070312,77.2148438 C79.84375,90.2226562 86.640625,99.5683594 97.5976562,105.251953 C98.3007812,105.427734 98.828125,105.251953 99.1796875,104.724609 C100.527344,101.794922 103.632812,98.953125 108.496094,96.1992188 C108.964844,95.4960938 108.90625,94.96875 108.320312,94.6171875 C95.8984375,93.5039062 86.4648438,87.703125 80.0195312,77.2148438 L89.8632813,77.2148438 L89.8632813,80.5546875 C89.921875,81.5507812 90.4492188,82.078125 91.4453125,82.1367188 L94.2578125,82.1367188 C95.4882812,82.1953125 96.7626953,82.0195312 98.0810547,81.609375 C99.3994141,81.1992188 100.117188,80.5546875 100.234375,79.6757812 L100.234375,58.0546875 L101.992188,55.4179688 C102.285156,53.8945312 101.875,52.9570312 100.761719,52.6054688 C97.4804688,50.7304688 94.4921875,49.265625 91.796875,48.2109375 C90.5664062,47.9179688 89.8632813,48.0351562 89.6875,48.5625 L87.2265625,52.78125 L74.3945312,52.78125 L74.3945312,42.234375 L106.035156,42.234375 C107.148438,41.8828125 107.324219,41.2382812 106.5625,40.3007812 C104.277344,38.8359375 101.582031,37.0195312 98.4765625,34.8515625 C97.5976562,34.265625 96.8359375,34.4414062 96.1914062,35.3789062 L92.3242188,40.3007812 L74.3945312,40.3007812 L74.3945312,33.6210938 L75.9765625,31.3359375 C76.2695313,30.5742188 76.0351562,29.9882812 75.2734375,29.578125 C71.9335938,28.6992188 68.9453125,28.2304688 66.3085938,28.171875 C65.4296875,28.2890625 64.9023438,28.7578125 64.7265625,29.578125 L64.7265625,40.3007812 L40.8203125,40.3007812 C37.0703125,40.2421875 33.7890625,40.0078125 30.9765625,39.5976562 L33.2617188,43.1132812 C35.4882813,42.6445312 37.8320313,42.3515625 40.2929688,42.234375 L64.7265625,42.234375 L64.7265625,52.78125 L51.015625,52.78125 C47.3828125,51.4335938 43.9257813,50.4375 40.6445313,49.7929688 C39.7070313,49.5585938 39.1210938,49.9101562 38.8867188,50.8476562 L38.8867188,81.7851562 C39.0039063,82.4882812 39.4726563,82.8984375 40.2929688,83.015625 L42.2265625,83.015625 C43.3984375,83.0742188 44.7607422,82.9277344 46.3134766,82.5761719 C47.8662109,82.2246094 48.7304688,81.5507812 48.90625,80.5546875 L48.90625,77.2148438 L61.2109375,77.2148438 C52.8320312,89.2851562 42.4609375,98.8066406 30.0976563,105.779297 C28.8085938,107.361328 29.21875,107.888672 31.328125,107.361328 C43.1640625,103.318359 54.296875,97.078125 64.7265625,88.640625 L64.7265625,109.998047 C64.9023438,110.759766 65.4296875,111.169922 66.3085938,111.228516 L68.9453125,111.228516 Z M64.7265625,63.8554688 L48.90625,63.8554688 L48.90625,54.7148438 L64.7265625,54.7148438 L64.7265625,63.8554688 Z M90.2148438,63.8554688 L74.3945312,63.8554688 L74.3945312,54.7148438 L90.2148438,54.7148438 L90.2148438,63.8554688 Z M64.7265625,75.28125 L48.90625,75.28125 L48.90625,65.7890625 L64.7265625,65.7890625 L64.7265625,75.28125 Z M90.2148438,75.28125 L74.3945312,75.28125 L74.3945312,65.7890625 L90.2148438,65.7890625 L90.2148438,75.28125 Z" id="東" fill="#1F3980" fill-rule="nonzero"></path>
            </g>
        </g>
    </g>
</svg>