<?xml version="1.0" encoding="UTF-8"?>
<svg width="143px" height="143px" viewBox="0 0 143 143" version="1.1" xmlns="http://www.w3.org/2000/svg" xmlns:xlink="http://www.w3.org/1999/xlink">
    <title>编组 4备份</title>
    <g id="页面-1" stroke="none" stroke-width="1" fill="none" fill-rule="evenodd">
        <g id="关于我们" transform="translate(-446.000000, -997.000000)">
            <g id="编组-4备份" transform="translate(446.000000, 998.000000)">
                <path d="M1,0 L142,0 L142,141 L1,141 L1,0 Z" id="矩形" stroke="#1F3980" stroke-width="2" stroke-dasharray="2"></path>
                <line x1="0.5" y1="70.5" x2="140.5" y2="70.5" id="直线" stroke="#8B9BC5" stroke-linecap="square" stroke-dasharray="3"></line>
                <line x1="1.5" y1="0.5" x2="140.5" y2="140.5" id="直线备份-2" stroke="#8B9BC5" stroke-linecap="square" stroke-dasharray="3"></line>
                <line x1="141" y1="1" x2="1" y2="140" id="直线备份-2" stroke="#8B9BC5" stroke-linecap="square" stroke-dasharray="3"></line>
                <line x1="70.2085889" y1="0.00325213065" x2="70.2085889" y2="140.003252" id="直线备份" stroke="#8B9BC5" stroke-linecap="square" stroke-dasharray="3"></line>
                <path d="M67.5390625,50.1445312 C71.9921875,49.6757812 74.453125,46.9804688 74.921875,42.0585938 C74.6875,37.6054688 72.7246094,34.4707031 69.0332031,32.6542969 C65.3417969,30.8378906 61.1523438,29.6367188 56.4648438,29.0507812 C55.7617188,29.4609375 55.5273438,29.9296875 55.7617188,30.4570312 C59.6875,33.2695312 61.6210938,36.7851562 61.5625,41.0039062 C61.09375,46.8632812 63.0859375,49.9101562 67.5390625,50.1445312 Z M99.7070312,108.240234 C101.582031,103.142578 105.683594,99.7734375 112.011719,98.1328125 C112.773438,97.546875 112.773438,97.0195312 112.011719,96.5507812 C97.7734375,96.2578125 85.7617188,92.3320312 75.9765625,84.7734375 C80.6054688,78.328125 84.6044922,71.4140625 87.9736328,64.03125 C91.3427734,56.6484375 94.2578125,48.1523438 96.71875,38.5429688 C98.1835938,38.484375 99.1210938,37.9570312 99.53125,36.9609375 C99.9414062,36.5507812 99.3701172,35.9208984 97.8173828,35.0712891 C96.2646484,34.2216797 92.2070312,32.625 85.6445312,30.28125 C84.765625,29.8125 84.3554688,29.9296875 84.4140625,30.6328125 C83.6523437,38.7773438 81.8798828,47.0097656 79.0966797,55.3300781 C76.3134766,63.6503906 72.6953125,71.0039062 68.2421875,77.390625 C57.2265625,65.0273438 50.1953125,50.6132812 47.1484375,34.1484375 C46.4453125,33.2695312 45.9179688,33.2695312 45.5664062,34.1484375 C45.390625,43.0546875 46.7382812,52.0488281 49.609375,61.1308594 C52.4804688,70.2128906 56.640625,78.2695312 62.0898437,85.3007812 C52.890625,95.90625 41.5234375,103.435547 27.9882812,107.888672 C27.1679687,108.533203 27.34375,109.001953 28.515625,109.294922 C36.7773437,109.001953 44.2773438,107.244141 51.015625,104.021484 C57.7539062,100.798828 63.5546875,97.0195312 68.4179688,92.6835938 C76.5625,100.886719 86.2890625,106.541016 97.5976562,109.646484 C99.0039062,110.408203 99.7070312,109.939453 99.7070312,108.240234 Z" id="义" fill="#1F3980" fill-rule="nonzero"></path>
            </g>
        </g>
    </g>
</svg>