<?xml version="1.0" encoding="UTF-8"?>
<svg width="30px" height="27px" viewBox="0 0 30 27" version="1.1" xmlns="http://www.w3.org/2000/svg" xmlns:xlink="http://www.w3.org/1999/xlink">
    <title>电脑 (1)</title>
    <g id="页面-1" stroke="none" stroke-width="1" fill="none" fill-rule="evenodd">
        <g id="加入我们" transform="translate(-1166.000000, -655.000000)" fill="#DCC18D" fill-rule="nonzero">
            <g id="编组-11" transform="translate(-7.000000, 648.000000)">
                <g id="编组-9" transform="translate(464.000000, 0.000000)">
                    <g id="编组" transform="translate(709.000000, 5.000000)">
                        <g id="电脑-(1)" transform="translate(0.000000, 2.000000)">
                            <path d="M27.409093,22.3050309 L2.59094738,22.3050309 L2.59094736,22.3050309 C1.34066723,22.3050309 0.327079599,21.2915108 0.327079599,20.0412306 C0.327079599,20.0412193 0.327079599,20.041208 0.327079599,20.0411967 L0.327079599,2.98152019 L0.327079599,2.98152053 C0.327079599,1.7312404 1.34063331,0.717686691 2.59091344,0.717686691 C2.59092475,0.717686691 2.59093606,0.717686691 2.59094736,0.717686691 L27.409093,0.717686691 L27.4090931,0.717686691 C28.6593732,0.717686691 29.6729609,1.73120648 29.6729609,2.98148661 C29.6729609,2.98149792 29.6729609,2.98150923 29.6729609,2.98152053 L29.6729609,20.041197 L29.6729609,20.041197 C29.6729609,21.2914772 28.6594072,22.3050309 27.409127,22.3050309 C27.4091157,22.3050309 27.4091044,22.3050309 27.4090931,22.3050309 L27.409093,22.3050309 Z M2.91433283,19.7178113 L27.0857415,19.7178113 L27.0857415,3.30497349 L2.91433283,3.30497349 L2.91433283,19.7178113 Z M1.86327075,15.0413245 L28.0591544,15.0413245 L28.0591544,21.011387 L1.86327075,21.011387 L1.86327075,15.0413245 Z M10.9768515,21.3445083 L18.7612376,21.3445083 L18.7612376,24.2034147 L10.9768515,24.2034147 L10.9768515,21.3445083 Z M9.48916984,24.0126333 L20.3330137,24.0126333 L20.3330137,26.1244593 L9.48916984,26.1244593 L9.48916984,24.0126333 Z" id="形状"></path>
                        </g>
                    </g>
                </g>
            </g>
        </g>
    </g>
</svg>