<?xml version="1.0" encoding="UTF-8"?>
<svg width="30px" height="30px" viewBox="0 0 30 30" version="1.1" xmlns="http://www.w3.org/2000/svg" xmlns:xlink="http://www.w3.org/1999/xlink">
    <title>邮件</title>
    <g id="页面-1" stroke="none" stroke-width="1" fill="none" fill-rule="evenodd">
        <g id="加入我们" transform="translate(-798.000000, -651.000000)" fill="#DCC18D" fill-rule="nonzero">
            <g id="编组-11" transform="translate(-7.000000, 648.000000)">
                <g id="编组-9" transform="translate(464.000000, 0.000000)">
                    <g id="邮件" transform="translate(341.000000, 3.000000)">
                        <path d="M15.0000175,0 C6.71555469,0 0,6.71555469 0,15.0000175 C0,23.2844802 6.71555469,30.0000349 15.0000175,30.0000349 C23.2844802,30.0000349 30.0000349,23.2844802 30.0000349,15.0000175 C30.0000349,6.71555469 23.2844802,0 15.0000175,0 Z M23.4000272,9.12001061 L15.0255644,17.8588977 L6.57164827,9.12001061 L23.4000272,9.12001061 Z M6.00000698,10.3916722 L10.6788991,15.1588946 L6.00000698,19.8361461 L6.00000698,10.3916722 L6.00000698,10.3916722 Z M6.58834751,21.1200246 L11.5650135,15.9394521 L15.0066971,19.4461457 L18.3972284,15.9394521 L23.4244609,21.1200246 L6.58834751,21.1200246 L6.58834751,21.1200246 Z M24.0000279,19.8361461 L19.1933426,15.1461211 L24.0000279,10.3216819 L24.0000279,19.8361461 Z" id="形状"></path>
                    </g>
                </g>
            </g>
        </g>
    </g>
</svg>