<?xml version="1.0" encoding="UTF-8"?>
<svg width="180px" height="53px" viewBox="0 0 180 53" version="1.1" xmlns="http://www.w3.org/2000/svg" xmlns:xlink="http://www.w3.org/1999/xlink">
    <title>资源 1</title>
    <g id="页面-1" stroke="none" stroke-width="1" fill="none" fill-rule="evenodd">
        <g id="加入我们" transform="translate(-448.000000, -1121.000000)" fill-rule="nonzero">
            <g id="编组-11" transform="translate(-7.000000, 648.000000)">
                <g id="资源-1" transform="translate(455.000000, 473.000000)">
                    <path d="M51.3377622,18.0823529 C47.4545025,7.21362597 36.8646388,0.129849688 25.2377622,0.623529412 C33.8070618,1.43574143 40.6569563,8.03597602 41.7146571,16.4998864 C42.7723579,24.9637968 37.7539891,33.0197582 29.6433566,35.8778824 L35.2447552,51.5658824 C49.0206993,46.721436 56.2253629,31.7312253 51.3377622,18.0823529 L51.3377622,18.0823529 Z" id="路径" fill="#DB0010"></path>
                    <path d="M1.53566434,35.4351765 C5.42861815,46.2917138 16.0175639,53.3596979 27.6356643,52.8565882 C19.0663648,52.0443762 12.2164702,45.4441416 11.1587695,36.9802313 C10.1010687,28.5163209 15.1194375,20.4603595 23.2300699,17.6022353 L17.6223776,1.93917647 C3.84476378,6.78886265 -3.35704896,21.7845871 1.53566434,35.4351765 Z" id="路径" fill="#DB0010"></path>
                    <path d="M15.620979,26.5249412 C18.1775861,21.2146692 23.9327761,18.1791186 29.806993,19.0425882 C25.4102478,19.0142824 21.5831838,22.0142494 20.5998092,26.2599348 C19.6164346,30.5056202 21.7404526,34.8584946 25.7097902,36.7321176 L22.027972,44.3890588 C15.2796237,41.2087099 12.4111658,33.2108129 15.620979,26.5249412 Z" id="路径" fill="#FDD000"></path>
                    <path d="M37.4412587,25.9201176 C34.865084,31.275462 29.06689,34.3423342 23.141958,33.4835294 C27.5990769,33.556147 31.5000625,30.53011 32.4980963,26.2258711 C33.49613,21.9216323 31.3191932,17.5123316 27.2769231,15.6505882 L30.9839161,7.91882353 C37.7831538,11.124395 40.6737228,19.1825058 37.4412587,25.9201176 L37.4412587,25.9201176 Z" id="路径" fill="#FDD000"></path>
                    <path d="M71.7797203,4.73258824 L76.1853147,4.73258824 L76.1853147,7.02717647 L86.8846154,7.02717647 L86.8846154,9.20329412 L76.1853147,9.20329412 L76.1853147,11.7410588 L80.9244755,11.7410588 L81.9944056,10.5314118 L86.5762238,11.0177647 L85.5062937,12.1027059 L85.5062937,22.4969412 L81.1006993,22.4969412 L81.1006993,21.412 L76.2104895,21.412 L76.2104895,33.9823529 L71.8048951,33.9823529 L71.8048951,23.4634118 C70.0762238,27.4955686 66.3,30.1559608 60.4762238,31.4445882 L60.1678322,31.0829412 C63.9440559,29.0045098 66.1846154,26.302549 66.8895105,22.9770588 L71.7797203,22.9770588 L71.7797203,21.412 L67.0468531,21.412 L67.0468531,22.4969412 L62.6412587,22.4969412 L62.6412587,10.6498824 L67.0468531,10.6498824 L67.0468531,11.7348235 L71.7797203,11.7348235 L71.7797203,9.20329412 L60.6272727,9.20329412 L60.6272727,7.02717647 L71.7797203,7.02717647 L71.7797203,4.73258824 Z M71.7797203,13.7987059 L67.0468531,13.7987059 L67.0468531,15.4884706 L71.7797203,15.4884706 L71.7797203,13.7987059 Z M67.0468531,19.3294118 L71.7797203,19.3294118 L71.7797203,17.6645882 L67.0468531,17.6645882 L67.0468531,19.3294118 Z M81.1006993,13.7737647 L76.2104895,13.7737647 L76.2104895,15.4635294 L81.1006993,15.4635294 L81.1006993,13.7737647 Z M76.2104895,19.3294118 L81.1006993,19.3294118 L81.1006993,17.6645882 L76.2104895,17.6645882 L76.2104895,19.3294118 Z M77.5888112,22.8398824 L78.3503497,22.8398824 C79.5713287,25.0097647 82.372028,26.5789804 86.7524476,27.5475294 C87.0608392,27.6348235 87.2118881,27.7096471 87.2118881,27.7907059 C87.2118881,27.8717647 87.0608392,27.9964706 86.7524476,28.1523529 C85.6321678,28.9629412 85.2293706,29.8857647 85.5314685,30.9332941 C85.6321678,31.2575294 85.6321678,31.4196471 85.5314685,31.4196471 C85.4307692,31.5007059 85.2293706,31.4570588 84.9020979,31.2949412 C80.1230769,29.786 77.6853147,26.9759608 77.5888112,22.8648235 L77.5888112,22.8398824 Z" id="形状" fill="#231815"></path>
                    <path d="M108.723776,4.98823529 L113.286713,4.98823529 C112.285842,6.50133687 110.846681,7.67936475 109.158042,8.36776471 L116.94965,8.36776471 L116.94965,10.4254118 L106.87972,10.4254118 L106.87972,11.8470588 L115.439161,11.8470588 L115.439161,13.6615294 L106.87972,13.6615294 L106.87972,14.9896471 L117.270629,14.9896471 L117.270629,16.9288235 L91.7685315,16.9288235 L91.7685315,15.0021176 L102.467832,15.0021176 L102.467832,13.7987059 L94.0594406,13.7987059 L94.0594406,11.8470588 L102.461538,11.8470588 L102.461538,10.4129412 L92.5174825,10.4129412 L92.5174825,8.35529412 L99.4405594,8.35529412 C99.0033834,8.16024201 98.7088144,7.74401825 98.6727273,7.27035294 C98.4996819,6.42290276 97.9326715,5.70626962 97.1433566,5.33741176 L97.3006993,4.97576471 C99.5328671,4.89262745 101.06014,5.13372549 101.882517,5.69905882 C102.902098,6.66345098 103.002797,7.54886275 102.184615,8.35529412 L107.074825,8.35529412 C107.837921,7.34844259 108.3978,6.20520237 108.723776,4.98823529 Z M92.9895105,30.1289412 C92.8317357,29.0041031 92.522698,27.9052483 92.0706294,26.8616471 C94.0048951,26.6163922 95.9412587,26.3337255 97.8797203,26.0136471 L97.8797203,23.5881176 L91.9195804,23.5881176 L91.9195804,21.5304706 L97.8797203,21.5304706 L97.8797203,20.0838824 C96.0356508,20.0744727 94.1956297,19.9117843 92.379021,19.5975294 L92.379021,19.3294118 C96.2475524,18.7682353 99.148951,18.0844314 101.083217,17.278 L105.671329,18.8492941 C104.49207,19.2922228 103.257842,19.575369 102.002098,19.6910588 L102.002098,21.5055294 L105.973427,21.5055294 C105.872727,20.2958824 105.822378,18.9677647 105.822378,17.5211765 L109.793706,17.5211765 C109.805973,18.2882241 109.858491,19.054121 109.951049,19.8157647 L109.951049,21.5055294 L117.283217,21.5055294 L117.283217,23.5631765 L110.102098,23.5631765 C110.168338,24.5164118 110.380555,25.4541181 110.731469,26.3441176 C110.932867,26.1009412 111.291608,25.7205882 111.801399,25.1344706 C111.949065,24.811334 112.163466,24.5224547 112.430769,24.2864706 L117.320979,24.2864706 C115.656399,26.0414909 113.813021,27.6211936 111.82028,29.0003529 C111.939519,29.1061386 112.043313,29.227856 112.128671,29.362 C112.268505,29.4968032 112.372318,29.6639332 112.430769,29.8483529 C112.624659,30.163603 112.97755,30.3479895 113.34965,30.3284706 C113.769231,30.5737255 114.736364,29.7278039 116.251049,27.7907059 L116.559441,27.9154118 C115.741259,29.603098 115.841958,30.5300784 116.861538,30.6963529 C117.16993,30.7711765 117.270629,30.8958824 117.16993,31.058 C116.681657,32.6550322 115.184839,33.738611 113.500699,33.7142353 C112.291593,33.6151132 111.131235,33.1974724 110.13986,32.5045882 C109.494177,31.9857635 108.92811,31.3766402 108.459441,30.6963529 C106.673536,31.7183045 104.77232,32.5282401 102.795105,33.1094118 L102.486713,32.7477647 C103.606993,32.0244706 105.134266,31.0164314 107.068531,29.7236471 C107.276224,29.5677647 107.427273,29.4430588 107.527972,29.362 C106.85208,27.4862951 106.39183,25.5410652 106.155944,23.5631765 L102.027273,23.5631765 L102.027273,25.1344706 C103.216783,24.9411765 104.475524,24.6356471 105.671329,24.3176471 L105.822378,24.5608235 C104.683324,25.6221955 103.396866,26.5166683 102.002098,27.2170588 L102.002098,31.8 C102.002098,33.0844706 100.170629,33.7329412 96.5013986,33.7329412 C95.7902098,33.7329412 95.4314685,33.6144706 95.4314685,33.3712941 C95.4314685,32.4048235 94.4118881,31.7563529 92.379021,31.4383529 L92.379021,31.0767059 C96.6524476,31.2325882 98.4902098,31.0767059 97.8797203,30.5903529 L97.8797203,28.9068235 C96.1426573,29.3869412 94.5188811,29.7922353 92.9895105,30.1164706 L92.9895105,30.1289412 Z M110.863636,17.5585882 L111.020979,17.3154118 C113.865734,17.7207059 115.502098,18.4814118 115.904895,19.61 C115.804196,21.0628235 114.841259,21.4244706 113.003497,20.6949412 C112.848469,20.5175103 112.744165,20.3022279 112.701399,20.0714118 C112.228886,19.1378039 111.608434,18.2852331 110.863636,17.5461176 L110.863636,17.5585882 Z" id="形状" fill="#231815"></path>
                    <path d="M129.782517,29.6301176 L136.044755,29.6301176 C132.885315,32.1242353 128.353846,33.5334118 122.45035,33.8576471 L122.45035,33.496 C126.213986,32.2032157 128.658042,30.9145882 129.782517,29.6301176 Z M131.613986,10.3007059 L131.922378,10.5376471 C130.491608,13.447451 127.791608,15.7441176 123.822378,17.4276471 C123.730149,16.1921948 123.474102,14.9741548 123.060839,13.8049412 C126.033011,12.9485339 128.901255,11.7713196 131.613986,10.2944706 L131.613986,10.3007059 Z M123.356643,5.09423529 C127.027972,5.25635294 129.421678,5.94015686 130.537762,7.14564706 C131.34965,8.19941176 131.248951,9.12223529 130.235664,9.92658824 C129.008392,10.494 128.095804,10.2508235 127.485315,9.20329412 C126.767832,7.83152941 125.341259,6.50133333 123.205594,5.21270588 L123.356643,5.09423529 Z M142.464336,16.8352941 L147.197203,18.2881176 L146.284615,19.4977647 L146.284615,29.3869412 L142.004895,29.3869412 L142.004895,28.6823529 L130.084615,28.6823529 L130.084615,29.4056471 L125.811189,29.4056471 L125.811189,17.3029412 L130.084615,17.3029412 L130.084615,18.0262353 L141.696503,18.0262353 L142.464336,16.8352941 Z M136.504196,9.58364706 L140.90979,9.58364706 C140.793254,10.1172449 140.639744,10.6422531 140.45035,11.1549412 C142.384615,12.8467843 145.237762,13.7737647 149.00979,13.9358824 L149.311888,14.0543529 C149.311888,14.1354118 149.211189,14.2601176 149.00979,14.416 C148.076966,14.8337808 147.575127,15.8490762 147.813986,16.8352941 C147.914685,16.9974118 147.914685,17.1221176 147.813986,17.1969412 C147.813986,17.278 147.706993,17.278 147.505594,17.1969412 C143.934965,16.7812549 141.438462,15.0499216 140.016084,12.0029412 C138.383916,14.5801961 134.86993,16.2720392 129.474126,17.0784706 L129.323077,16.96 C133.602797,15.0062745 135.996503,12.5412549 136.504196,9.56494118 L136.504196,9.58364706 Z M130.084615,19.9529412 L130.084615,21.0441176 L142.004895,21.0441176 L142.004895,19.9529412 L130.084615,19.9529412 Z M130.084615,22.7338824 L130.084615,23.9435294 L142.004895,23.9435294 L142.004895,22.7401176 L130.084615,22.7338824 Z M130.084615,25.6332941 L130.084615,26.8429412 L142.004895,26.8429412 L142.004895,25.6395294 L130.084615,25.6332941 Z M134.055944,4.73258824 L139.090909,4.73258824 C138.694406,5.69905882 138.461538,6.23529412 138.335664,6.42235294 L143.074825,6.42235294 L144.604196,4.98823529 L149.488112,6.31635294 L147.813986,7.15811765 C146.794406,8.93309804 144.958741,10.3443529 142.306993,11.3918824 L142.004895,11.2734118 C142.105594,11.0302353 142.206294,10.7496471 142.306993,10.4254118 C142.634331,9.76779199 142.891663,9.0781913 143.074825,8.36776471 L137.114685,8.36776471 C135.690017,9.98480607 133.984833,11.3362924 132.07972,12.3583529 L131.771329,12.1151765 C133.071178,9.85052838 133.85122,7.32987246 134.055944,4.73258824 L134.055944,4.73258824 Z M137.416783,29.5116471 C142.707692,29.6737647 146.274126,30.1164706 148.116084,30.8397647 C148.881413,31.2913211 149.20594,32.2242431 148.883916,33.0470588 C148.166434,34.0945882 147.096503,34.2151373 145.674126,33.4087059 C144.243357,32.2780392 141.440559,31.0683922 137.265734,29.7797647 L137.416783,29.5116471 Z" id="形状" fill="#231815"></path>
                    <path d="M159.230769,13.9171765 L163.818881,13.9171765 C162.291608,21.3330196 158.874126,26.7722745 153.566434,30.2349412 L153.264336,29.9917647 C156.230769,25.7226667 158.21958,20.3644706 159.230769,13.9171765 Z M164.435664,4.98823529 L169.168531,4.98823529 L169.168531,10.1822353 L179.867832,10.1822353 L179.867832,12.4705882 L169.168531,12.4705882 L169.168531,25.7642353 L173.297203,25.7642353 L173.297203,28.0588235 L169.168531,28.0588235 L169.168531,33.6207059 L164.435664,33.6207059 L164.435664,28.0588235 L159.400699,28.0588235 L159.400699,25.7642353 L164.435664,25.7642353 L164.435664,12.4705882 L153.434266,12.4705882 L153.434266,10.1697647 L164.435664,10.1697647 L164.435664,4.98823529 Z M169.627972,13.2063529 L170.886713,13.2063529 C172.109272,17.8382692 174.984685,21.8743331 178.98042,24.5670588 L179.137762,24.6855294 C179.641259,24.9287059 179.590909,25.2092941 178.98042,25.5335294 C177.960839,26.1778431 177.706993,27.2170588 178.218881,28.6511765 C178.520979,29.2185882 178.621678,29.5365882 178.520979,29.6176471 C178.42028,29.6987059 178.067832,29.5802353 177.457343,29.256 C172.745455,26.5249412 170.135664,21.170902 169.627972,13.1938824 L169.627972,13.2063529 Z" id="形状" fill="#231815"></path>
                    <path d="M62.206993,48.0117647 L62.206993,38.3408235 L65.5741259,38.3408235 C66.1564425,38.3244828 66.7388381,38.3704748 67.3111888,38.478 C67.8399171,38.5876061 68.3329551,38.82541 68.7461538,39.1701176 C69.2704136,39.6144924 69.6694114,40.185951 69.9041958,40.8287059 C70.1702513,41.5666708 70.3002898,42.3459962 70.2881119,43.1295294 C70.2972558,43.788986 70.2103471,44.4463019 70.0300699,45.0811765 C69.8875396,45.5871445 69.6598691,46.0656635 69.3566434,46.4965882 C68.8787037,47.1994913 68.1424205,47.6895204 67.3048951,47.8621176 C66.7883946,47.9755392 66.2604736,48.0299334 65.7314685,48.0242353 L62.206993,48.0117647 Z M63.4657343,46.8707059 L65.5552448,46.8707059 C66.0671539,46.8866364 66.5785464,46.8256707 67.072028,46.6898824 C67.3989523,46.5935679 67.6985623,46.4227309 67.9468531,46.1910588 C68.282386,45.8375769 68.5283056,45.4101431 68.6643357,44.944 C68.8492712,44.33783 68.9363592,43.7065148 68.9223776,43.0734118 C68.9690843,42.2633813 68.7951868,41.4558019 68.4188811,40.7351765 C68.1370852,40.2399573 67.6929812,39.8549729 67.1601399,39.644 C66.6179426,39.4820804 66.0515035,39.4145698 65.486014,39.4444706 L63.4342657,39.4444706 L63.4657343,46.8707059 Z" id="形状" fill="#231815"></path>
                    <path d="M71.9496503,43.3041176 C71.8690612,41.9262347 72.3367721,40.5719405 73.2524476,39.5317647 C74.1300779,38.6187033 75.3603255,38.1216387 76.6321678,38.1662353 C77.4865308,38.1478257 78.329421,38.3636054 79.0678322,38.7897647 C79.7875933,39.2082099 80.3658438,39.828834 80.7293706,40.5730588 C81.1199368,41.3866863 81.3159206,42.2785645 81.3020979,43.1794118 C81.3099167,44.0939988 81.0939672,44.9968479 80.6727273,45.8107059 C80.3012527,46.5568703 79.7082934,47.1726112 78.9734266,47.5752941 C78.249211,47.980396 77.4323665,48.1950547 76.6006993,48.1988235 C75.7302389,48.2105804 74.8737044,47.9817 74.1272727,47.5378824 C73.4141384,47.1059135 72.8433626,46.4776042 72.4846154,45.7296471 C72.1185539,44.9732781 71.9353911,44.1428188 71.9496503,43.3041176 L71.9496503,43.3041176 Z M73.2839161,43.3041176 C73.2292305,44.3229572 73.5819836,45.3221092 74.2657343,46.0850588 C74.890414,46.733465 75.7557412,47.1003234 76.6604895,47.1003234 C77.5652378,47.1003234 78.430565,46.733465 79.0552448,46.0850588 C79.7251383,45.2748877 80.0602276,44.243301 79.993007,43.1981176 C80.0098037,42.4894901 79.8724261,41.7855842 79.5902098,41.1342353 C79.344813,40.5725447 78.9347943,40.0968188 78.4132867,39.7687059 C77.8913401,39.4441524 77.2861245,39.2753124 76.6699301,39.2823529 C75.7867635,39.2688697 74.9347796,39.6056023 74.3034965,40.2176471 C73.6195804,40.8411765 73.2797203,41.8762353 73.2839161,43.3228235 L73.2839161,43.3041176 Z" id="形状" fill="#231815"></path>
                    <polygon id="路径" fill="#231815" points="83.227972 48.0117647 83.227972 38.3408235 84.5559441 38.3408235 89.6853147 45.9416471 89.6853147 38.3408235 90.9440559 38.3408235 90.9440559 48.0117647 89.6160839 48.0117647 84.4804196 40.3984706 84.4804196 48.0117647"></polygon>
                    <path d="M97.9552448,44.2269412 L97.9552448,43.0921176 L102.096503,43.0921176 L102.096503,46.6898824 C101.501573,47.1646874 100.837371,47.5473162 100.126573,47.8247059 C99.460846,48.0743619 98.7551789,48.2032024 98.0433566,48.2050588 C97.1320837,48.2142855 96.2326527,48.0000827 95.4251748,47.5815294 C94.660743,47.1932046 94.0396039,46.5756481 93.6503497,45.8169412 C93.2325352,45.0197042 93.0165469,44.1338117 93.020979,43.2355294 C93.0133008,42.3212334 93.2156052,41.4171808 93.6125874,40.5917647 C93.9732736,39.8194992 94.5758545,39.183149 95.3307692,38.7772941 C96.1246159,38.3586034 97.0119107,38.1441986 97.9111888,38.1537647 C98.5569344,38.1470605 99.1979526,38.2634898 99.7993007,38.4967059 C100.325436,38.6881557 100.790411,39.0153527 101.146154,39.4444706 C101.527695,39.9160072 101.804366,40.4620902 101.958042,41.0469412 L100.793706,41.3649412 C100.684008,40.9466158 100.498476,40.5515279 100.246154,40.1989412 C99.9996792,39.8984337 99.6787379,39.6664069 99.3146853,39.5255294 C98.8873867,39.3523419 98.429484,39.265427 97.9678322,39.2698824 C97.4429367,39.2558115 96.9205871,39.3470106 96.4321678,39.538 C96.0349952,39.6922809 95.6779325,39.9330858 95.3874126,40.2425882 C95.1236405,40.5222347 94.9107082,40.8449975 94.758042,41.1965882 C94.5112402,41.8175879 94.3914383,42.48098 94.4055944,43.1482353 C94.3794696,43.896343 94.5326019,44.6399408 94.8524476,45.3181176 C95.1341139,45.8789531 95.5940982,46.3324774 96.1615385,46.6088235 C96.7303458,46.8895952 97.3575115,47.0347892 97.993007,47.0328235 C98.5541062,47.0328624 99.1098646,46.92486 99.6293706,46.7148235 C100.07094,46.5568319 100.481816,46.3248273 100.844056,46.0289412 L100.844056,44.2269412 L97.9552448,44.2269412 Z" id="路径" fill="#231815"></path>
                    <path d="M107.030769,48.0117647 L107.030769,43.9214118 L103.254545,38.3408235 L104.827972,38.3408235 L106.753846,41.2589412 C107.112587,41.8014118 107.446154,42.3501176 107.748252,42.8988235 C108.044056,42.3937647 108.377622,41.8201176 108.818182,41.1841176 L110.706294,38.3408235 L112.21049,38.3408235 L108.308392,43.9214118 L108.308392,48.0117647 L107.030769,48.0117647 Z" id="路径" fill="#231815"></path>
                    <polygon id="路径" fill="#231815" points="113.878322 48.0117647 113.878322 38.3408235 115.174825 38.3408235 115.174825 48.0117647"></polygon>
                    <path d="M128.775524,44.626 L130.034266,44.9502353 C129.847179,45.8999826 129.341477,46.7591676 128.599301,47.3882353 C127.863409,47.955567 126.950924,48.2510261 126.018881,48.2237647 C125.117998,48.2672485 124.223753,48.0506358 123.444755,47.6002353 C122.761838,47.1440224 122.236779,46.4910694 121.940559,45.7296471 C121.592278,44.9087852 121.41667,44.0261652 121.424476,43.1357647 C121.401244,42.2213103 121.599809,41.3146807 122.003497,40.492 C122.368392,39.7678746 122.948191,39.1716985 123.665035,38.7835294 C124.392058,38.3896379 125.209185,38.1877889 126.037762,38.1974118 C126.92011,38.1693313 127.787208,38.4301142 128.504895,38.9394118 C129.191715,39.4600976 129.683438,40.1930299 129.902098,41.022 L128.643357,41.3150588 C128.484237,40.7121269 128.138733,40.1736092 127.655245,39.7749412 C127.181833,39.4427016 126.611242,39.2739897 126.031469,39.2948235 C125.360469,39.2694135 124.69886,39.4573147 124.143357,39.8310588 C123.643364,40.1843403 123.270635,40.6868975 123.07972,41.2651765 C122.877847,41.8684829 122.77583,42.5001742 122.777622,43.1357647 C122.763208,43.8705726 122.884795,44.6017799 123.136364,45.2931765 C123.34835,45.8647959 123.747095,46.3498228 124.269231,46.6711765 C124.77082,46.9701674 125.34539,47.1275701 125.930769,47.1263529 C126.599082,47.1440467 127.251474,46.9226983 127.768531,46.5028235 C128.309108,46.0082967 128.664157,45.3465606 128.775524,44.626 Z" id="路径" fill="#231815"></path>
                    <path d="M130.858741,48.0117647 L134.634965,38.3283529 L136.025874,38.3283529 L140.00979,48.0117647 L138.537063,48.0117647 L137.397902,45.0811765 L133.306993,45.0811765 L132.230769,48.0117647 L130.858741,48.0117647 Z M133.678322,44.0336471 L136.995105,44.0336471 L135.975524,41.3524706 C135.660839,40.5356471 135.434266,39.8684706 135.283217,39.3447059 C135.155934,39.9808061 134.979183,40.6062005 134.754545,41.2152941 L133.678322,44.0336471 Z" id="形状" fill="#231815"></path>
                    <path d="M141.318881,48.0117647 L141.318881,38.3408235 L145.006993,38.3408235 C145.503628,38.3319993 146.000209,38.3611841 146.492308,38.4281176 C146.923897,38.4903157 147.33642,38.6457048 147.700699,38.8832941 C148.037396,39.123699 148.306121,39.4457532 148.481119,39.8185882 C148.687077,40.2333879 148.790619,40.6907292 148.783217,41.1529412 C148.800859,41.9256597 148.514183,42.6748331 147.983916,43.2417647 C147.455245,43.8154118 146.498601,44.096 145.12028,44.096 L142.602797,44.096 L142.602797,48.0117647 L141.318881,48.0117647 Z M142.609091,42.93 L145.126573,42.93 C145.756507,42.9876696 146.386881,42.8243668 146.907692,42.4685882 C147.270765,42.133704 147.464527,41.6560797 147.436364,41.1654118 C147.445107,40.7940981 147.334947,40.4295776 147.121678,40.1241176 C146.926733,39.8436233 146.636244,39.642168 146.303497,39.5567059 C145.907228,39.4841208 145.504115,39.4548475 145.101399,39.4694118 L142.583916,39.4694118 L142.609091,42.93 Z" id="形状" fill="#231815"></path>
                    <polygon id="路径" fill="#231815" points="150.923077 48.0117647 150.923077 38.3408235 152.181818 38.3408235 152.181818 48.0117647"></polygon>
                    <polygon id="路径" fill="#231815" points="157.254545 48.0117647 157.254545 39.4818824 154.038462 39.4818824 154.038462 38.3408235 161.786014 38.3408235 161.786014 39.4818824 158.551049 39.4818824 158.551049 48.0117647"></polygon>
                    <path d="M162.314685,48.0117647 L166.090909,38.3283529 L167.488112,38.3283529 L171.465734,48.0117647 L169.986713,48.0117647 L168.847552,45.0811765 L164.762937,45.0811765 L163.686713,48.0117647 L162.314685,48.0117647 Z M165.134266,44.0336471 L168.451049,44.0336471 L167.412587,41.3649412 C167.104196,40.5481176 166.871329,39.8809412 166.72028,39.3571765 C166.595172,39.9931346 166.420524,40.6185351 166.197902,41.2277647 L165.134266,44.0336471 Z" id="形状" fill="#231815"></path>
                    <polygon id="路径" fill="#231815" points="172.718182 48.0117647 172.718182 38.3408235 174.008392 38.3408235 174.008392 46.8831765 178.823077 46.8831765 178.823077 48.0117647"></polygon>
                </g>
            </g>
        </g>
    </g>
</svg>