<?xml version="1.0" encoding="UTF-8"?>
<svg width="30px" height="30px" viewBox="0 0 30 30" version="1.1" xmlns="http://www.w3.org/2000/svg" xmlns:xlink="http://www.w3.org/1999/xlink">
    <title>电  话</title>
    <g id="页面-1" stroke="none" stroke-width="1" fill="none" fill-rule="evenodd">
        <g id="加入我们" transform="translate(-457.000000, -651.000000)" fill="#DCC18D" fill-rule="nonzero">
            <g id="编组-11" transform="translate(-7.000000, 648.000000)">
                <g id="编组-9" transform="translate(464.000000, 0.000000)">
                    <g id="电--话" transform="translate(0.000000, 3.000000)">
                        <path d="M15.0000175,0 C23.2840701,0 30.0000349,6.71596485 30.0000349,15.0000175 C30.0000349,23.2840701 23.2840701,30.0000349 15.0000175,30.0000349 C6.71596485,30.0000349 0,23.2840701 0,15.0000175 C0,6.71596485 6.71596485,0 15.0000175,0 Z M11.8167618,6.01055387 C11.1000041,5.88893215 10.4951372,6.13298653 9.55216346,6.7443389 L9.28378473,6.91866342 L9.03810876,7.0727177 C7.17162026,8.22731475 7.95973055,12.9794726 11.0043269,17.4373196 C14.040805,21.8821881 18.263515,24.4832848 20.104064,23.3481468 C20.2216316,23.2759847 20.6764963,23.010037 20.7283899,22.9784169 C21.5197434,22.5081458 21.9640662,22.1254432 22.194337,21.5716584 C22.5040668,20.8297669 22.26731,19.9986839 21.4646066,19.0605734 C20.1681188,17.5443559 19.186227,17.1859756 18.075423,17.6935445 L18.0754233,17.6935444 C17.9004552,17.7739828 17.7306661,17.8652407 17.5670458,17.9667878 L17.0756927,18.2716544 C16.7027196,18.5011142 15.5627183,17.4097628 14.1973124,15.4159763 C12.8497424,13.4440834 12.2716353,12.024361 12.6121767,11.8127201 C12.6454199,11.791639 13.0021772,11.575963 13.1035298,11.5110967 C14.4997473,10.6329863 14.7381275,9.66569029 13.65326,7.62650237 C13.1408277,6.66244656 12.5319061,6.13298696 11.8167715,6.01055518 L11.8167618,6.01055387 Z" id="形状"></path>
                    </g>
                </g>
            </g>
        </g>
    </g>
</svg>