<?xml version="1.0" encoding="UTF-8"?>
<svg width="20px" height="30px" viewBox="0 0 20 30" version="1.1" xmlns="http://www.w3.org/2000/svg" xmlns:xlink="http://www.w3.org/1999/xlink">
    <title>形状备份</title>
    <g id="页面-1" stroke="none" stroke-width="1" fill="none" fill-rule="evenodd">
        <g id="加入我们" transform="translate(-694.000000, -1155.000000)" fill="#FB560A" fill-rule="nonzero">
            <g id="编组-11" transform="translate(-16.000000, 648.000000)">
                <path d="M720,507 L720,507 C714.438107,507.039193 709.961084,511.579766 710.000255,517.141665 C710.018835,519.778404 711.070785,522.302681 712.93016,524.172311 L720,531.2863 L727.07195,524.172311 L727.07195,524.172311 C730.992898,520.227394 730.97347,513.850853 727.028568,509.929905 C725.15912,508.071811 722.635722,507.020663 720,507.002098 L720,507 Z M720.000006,521.528476 L720.000006,521.528476 C717.538185,521.522679 715.547181,519.522281 715.552968,517.060448 C715.552968,517.06044 715.552968,517.060432 715.552968,517.060423 L715.552968,517.060393 C715.546032,514.599736 717.53515,512.599349 719.99581,512.592389 C719.996521,512.592389 719.997231,512.592389 719.997942,512.592389 L719.997942,512.592389 C722.459763,512.598185 724.450766,514.598584 724.444974,517.060416 C724.444974,517.060424 724.444974,517.060433 724.444974,517.060441 L724.444974,517.060427 C724.450781,519.519472 722.463263,521.518281 720.004235,521.526385 L720.000006,521.528476 Z M715.552986,534.558518 C715.552986,535.590411 717.543217,536.426857 720.000006,536.426857 C722.456797,536.426857 724.447025,535.586209 724.447025,534.558518 C724.447025,533.530827 722.456794,532.690179 720.000006,532.690179 C717.543214,532.690179 715.555084,533.522421 715.555084,534.554313 L715.552986,534.558518 Z" id="形状备份"></path>
            </g>
        </g>
    </g>
</svg>