<?xml version="1.0" encoding="UTF-8"?>
<svg width="96px" height="95px" viewBox="0 0 96 95" version="1.1" xmlns="http://www.w3.org/2000/svg" xmlns:xlink="http://www.w3.org/1999/xlink">
    <title>编组</title>
    <defs>
        <linearGradient x1="50%" y1="88.6227987%" x2="50%" y2="0%" id="linearGradient-1">
            <stop stop-color="#DFEAFF" offset="0%"></stop>
            <stop stop-color="#6699FF" offset="100%"></stop>
        </linearGradient>
        <linearGradient x1="50%" y1="88.6227987%" x2="50%" y2="0%" id="linearGradient-2">
            <stop stop-color="#DFEAFF" offset="0%"></stop>
            <stop stop-color="#6699FF" offset="100%"></stop>
        </linearGradient>
        <linearGradient x1="50%" y1="0%" x2="50%" y2="100%" id="linearGradient-3">
            <stop stop-color="#FAD961" offset="0%"></stop>
            <stop stop-color="#F76B1C" offset="100%"></stop>
        </linearGradient>
        <linearGradient x1="50%" y1="88.6227987%" x2="50%" y2="0%" id="linearGradient-4">
            <stop stop-color="#F5F8FF" offset="0%"></stop>
            <stop stop-color="#EDF3FF" offset="100%"></stop>
        </linearGradient>
        <path d="M2.4,90.0339579 C1.0745166,90.0339579 -7.25853519e-16,88.9594413 0,87.6339579 C-1.623249e-16,86.3084745 1.0745166,85.2339579 2.4,85.2339579 L26.4,85.2339579 L26.4,8.03395789 C26.4,5.60390499 28.3699471,3.63395789 30.8,3.63395789 C33.2300529,3.63395789 35.2,5.60390499 35.2,8.03395789 L35.2,85.2339579 L87.2,85.2339579 C88.5254834,85.2339579 89.6,86.3084745 89.6,87.6339579 C89.6,88.9594413 88.5254834,90.0339579 87.2,90.0339579 L2.4,90.0339579 Z" id="path-5"></path>
        <filter x="-5.0%" y="-5.2%" width="110.0%" height="110.4%" filterUnits="objectBoundingBox" id="filter-6">
            <feOffset dx="0" dy="0" in="SourceAlpha" result="shadowOffsetOuter1"></feOffset>
            <feGaussianBlur stdDeviation="1.5" in="shadowOffsetOuter1" result="shadowBlurOuter1"></feGaussianBlur>
            <feColorMatrix values="0 0 0 0 0.387447214   0 0 0 0 0.524697902   0 0 0 0 0.879262178  0 0 0 0.337320394 0" type="matrix" in="shadowBlurOuter1"></feColorMatrix>
        </filter>
        <linearGradient x1="50%" y1="88.6227987%" x2="50%" y2="0%" id="linearGradient-7">
            <stop stop-color="#F5F8FF" offset="0%"></stop>
            <stop stop-color="#EDF3FF" offset="100%"></stop>
        </linearGradient>
        <path d="M58.9827985,-8.8817842e-16 L59.2513518,0.1591037 C65.5483322,3.98623186 67.6641201,12.16351 63.960744,18.5779455 L55.1590539,13.496 L22.7510539,22.179 L17.6013248,31.099924 L17.3327714,30.9408203 C11.0357911,27.1136922 8.9200032,18.9364141 12.6233793,12.5219786 L21.3800539,17.577 L53.8580539,8.874 L58.9827985,-8.8817842e-16 Z" id="path-8"></path>
        <filter x="-10.0%" y="-11.3%" width="120.0%" height="135.4%" filterUnits="objectBoundingBox" id="filter-9">
            <feOffset dx="0" dy="2" in="SourceAlpha" result="shadowOffsetOuter1"></feOffset>
            <feGaussianBlur stdDeviation="1.5" in="shadowOffsetOuter1" result="shadowBlurOuter1"></feGaussianBlur>
            <feColorMatrix values="0 0 0 0 0.387447214   0 0 0 0 0.524697902   0 0 0 0 0.879262178  0 0 0 0.337320394 0" type="matrix" in="shadowBlurOuter1"></feColorMatrix>
        </filter>
    </defs>
    <g id="页面-1" stroke="none" stroke-width="1" fill="none" fill-rule="evenodd">
        <g id="首页" transform="translate(-490.000000, -1697.000000)">
            <g id="编组-6" transform="translate(0.000000, 1549.000000)">
                <g id="编组-12" transform="translate(485.000000, 57.000000)">
                    <g id="编组-4" transform="translate(0.000000, 92.000000)">
                        <g id="编组" transform="translate(8.000000, 0.000000)">
                            <rect id="矩形" fill="url(#linearGradient-1)" x="16.8" y="26.8339579" width="1.6" height="60.8" rx="0.8"></rect>
                            <path d="M54.4,53.2505602 L52.3680014,57.2339579 L35.2,57.2339579 L35.2,55.5494994 L51.4536095,55.5489938 L52.635,53.2339579 L52,53.2339579 C51.1163444,53.2339579 50.4,52.5176135 50.4,51.6339579 L50.4,34.8339579 C50.4,33.9503023 51.1163444,33.2339579 52,33.2339579 L57.6,33.2339579 L57.6,10.0339579 C57.6,9.59213009 57.9581722,9.23395789 58.4,9.23395789 C58.8418278,9.23395789 59.2,9.59213009 59.2,10.0339579 L59.2,33.2339579 L64,33.2339579 C64.8836556,33.2339579 65.6,33.9503023 65.6,34.8339579 L65.6,51.6339579 C65.6,52.5176135 64.8836556,53.2339579 64,53.2339579 L59.2,53.2339579 L59.2,53.2339579 L59.2007161,57.2403101 C64.0210071,57.3933433 68.1470443,60.2974771 70.0604703,64.4343538 L75.2,64.4339579 C76.0836556,64.4339579 76.8,65.1503023 76.8,66.0339579 L76.8,85.2339579 C76.8,86.1176135 76.0836556,86.8339579 75.2,86.8339579 L69.6,86.8339579 C70.007841,86.8339579 70.3444016,86.5287697 70.3937669,86.1343082 L70.4,86.0339579 L70.4,70.0339579 C70.4,69.5921301 70.0418278,69.2339579 69.6,69.2339579 L48,69.2339579 C47.592159,69.2339579 47.2555984,69.539146 47.2062331,69.9336076 L47.2,70.0339579 L47.2,86.0339579 C47.2,86.4417989 47.5051881,86.7783595 47.8996497,86.8277248 L48,86.8339579 L42.4,86.8339579 C41.5163444,86.8339579 40.8,86.1176135 40.8,85.2339579 L40.8,66.0339579 C40.8,65.1503023 41.5163444,64.4339579 42.4,64.4339579 L47.5395297,64.4343538 C49.3463994,60.5278546 53.126307,57.7206215 57.6006973,57.29121 L57.6,53.2339579 L54.373,53.2339579 L54.4,53.2505602 Z M58.386,34.8329579 L52.8,34.8339579 C52.392159,34.8339579 52.0555984,35.139146 52.0062331,35.5336076 L52,35.6339579 L52,50.8339579 C52,51.2417989 52.3051881,51.5783595 52.6996497,51.6277248 L52.8,51.6339579 L63.2,51.6339579 C63.607841,51.6339579 63.9444016,51.3287697 63.9937669,50.9343082 L64,50.8339579 L64,35.6339579 C64,35.1921301 63.6418278,34.8339579 63.2,34.8339579 L58.414245,34.8338336 C58.4095066,34.8339163 58.4047581,34.8339579 58.4,34.8339579 L58.386,34.8329579 Z" id="形状结合" fill="url(#linearGradient-2)"></path>
                            <g id="huo" transform="translate(52.964708, 70.833958)" fill="url(#linearGradient-3)" fill-rule="nonzero">
                                <path d="M5.39109616,13.285318 C1.89800975,13.285318 2.62560397,7.23909831 2.62560397,7.23909831 C2.67344594,7.79204105 3.48801913,9.92631651 5.51139465,9.92631651 C6.36074527,9.92631651 7.48622048,10.1147261 7.67390819,11.2691896 C7.76813422,11.848955 7.22170252,13.285318 5.39108201,13.285318 M8.80810253,4.05835766 C8.4928551,5.55850059 7.67756004,6.63469007 6.71370009,6.63469007 C5.47807512,6.63469007 4.47652194,4.87509648 4.47652194,2.70533587 C4.47652194,1.65451112 4.71495328,0.705145306 5.09688222,0 C4.89757371,0.16957005 0,4.36491427 0,9.43786135 C0,12.2301337 2.43357085,14.4941345 5.43530044,14.4941345 C8.43703004,14.4941345 10.8706009,12.2301479 10.8706009,9.43786135 C10.8706009,7.55869115 9.92848214,5.66140328 8.80808837,4.05835766" id="形状"></path>
                            </g>
                            <g id="形状结合">
                                <use fill="black" fill-opacity="1" filter="url(#filter-6)" xlink:href="#path-5"></use>
                                <use fill="url(#linearGradient-4)" fill-rule="evenodd" xlink:href="#path-5"></use>
                            </g>
                            <g id="形状结合">
                                <use fill="black" fill-opacity="1" filter="url(#filter-9)" xlink:href="#path-8"></use>
                                <use fill="url(#linearGradient-7)" fill-rule="evenodd" xlink:href="#path-8"></use>
                            </g>
                        </g>
                    </g>
                </g>
            </g>
        </g>
    </g>
</svg>