<?xml version="1.0" encoding="UTF-8"?>
<svg width="100px" height="80px" viewBox="0 0 100 80" version="1.1" xmlns="http://www.w3.org/2000/svg" xmlns:xlink="http://www.w3.org/1999/xlink">
    <title>编组</title>
    <defs>
        <linearGradient x1="0%" y1="57.7840588%" x2="50%" y2="83.229962%" id="linearGradient-1">
            <stop stop-color="#D6E3FF" offset="0%"></stop>
            <stop stop-color="#FFFFFF" offset="100%"></stop>
        </linearGradient>
        <linearGradient x1="50%" y1="0%" x2="50%" y2="129.472381%" id="linearGradient-2">
            <stop stop-color="#DFEAFF" offset="0%"></stop>
            <stop stop-color="#6699FF" offset="100%"></stop>
        </linearGradient>
        <linearGradient x1="50%" y1="0%" x2="50%" y2="129.472381%" id="linearGradient-3">
            <stop stop-color="#DFEAFF" offset="0%"></stop>
            <stop stop-color="#6699FF" offset="100%"></stop>
        </linearGradient>
        <linearGradient x1="50%" y1="0%" x2="50%" y2="129.472381%" id="linearGradient-4">
            <stop stop-color="#DFEAFF" offset="0%"></stop>
            <stop stop-color="#6699FF" offset="100%"></stop>
        </linearGradient>
        <linearGradient x1="50%" y1="75.6972535%" x2="50%" y2="129.472381%" id="linearGradient-5">
            <stop stop-color="#DFEAFF" offset="0%"></stop>
            <stop stop-color="#6699FF" offset="100%"></stop>
        </linearGradient>
    </defs>
    <g id="页面-1" stroke="none" stroke-width="1" fill="none" fill-rule="evenodd">
        <g id="首页" transform="translate(-1047.000000, -1705.000000)">
            <g id="编组-6" transform="translate(0.000000, 1549.000000)">
                <g id="编组-12" transform="translate(485.000000, 57.000000)">
                    <g id="编组-4备份-2" transform="translate(552.000000, 99.000000)">
                        <g id="编组" transform="translate(10.000000, 0.000000)">
                            <path d="M34.56,50.24 L34.56,53.44 C34.56,57.248736 37.5845785,60.3510438 41.3628944,60.4760823 L41.6,60.48 C45.408736,60.48 48.5110438,57.4554215 48.6360823,53.6771056 L48.64,53.44 L48.64,50.24 L56.96,50.24 L56.96,73.92 L62.72,73.92 L62.72,79.36 L27,79.36 L27,73.92 L27.52,73.92 L27.52,50.24 L34.56,50.24 Z" id="形状结合" fill="url(#linearGradient-1)"></path>
                            <rect id="矩形" fill="#FFFFFF" x="80.96" y="38.08" width="12.8" height="12.8"></rect>
                            <path d="M93.76,63.68 L93.76,77.439 L96.96,77.44 L96.96,79.36 L88,79.36 L88,77.44 L91.2,77.439 L91.2,63.68 L93.76,63.68 Z" id="形状结合" fill="url(#linearGradient-2)"></path>
                            <path d="M94.56,53.12 C97.4760635,53.12 99.84,55.4839365 99.84,58.4 C99.84,61.3160635 97.4760635,63.68 94.56,63.68 L57.76,63.68 C54.8439365,63.68 52.48,61.3160635 52.48,58.4 C52.48,55.4839365 54.8439365,53.12 57.76,53.12 L94.56,53.12 Z M94.56,55.36 L57.76,55.36 C56.0810544,55.36 54.72,56.7210544 54.72,58.4 C54.72,60.0499983 56.034526,61.3929726 57.6734468,61.4387916 L57.76,61.44 L94.56,61.44 C96.2389456,61.44 97.6,60.0789456 97.6,58.4 C97.6,56.7500017 96.285474,55.4070274 94.6465532,55.3612084 L94.56,55.36 Z" id="矩形" fill="#FFFFFF" fill-rule="nonzero"></path>
                            <circle id="椭圆形" fill="#FFFFFF" cx="67.84" cy="58.4" r="2.4"></circle>
                            <circle id="椭圆形备份-3" fill="#FFFFFF" cx="80.48" cy="58.4" r="2.4"></circle>
                            <circle id="椭圆形备份-4" fill="#FFFFFF" cx="93.6" cy="58.4" r="2.4"></circle>
                            <rect id="矩形备份-4" fill="#FFFFFF" x="40.32" y="1.28" width="2.56" height="15.68"></rect>
                            <path d="M41.6,15.36 C37.0049909,15.36 33.28,19.0849909 33.28,23.68 L33.28,53.44 C33.28,58.0350091 37.0049909,61.76 41.6,61.76 C46.1950091,61.76 49.92,58.0350091 49.92,53.44 L49.92,23.68 C49.92,19.0849909 46.1950091,15.36 41.6,15.36 Z M41.6,17.92 C44.7811602,17.92 47.36,20.4988398 47.36,23.68 L47.36,53.44 C47.36,56.6211602 44.7811602,59.2 41.6,59.2 C38.4188398,59.2 35.84,56.6211602 35.84,53.44 L35.84,23.68 C35.84,20.4988398 38.4188398,17.92 41.6,17.92 Z" id="矩形" fill="url(#linearGradient-3)"></path>
                            <path d="M50.5713708,-0.81137085 C47.8320385,-0.81137085 45.6113708,1.40929679 45.6113708,4.14862915 L45.6113708,25.5886292 C45.6113708,28.3279615 47.8320385,30.5486292 50.5713708,30.5486292 C53.3107032,30.5486292 55.5313708,28.3279615 55.5313708,25.5886292 L55.5313708,4.14862915 C55.5313708,1.40929679 53.3107032,-0.81137085 50.5713708,-0.81137085 Z M50.5713708,1.10862915 C52.2503165,1.10862915 53.6113708,2.46968351 53.6113708,4.14862915 L53.6113708,25.5886292 C53.6113708,27.2675748 52.2503165,28.6286292 50.5713708,28.6286292 C48.8924252,28.6286292 47.5313708,27.2675748 47.5313708,25.5886292 L47.5313708,4.14862915 C47.5313708,2.46968351 48.8924252,1.10862915 50.5713708,1.10862915 Z" id="矩形备份-5" fill="url(#linearGradient-4)" transform="translate(50.571371, 14.868629) rotate(-315.000000) translate(-50.571371, -14.868629) "></path>
                            <path d="M66.7176824,-2.06748126 C63.9783501,-2.06748126 61.7576824,0.153186381 61.7576824,2.89251874 L61.7576824,24.3325187 C61.7576824,27.0718511 63.9783501,29.2925187 66.7176824,29.2925187 C69.4570148,29.2925187 71.6776824,27.0718511 71.6776824,24.3325187 L71.6776824,2.89251874 C71.6776824,0.153186381 69.4570148,-2.06748126 66.7176824,-2.06748126 Z M66.7176824,-0.14748126 C68.3966281,-0.14748126 69.7576824,1.2135731 69.7576824,2.89251874 L69.7576824,24.3325187 C69.7576824,26.0114644 68.3966281,27.3725187 66.7176824,27.3725187 C65.0387368,27.3725187 63.6776824,26.0114644 63.6776824,24.3325187 L63.6776824,2.89251874 C63.6776824,1.2135731 65.0387368,-0.14748126 66.7176824,-0.14748126 Z" id="矩形备份-5" fill="url(#linearGradient-4)" transform="translate(66.717682, 13.612519) rotate(-53.000000) translate(-66.717682, -13.612519) "></path>
                            <circle id="椭圆形" fill="#FFFFFF" cx="41.76" cy="24.16" r="4"></circle>
                            <circle id="椭圆形备份-2" fill="#FFFFFF" cx="58.08" cy="7.2" r="2.4"></circle>
                            <g id="扳子" transform="translate(79.318989, 23.860610) rotate(-285.000000) translate(-79.318989, -23.860610) translate(68.318989, 12.860610)" fill="#FFFFFF" fill-rule="nonzero">
                                <path d="M19.7800872,4.53650932 L17.1978039,7.11969935 C17.0902654,7.22635499 16.9161328,7.22635499 16.808642,7.11969935 L15.6275323,5.93780217 L15.62758,5.93777831 L15.5120722,5.82227049 L15.4978514,5.80804974 L14.3167655,4.6269638 C14.2109449,4.52030816 14.2109449,4.34622326 14.3167655,4.23956762 L16.8999555,1.65637759 C15.8213019,1.21176435 14.6171669,1.17334923 13.5145337,1.5368851 L10.4185377,4.633764 C10.091174,5.62637725 10.0902912,6.70285953 10.4177503,7.69480469 L2.06821239,16.0451777 C2.07837689,16.0384491 2.08877999,16.0322931 2.09901607,16.0257554 L2.09901623,16.0257552 C2.05422015,16.0641331 2.01091366,16.1042161 1.96919222,16.1459158 C1.05185829,17.0632736 1.05185829,18.5507499 1.96919222,19.4672965 C2.88659774,20.3846304 4.37316737,20.3846304 5.28971392,19.4672965 L5.28973778,19.4672726 L5.29143186,19.4689906 L13.7421136,11.0182611 C14.7340349,11.3456247 15.8105411,11.3450759 16.8035122,11.0187621 L19.8996276,7.92188323 C20.2631158,6.8192739 20.2255596,5.61516275 19.7800874,4.53650918 L19.7800872,4.53650932 Z M3.00012498,18.436316 C2.65190745,18.0882177 2.65190745,17.524112 3.00012498,17.1776601 C3.08203747,17.093982 3.17673909,17.0334006 3.27659453,16.9907384 L2.23463814,15.947923 L3.26893537,16.9830554 C3.59491509,16.8422556 3.98577102,16.9028847 4.25202835,17.1682592 C4.51826182,17.4353516 4.57970215,17.8262314 4.43806728,18.1521634 L4.44606049,18.1601566 C4.40253926,18.2613005 4.34128982,18.3547375 4.25968752,18.436316 C3.91146998,18.7854163 3.34741197,18.7854163 3.00012498,18.436316 L3.00012498,18.436316 Z" id="形状" transform="translate(10.713635, 10.722990) rotate(7.000000) translate(-10.713635, -10.722990) "></path>
                            </g>
                            <circle id="椭圆形备份" fill="#FFFFFF" cx="41.76" cy="52.96" r="4"></circle>
                            <path d="M27.52,50.24 L27.52,79.36 L0,79.36 L0,50.24 L27.52,50.24 Z M24.32,53.44 L3.2,53.44 L3.2,76.16 L24.32,76.16 L24.32,53.44 Z" id="矩形" fill="#FFFFFF" fill-rule="nonzero"></path>
                            <rect id="矩形备份" stroke="#FFFFFF" stroke-width="3.2" x="4.16" y="44.16" width="19.2" height="7.36"></rect>
                            <path d="M24.32,23.68 L24.32,42.56 L3.84,42.56 L3.84,23.68 L24.32,23.68 Z M21.76,26.24 L6.4,26.24 L6.4,40 L21.76,40 L21.76,26.24 Z" id="矩形备份-2" fill="url(#linearGradient-5)"></path>
                            <rect id="矩形" fill="#FDC854" x="8.32" y="28.16" width="11.2" height="9.92"></rect>
                            <rect id="矩形" fill="#FFFFFF" x="12.8" y="1.28" width="2.56" height="22.4"></rect>
                            <rect id="矩形备份-3" fill="#FFFFFF" transform="translate(27.520000, 2.560000) rotate(-270.000000) translate(-27.520000, -2.560000) " x="26.24" y="-12.16" width="2.56" height="29.44"></rect>
                        </g>
                    </g>
                </g>
            </g>
        </g>
    </g>
</svg>