<?xml version="1.0" encoding="UTF-8"?>
<svg width="111px" height="89px" viewBox="0 0 111 89" version="1.1" xmlns="http://www.w3.org/2000/svg" xmlns:xlink="http://www.w3.org/1999/xlink">
    <title>编组 3</title>
    <defs>
        <linearGradient x1="0%" y1="56.013421%" x2="50%" y2="75.6711513%" id="linearGradient-1">
            <stop stop-color="#D6E3FF" offset="0%"></stop>
            <stop stop-color="#FFFFFF" offset="100%"></stop>
        </linearGradient>
        <linearGradient x1="50%" y1="0%" x2="50%" y2="129.472381%" id="linearGradient-2">
            <stop stop-color="#DFEAFF" offset="0%"></stop>
            <stop stop-color="#6699FF" offset="100%"></stop>
        </linearGradient>
        <linearGradient x1="50%" y1="0%" x2="50%" y2="129.472381%" id="linearGradient-3">
            <stop stop-color="#DFEAFF" offset="0%"></stop>
            <stop stop-color="#6699FF" offset="100%"></stop>
        </linearGradient>
        <linearGradient x1="50%" y1="0%" x2="50%" y2="129.472381%" id="linearGradient-4">
            <stop stop-color="#DFEAFF" offset="0%"></stop>
            <stop stop-color="#6699FF" offset="100%"></stop>
        </linearGradient>
        <linearGradient x1="50%" y1="0%" x2="50%" y2="129.472381%" id="linearGradient-5">
            <stop stop-color="#DFEAFF" offset="0%"></stop>
            <stop stop-color="#6699FF" offset="100%"></stop>
        </linearGradient>
        <linearGradient x1="50%" y1="0%" x2="50%" y2="129.472381%" id="linearGradient-6">
            <stop stop-color="#DFEAFF" offset="0%"></stop>
            <stop stop-color="#6699FF" offset="100%"></stop>
        </linearGradient>
        <linearGradient x1="50%" y1="0%" x2="50%" y2="129.472381%" id="linearGradient-7">
            <stop stop-color="#DFEAFF" offset="0%"></stop>
            <stop stop-color="#6699FF" offset="100%"></stop>
        </linearGradient>
    </defs>
    <g id="页面-1" stroke="none" stroke-width="1" fill="none" fill-rule="evenodd">
        <g id="首页" transform="translate(-1322.000000, -1697.000000)">
            <g id="编组-6" transform="translate(0.000000, 1549.000000)">
                <g id="编组-12" transform="translate(485.000000, 57.000000)">
                    <g id="编组-3" transform="translate(837.000000, 91.000000)">
                        <g id="编组" transform="translate(59.224000, 36.760000)">
                            <path d="M0,51.42528 L0,47.90016 L3.525,47.89952 L3.52512,32.55552 L8.08612,32.55552 L8.08704,34.62912 C8.08704,37.0766137 10.0144375,39.0739397 12.4342094,39.1860746 L12.64896,39.19104 C15.0964537,39.19104 17.0937797,37.2636425 17.2059146,34.8438706 L17.21088,34.62912 L17.21012,32.55552 L22.60224,32.55552 L22.602,47.89952 L26.33472,47.90016 L26.33472,51.42528 L0,51.42528 Z" id="形状结合" fill="url(#linearGradient-1)"></path>
                            <rect id="矩形" fill="#FFFFFF" x="38.15424" y="24.67584" width="8.2944" height="8.2944"></rect>
                            <path d="M46.44864,41.26464 L46.44816,50.18064 L48.52224,50.18112 L48.52224,51.42528 L42.71616,51.42528 L42.71616,50.18112 L44.78916,50.18064 L44.78976,41.26464 L46.44864,41.26464 Z" id="形状结合" fill="url(#linearGradient-2)"></path>
                            <path d="M46.96704,34.42176 C48.8566491,34.42176 50.38848,35.9535909 50.38848,37.8432 C50.38848,39.7328091 48.8566491,41.26464 46.96704,41.26464 L23.12064,41.26464 C21.2310309,41.26464 19.6992,39.7328091 19.6992,37.8432 C19.6992,35.9535909 21.2310309,34.42176 23.12064,34.42176 L46.96704,34.42176 Z M46.96704,35.87328 L23.12064,35.87328 C22.0326832,35.87328 21.15072,36.7552432 21.15072,37.8432 C21.15072,38.9123989 22.0025329,39.7826462 23.0645535,39.8123369 L23.12064,39.81312 L46.96704,39.81312 C48.0549968,39.81312 48.93696,38.9311568 48.93696,37.8432 C48.93696,36.7740011 48.0851471,35.9037538 47.0231265,35.8740631 L46.96704,35.87328 Z" id="矩形" fill="#FFFFFF" fill-rule="nonzero"></path>
                            <circle id="椭圆形" fill="#FFFFFF" cx="29.65248" cy="37.8432" r="1.5552"></circle>
                            <circle id="椭圆形备份-3" fill="#FFFFFF" cx="37.8432" cy="37.8432" r="1.5552"></circle>
                            <circle id="椭圆形备份-4" fill="#FFFFFF" cx="46.34496" cy="37.8432" r="1.5552"></circle>
                            <path d="M12.64896,9.95328 C9.67139409,9.95328 7.2576,12.3670741 7.2576,15.34464 L7.2576,34.62912 C7.2576,37.6066859 9.67139409,40.02048 12.64896,40.02048 C15.6265259,40.02048 18.04032,37.6066859 18.04032,34.62912 L18.04032,15.34464 C18.04032,12.3670741 15.6265259,9.95328 12.64896,9.95328 Z M12.64896,11.61216 C14.7103518,11.61216 16.38144,13.2832482 16.38144,15.34464 L16.38144,34.62912 C16.38144,36.6905118 14.7103518,38.3616 12.64896,38.3616 C10.5875682,38.3616 8.91648,36.6905118 8.91648,34.62912 L8.91648,15.34464 C8.91648,13.2832482 10.5875682,11.61216 12.64896,11.61216 Z" id="矩形" fill="url(#linearGradient-3)"></path>
                            <path d="M18.4624083,-0.525768311 C16.6873209,-0.525768311 15.2483283,0.913224321 15.2483283,2.68831169 L15.2483283,16.5814317 C15.2483283,18.3565191 16.6873209,19.7955117 18.4624083,19.7955117 C20.2374957,19.7955117 21.6764883,18.3565191 21.6764883,16.5814317 L21.6764883,2.68831169 C21.6764883,0.913224321 20.2374957,-0.525768311 18.4624083,-0.525768311 Z M18.4624083,0.718391689 C19.5503651,0.718391689 20.4323283,1.60035491 20.4323283,2.68831169 L20.4323283,16.5814317 C20.4323283,17.6693885 19.5503651,18.5513517 18.4624083,18.5513517 C17.3744515,18.5513517 16.4924883,17.6693885 16.4924883,16.5814317 L16.4924883,2.68831169 C16.4924883,1.60035491 17.3744515,0.718391689 18.4624083,0.718391689 Z" id="矩形备份-5" fill="url(#linearGradient-4)" transform="translate(18.462408, 9.634872) rotate(-315.000000) translate(-18.462408, -9.634872) "></path>
                            <path d="M28.9252182,-1.13236786 C27.1501309,-1.13236786 25.7111382,0.306624775 25.7111382,2.08171214 L25.7111382,15.9748321 C25.7111382,17.7499195 27.1501309,19.1889121 28.9252182,19.1889121 C30.7003056,19.1889121 32.1392982,17.7499195 32.1392982,15.9748321 L32.1392982,2.08171214 C32.1392982,0.306624775 30.7003056,-1.13236786 28.9252182,-1.13236786 Z M28.9252182,0.111792144 C30.013175,0.111792144 30.8951382,0.993755369 30.8951382,2.08171214 L30.8951382,15.9748321 C30.8951382,17.0627889 30.013175,17.9447521 28.9252182,17.9447521 C27.8372614,17.9447521 26.9552982,17.0627889 26.9552982,15.9748321 L26.9552982,2.08171214 C26.9552982,0.993755369 27.8372614,0.111792144 28.9252182,0.111792144 Z" id="矩形备份-5" fill="url(#linearGradient-4)" transform="translate(28.925218, 9.028272) rotate(-53.000000) translate(-28.925218, -9.028272) "></path>
                            <circle id="椭圆形" fill="#FFFFFF" cx="12.75264" cy="15.65568" r="2.592"></circle>
                            <circle id="椭圆形备份-2" fill="#FFFFFF" cx="23.53536" cy="4.87296" r="1.5552"></circle>
                            <g id="扳子" transform="translate(37.181374, 15.304908) rotate(-285.000000) translate(-37.181374, -15.304908) translate(30.181374, 8.304908)" fill="#FFFFFF" fill-rule="nonzero">
                                <path d="M12.8174965,2.93965804 L11.1441769,4.61356518 C11.074492,4.68267803 10.9616541,4.68267803 10.892,4.61356518 L10.1266409,3.8476958 L10.1266718,3.84768034 L10.0518228,3.77283128 L10.0426077,3.76361623 L9.27726402,2.99827254 C9.20869232,2.92915969 9.20869232,2.81635267 9.27726402,2.74723982 L10.9511712,1.07333268 C10.2522036,0.7852233 9.47192416,0.760330303 8.75741785,0.995901543 L6.7512124,3.00267907 C6.53908078,3.64589246 6.53850871,4.34345297 6.75070217,4.98623344 L1.34020163,10.3972751 C1.34678822,10.392915 1.35352943,10.3889259 1.36016241,10.3846895 L1.36016252,10.3846894 C1.33113466,10.4095583 1.30307205,10.435532 1.27603656,10.4625534 C0.68160417,11.0570013 0.68160417,12.020886 1.27603656,12.6148081 C1.87051533,13.2092405 2.83381246,13.2092405 3.42773462,12.6148081 L3.42775008,12.6147927 L3.42884784,12.6159059 L8.90488964,7.13983317 C9.54765464,7.35196479 10.2452306,7.35160918 10.8886759,7.14015786 L12.8949587,5.13338033 C13.130499,4.41888948 13.1061626,3.63862546 12.8174966,2.93965795 L12.8174965,2.93965804 Z M1.94408099,11.9467328 C1.71843603,11.7211651 1.71843603,11.3556246 1.94408099,11.1311238 C1.99716028,11.0769003 2.05852693,11.0376436 2.12323326,11.0099985 L1.44804551,10.3342541 L2.11827012,11.0050199 C2.32950498,10.9137816 2.58277962,10.9530693 2.75531437,11.1250319 C2.92783366,11.2981078 2.96764699,11.551398 2.8758676,11.7626019 L2.8810472,11.7677815 C2.85284544,11.8333227 2.8131558,11.8938699 2.76027751,11.9467328 C2.53463255,12.1729498 2.16912296,12.1729498 1.94408099,11.9467328 L1.94408099,11.9467328 Z" id="形状" transform="translate(6.942436, 6.948497) rotate(7.000000) translate(-6.942436, -6.948497) "></path>
                            </g>
                            <circle id="椭圆形备份" fill="#FFFFFF" cx="12.75264" cy="34.31808" r="2.592"></circle>
                        </g>
                        <g id="手机" transform="translate(35.608000, 13.720000)" fill="#FFFFFF" fill-rule="nonzero">
                            <path d="M7.95645124,21.9006979 L7.95965124,21.032543 L7.95325124,21.0334112 L7.95645124,21.9006979 Z M13.9971002,0.185540482 L1.84293217,0.185540482 C0.884489207,0.185540482 0.106622456,0.963407233 0.106622456,1.92185019 L0.106622456,22.7575667 C0.106622456,23.7160097 0.884489207,24.4938765 1.84293217,24.4938765 L13.9971002,24.4938765 C14.9555431,24.4938765 15.7334099,23.7160097 15.7334099,22.7575667 L15.7334099,1.92185019 C15.7334099,0.963407233 14.9555431,0.185540482 13.9971002,0.185540482 Z M7.78430971,23.6326194 C7.14898171,23.6326194 6.63230971,23.1159474 6.63230971,22.4806194 C6.63230971,21.8452914 7.14898171,21.3286194 7.78430971,21.3286194 C8.41963771,21.3286194 8.93630971,21.8452914 8.93630971,22.4806194 C8.93630971,23.1159474 8.41963771,23.6326194 7.78430971,23.6326194 Z M13.8738583,20.2306326 L1.77785828,20.2306326 L1.77785828,1.79863256 L13.8738583,1.79863256 L13.8738583,20.2306326 Z M21.0534755,22.8764216 C21.6009065,22.879696 22.0473203,23.3228354 22.0473203,23.8702664 L22.0473203,23.8702664 L22.0473203,29.5889784 C22.0473203,29.6736903 22.1157492,29.7453713 22.2037355,29.7453713 C22.2884475,29.7453713 22.3601285,29.6769647 22.3601285,29.5889784 L22.3601285,29.5889784 L22.3601285,27.2102506 C22.3601285,26.5650545 22.8065423,26.0404331 23.3539733,26.0404331 C23.9014044,26.0404331 24.3478404,26.5650545 24.3478404,27.2102506 L24.3478404,27.2102506 L24.3478404,30.315612 C24.3478404,30.4003462 24.416247,30.4720272 24.5042334,30.4720272 C24.5889676,30.4720272 24.6606486,30.4035983 24.6606486,30.315612 L24.6606486,30.315612 L24.6606486,28.2432104 C24.6606486,27.5980143 25.1070401,27.0733929 25.6544935,27.0733929 C26.2019468,27.0733929 26.6483383,27.5980143 26.6483383,28.2432104 L26.6483383,28.2432104 L26.6483383,30.863043 C26.6483383,30.9477772 26.7167672,31.0194582 26.8047535,31.0194582 C26.8894654,31.0194582 26.9611687,30.9510294 26.9611687,30.863043 L26.9611687,30.863043 L26.9611687,29.0447995 C26.9611687,28.3996034 27.4075825,27.8749819 27.9550136,27.8749819 C28.5056968,27.8749819 28.9488584,28.4028778 28.9488584,29.0447772 L28.9488584,29.0447772 L28.9488584,34.0107715 C28.9488584,35.2946371 28.5773778,36.2950086 27.8507442,36.9890538 C27.0914999,37.7124576 25.9640495,38.0774116 24.5009812,38.0774116 C23.3507434,38.0774116 22.4937341,37.8297578 21.7182068,37.2758225 C20.9915509,36.7544532 20.3822176,36.0017356 19.6099647,35.0502356 C19.2710502,34.633158 18.8898131,34.1606601 18.4596824,33.6653749 L18.4596824,33.6653749 L16.8108627,31.7623972 C16.4165947,31.3094568 16.4165947,30.5437082 16.8108627,30.0907901 C16.9966141,29.8757248 17.2442901,29.7584022 17.5049525,29.7584022 C17.7656148,29.7584022 18.0132686,29.8757248 18.1989977,30.0907901 L18.1989977,30.0907901 L19.7793885,31.9122858 C19.8080569,31.9475943 19.8512084,31.9679736 19.8966888,31.9676838 L19.8966888,31.9676838 C19.9879273,31.9676838 20.0596306,31.8992549 20.0596306,31.8112686 L20.0596306,31.8112686 L20.0596306,23.8865717 C20.0596306,23.345645 20.4930135,22.8927046 21.0241393,22.8764216 L21.0241393,22.8764216 Z M23.8785947,21.8532405 C24.5205387,22.9024834 24.527043,24.2221895 23.8949001,25.2812111 C23.7222018,25.5842405 23.3376903,25.6885322 23.0346386,25.5125595 C22.7316091,25.3398612 22.6273397,24.9553497 22.8032901,24.652298 C22.8065423,24.6457937 22.8098167,24.6392894 22.816321,24.6327628 C23.3995926,23.6584532 23.0802801,22.3974194 22.1059705,21.8141479 C21.1316608,21.2308763 19.870627,21.5501888 19.2873555,22.5244984 C18.8963397,23.1794733 18.8995918,23.9973454 19.2971342,24.6490459 C19.4613635,24.9159185 19.401249,25.2566943 19.1714008,25.4552065 L19.0885732,25.5158117 C18.9891403,25.5754134 18.8754096,25.6069446 18.7594819,25.6070502 C18.5411644,25.6070502 18.3358555,25.493002 18.2218074,25.3072729 C17.2670775,23.7464618 17.7623627,21.706604 19.323196,20.7518742 C20.8840294,19.7971443 22.9238649,20.2924072 23.8785947,21.8532405 Z" id="形状"></path>
                        </g>
                        <g id="电脑" transform="translate(0.472000, 54.616000)" fill-rule="nonzero">
                            <path d="M3.64319186,15.6384347 L24.7104102,15.6384347 C25.1856117,15.6384347 25.8192109,15.3216337 25.8192109,14.846435 L25.8192109,1.06562824 C25.8192109,0.590426758 25.5024099,0.273628555 24.8688107,0.273628555 L3.64318908,0.273628555 C3.1679876,0.273628555 2.6927889,0.590429542 2.6927889,1.06562824 L2.6927889,14.846435 C2.6927889,15.3216365 3.16799038,15.6384347 3.64318908,15.6384347 L3.64319186,15.6384347 Z M4.55040713,2.14563958 L24.1344071,2.14563958 L24.1344071,13.9536396 L4.55040713,13.9536396 L4.55040713,2.14563958 Z M25.8192301,16.7472298 L2.69279698,16.7472298 L-5.84719237e-06,19.1232316 L-5.84719237e-06,20.5488333 L28.5120273,20.5488333 L28.5120273,19.1232316 L25.8192245,16.7472298 L25.8192301,16.7472298 Z M19.8000169,19.9152397 L8.71201017,19.9152397 L8.71201017,18.806439 L19.6416136,18.806439 L19.6416136,19.9152397 L19.8000169,19.9152397 Z" id="形状" fill="#FFFFFF"></path>
                            <g id="数据-(14)" transform="translate(8.528000, 3.384000)" fill="#FDC854">
                                <path d="M5.27415579,7.94966303 L5.27415579,8.43428878 L4.52471479,8.43428878 L4.52471479,7.94966303 L5.27415579,7.94966303 Z M6.23904932,7.94966303 L6.23904932,8.43428878 L5.48960832,8.43428878 L5.48960832,7.94966303 L6.23904932,7.94966303 Z M7.21331087,7.94966303 L7.21331087,8.43428878 L6.46386987,8.43428878 L6.46386987,7.94966303 L7.21331087,7.94966303 Z M10.8949045,4.59975209 C11.4101335,4.59975209 11.822326,4.97385739 11.822326,5.42447357 C11.822326,5.8836028 11.4195015,6.25769744 10.9042608,6.25769744 C10.501448,6.25769744 10.1548315,6.02813282 10.0330474,5.69653948 L10.0330474,5.69653948 L8.29062055,5.69653948 C7.98147614,5.69653948 7.93463608,5.74756451 7.92526806,5.7560669 L7.92526806,5.7560669 L6.66996614,7.45652422 C6.50134192,7.70309363 6.11726516,7.82211646 5.83622479,7.82211646 L5.83622479,7.82211646 L4.29988249,7.82211646 C4.17809833,8.16221219 3.83148187,8.41728399 3.40993306,8.41728399 C2.90406038,8.41728399 2.49186783,8.05169175 2.49186783,7.58406012 C2.49186783,7.12494155 2.90406038,6.75082558 3.40993306,6.75082558 C3.82211385,6.75082558 4.17809833,7.00589738 4.29051448,7.34599311 L4.29051448,7.34599311 L5.83622479,7.34599311 C5.97674497,7.34599311 6.16409347,7.26947157 6.22030154,7.19295003 L6.22030154,7.19295003 L7.47560346,5.49249271 C7.66296371,5.24592331 8.00021216,5.21191373 8.28125254,5.21191373 L8.28125254,5.21191373 L10.0049433,5.21191373 C10.1173712,4.85482388 10.473344,4.59975209 10.8949045,4.59975209 Z M8.37493266,6.61479796 C8.88079358,6.61479796 9.29298613,6.98889259 9.29298613,7.44802183 C9.29298613,7.90715106 8.88080534,8.2812457 8.37493266,8.2812457 C7.86905999,8.2812457 7.45686744,7.9071404 7.45686744,7.44802183 C7.45686744,6.98890326 7.86905999,6.61479796 8.37493266,6.61479796 Z M5.41466422,4.41270997 C5.9205369,4.41270997 6.33271769,4.78679407 6.33271769,5.24592331 C6.33271769,5.70505254 5.9205369,6.07915779 5.41466422,6.07915779 C5.00248343,6.07915779 4.64649895,5.83258844 4.5340828,5.49249271 L4.53408279,5.49250332 L1.79864664,5.49250332 C1.67686248,5.83259905 1.33024602,6.07915779 0.918065225,6.07915779 C0.41219255,6.07915779 3.11839443e-12,5.70505249 3.11839443e-12,5.24593392 C3.11839443e-12,4.78681535 0.402824537,4.41270997 0.918065225,4.41270997 C1.32938562,4.41255109 1.69168016,4.658298 1.80801466,5.0163693 L1.80801466,5.0163693 L4.52471479,5.01636936 C4.63713094,4.6677819 4.99310366,4.41270997 5.41466422,4.41270997 Z M7.90653204,4.42120183 L7.90653204,4.90583824 L7.15709104,4.90583824 L7.15709104,4.42119116 L7.90653204,4.42120183 Z M8.88080534,4.42120183 L8.88080534,4.90583824 L8.13136434,4.90583824 L8.13136434,4.42119116 L8.88080534,4.42120183 Z M9.84569887,4.42120183 L9.84569887,4.90583824 L9.09625787,4.90583824 L9.09625787,4.42119116 L9.84569887,4.42120183 Z M2.72606815,4.26815875 L2.72606815,4.75279517 L1.97662715,4.75279517 L1.97662715,4.26815875 L2.72606815,4.26815875 Z M3.69097343,4.26815875 L3.69097343,4.75279517 L2.94153243,4.75279517 L2.94153243,4.26815875 L3.69097343,4.26815875 Z M4.65586697,4.26815875 L4.65586697,4.75279517 L3.90642597,4.75279517 L3.90642597,4.26815875 L4.65586697,4.26815875 Z M0.974273318,0.136038292 C1.41455815,0.136038292 1.77991064,0.408114877 1.87359076,0.782220181 L1.87359076,0.782220181 L3.98137007,0.782220181 C4.26241044,0.782220181 4.61839492,0.892740625 4.78701914,1.14781242 L4.78701914,1.14781242 L6.03295305,2.93329367 C6.08914937,3.00981521 6.28587763,3.08633675 6.41702981,3.08633675 L6.41702981,3.08633675 L7.60675564,3.08633675 C7.68169974,2.69523733 8.05642024,2.39765357 8.5154411,2.39765357 C9.02131377,2.39765357 9.43350632,2.7717482 9.43350632,3.23087744 C9.43350632,3.69000667 9.02131377,4.06410131 8.51545285,4.06410131 C8.14073235,4.06410131 7.81285191,3.86854627 7.67233173,3.57097317 L7.67233173,3.57097317 L6.40766179,3.57097317 C6.13600119,3.57097317 5.75191267,3.43493488 5.57392044,3.18836547 L5.57392044,3.18836547 L4.31861852,1.39438183 C4.25304243,1.31786029 4.06568218,1.24133875 3.95326603,1.24133875 L3.95326603,1.24133875 L1.83611871,1.24133875 C1.70496654,1.5559273 1.36771809,1.79398364 0.964905305,1.79398364 C0.449664618,1.79398364 0.0374720682,1.41987834 0.0562080932,0.969262165 C0.0562080932,0.510132928 0.468400643,0.136038292 0.974273318,0.136038292 Z M3.47550915,2.17659134 C3.98137007,2.17659134 4.39356262,2.55069664 4.39356262,3.00981521 C4.39356262,3.47744684 3.97200205,3.85154148 3.47550915,3.84303909 C2.96963647,3.84303909 2.55744392,3.47744684 2.55744392,3.00981521 C2.55744392,2.55069664 2.96964823,2.17659134 3.47550915,2.17659134 Z M6.46386987,0.357100517 C6.91353447,0.357100517 7.28824321,0.64617122 7.37255533,1.02877892 L7.37255533,1.02877892 L9.04941781,1.02877892 L9.04941781,1.51341533 L7.31634725,1.51341533 C7.17583882,1.81949082 6.84795838,2.03205066 6.46386987,2.03205066 C5.94862918,2.03205066 5.53644839,1.65794535 5.5458164,1.19032439 C5.5458164,0.731195153 5.95800895,0.357100517 6.46386987,0.357100517 Z M10.0049551,1.02877892 L10.0049551,1.51341533 L9.25551408,1.51341533 L9.25551408,1.02877892 L10.0049551,1.02877892 Z M10.9698486,1.02877892 L10.9698486,1.51341533 L10.2204076,1.51341533 L10.2204076,1.02877892 L10.9698486,1.02877892 Z M3.39119703,3.10862447e-15 L3.39119703,0.484625748 L2.64175603,0.484625748 L2.64175603,3.10862447e-15 L3.39119703,3.10862447e-15 Z M4.35609057,3.4139358e-15 L4.35609057,0.484625748 L3.60664957,0.484625748 L3.60664957,3.4139358e-15 L4.35609057,3.4139358e-15 Z M5.3209841,3.4139358e-15 L5.3209841,0.484625748 L4.5715431,0.484625748 L4.5715431,3.4139358e-15 L5.3209841,3.4139358e-15 Z" id="形状结合"></path>
                            </g>
                        </g>
                        <g id="wifi" transform="translate(5.656000, 42.232000)" fill="url(#linearGradient-5)">
                            <path d="M5.07530096,9.64878332 C7.27704315,7.82068364 10.4687981,7.82068364 12.6705258,9.64878343 L12.6705258,9.64878343 L11.4105704,11.0507048 C9.90348389,9.95273067 7.86009221,9.95273067 6.35300566,11.0507048 L6.35300566,11.0507048 Z M2.55540085,6.86267997 C6.11359785,3.54467017 11.6322502,3.54467017 15.1904412,6.86268005 L15.1904412,6.86268005 L13.9304859,8.26460087 C11.0553741,5.67665558 6.69046804,5.67665558 3.81535629,8.26460087 L3.81535629,8.26460087 Z M1.27258204e-11,4.05884922 C4.90807514,-0.823058678 12.8378865,-0.823058678 17.745899,4.05884889 L17.745899,4.05884889 L16.4859437,5.44302608 C12.2374527,1.34588186 5.50838772,1.34588186 1.25995459,5.44302608 L1.25995459,5.44302608 Z" id="形状结合"></path>
                        </g>
                        <g id="wifi备份" transform="translate(35.608000, 0.760000)" fill="url(#linearGradient-5)">
                            <path d="M5.07530096,9.64878332 C7.27704315,7.82068364 10.4687981,7.82068364 12.6705258,9.64878343 L12.6705258,9.64878343 L11.4105704,11.0507048 C9.90348389,9.95273067 7.86009221,9.95273067 6.35300566,11.0507048 L6.35300566,11.0507048 Z M2.55540085,6.86267997 C6.11359785,3.54467017 11.6322502,3.54467017 15.1904412,6.86268005 L15.1904412,6.86268005 L13.9304859,8.26460087 C11.0553741,5.67665558 6.69046804,5.67665558 3.81535629,8.26460087 L3.81535629,8.26460087 Z M1.27258204e-11,4.05884922 C4.90807514,-0.823058678 12.8378865,-0.823058678 17.745899,4.05884889 L17.745899,4.05884889 L16.4859437,5.44302608 C12.2374527,1.34588186 5.50838772,1.34588186 1.25995459,5.44302608 L1.25995459,5.44302608 Z" id="形状结合"></path>
                        </g>
                        <g id="wifi备份-2" transform="translate(72.184000, 23.800000)" fill="url(#linearGradient-6)">
                            <path d="M5.88090428,11.1803362 C8.43212937,9.06206199 12.130512,9.06206199 14.6817203,11.1803364 L14.6817203,11.1803364 L13.2217721,12.8047849 C11.4754655,11.5325292 9.1077259,11.5325292 7.36141925,12.8047849 L7.36141925,12.8047849 Z M2.96102003,7.95199425 C7.08401021,4.10731622 13.4786391,4.10731622 17.6016223,7.95199434 L17.6016223,7.95199434 L16.1416741,9.57644227 C12.8101954,6.57771203 7.75244709,6.57771203 4.4209684,9.57644227 L4.4209684,9.57644227 Z M-9.5070618e-12,4.70311101 C5.68713468,-0.953702913 14.8756463,-0.953702913 20.5627084,4.70311062 L20.5627084,4.70311062 L19.1027602,6.30699847 C14.1799055,1.5595139 6.38273498,1.5595139 1.45994738,6.30699847 L1.45994738,6.30699847 Z" id="形状结合"></path>
                        </g>
                        <path d="M23.8045685,78.0140177 C29.3100723,83.1522381 36.6999037,86.296 44.824,86.296 C49.0270541,86.296 53.0335765,85.4545477 56.684298,83.9309124 C56.7110758,84.6434278 56.7516505,85.3523068 56.8039447,86.056128 C53.0931523,87.5128501 49.0519019,88.312 44.824,88.312 C35.7838851,88.312 27.5971247,84.658355 21.6598192,78.7471654 C22.3934647,78.5464987 23.1092629,78.3012705 23.8045685,78.0140177 Z M53.7517597,23.8764099 C63.0528757,26.4986388 70.6791035,33.1163231 74.6602928,41.759312 C74.0865971,42.1182289 73.5227599,42.5024729 72.9688995,42.9108555 C69.3495373,34.8191737 62.3427377,28.5732629 53.7517546,25.9770721 L53.7517597,23.8764099 Z M33.0155348,24.8355895 L33.0152259,27.0076391 C26.5719685,29.6829654 21.2326642,34.4817126 17.8705252,40.5306684 C17.5456142,40.5128567 17.2178031,40.504 16.888,40.504 C16.4463814,40.504 16.0083345,40.5198802 15.5743598,40.5511206 C19.2366355,33.391012 25.4500822,27.7527956 33.0155348,24.8355895 Z" id="形状结合" fill="url(#linearGradient-7)"></path>
                    </g>
                </g>
            </g>
        </g>
    </g>
</svg>