<?xml version="1.0" encoding="UTF-8"?>
<svg width="21px" height="13px" viewBox="0 0 21 13" version="1.1" xmlns="http://www.w3.org/2000/svg" xmlns:xlink="http://www.w3.org/1999/xlink">
    <title>箭头</title>
    <g id="页面-1" stroke="none" stroke-width="1" fill="none" fill-rule="evenodd">
        <g id="首页" transform="translate(-508.000000, -2607.000000)" fill="#DCC18D" fill-rule="nonzero">
            <g id="箭头" transform="translate(518.500000, 2613.500000) rotate(-90.000000) translate(-518.500000, -2613.500000) translate(512.000000, 2603.000000)">
                <path d="M11.8279563,15.3749916 L6.75054593,20.452402 C6.65998815,20.5676574 6.54267465,20.6582152 6.40272171,20.7096685 C6.39243105,20.7117266 6.3862245,20.7137847 6.38008226,20.7137847 C6.29775701,20.7508311 6.20719922,20.7632121 6.11664143,20.7672962 C6.10426049,20.7672962 6.08988572,20.7775868 6.07753694,20.7775868 C6.05283936,20.7775868 6.03222588,20.7611218 6.00756046,20.7611218 C5.95404905,20.7570055 5.90053763,20.7446567 5.84702621,20.7261335 C5.78322413,20.7096685 5.72559645,20.6829128 5.66796877,20.6540989 C5.63298053,20.6355757 5.60005043,20.6108782 5.56712032,20.5861806 C5.53830648,20.5635411 5.50126012,20.5532505 5.47450441,20.5224107 L0.325059406,15.3750238 C-0.00835789639,15.0436646 -0.00835789639,14.5044342 0.325059406,14.1771913 C0.654360445,13.8458321 1.19362306,13.8458321 1.5270082,14.1771913 L5.23164489,17.8797698 L5.23164489,9.62257843 C5.23164489,9.14917603 5.61651548,8.76022134 6.08988572,8.76022134 C6.56325597,8.76022134 6.94812656,9.14715006 6.94812656,9.62257843 L6.94812656,17.8530463 L10.6280978,14.1772234 C10.9553407,13.8458321 11.4966615,13.8458643 11.8280206,14.1772234 C12.1573217,14.5044663 12.1573217,15.0436968 11.8280206,15.375056 L11.8279563,15.3749916 Z M6.08371133,6.47974732 C5.61030893,6.47974732 5.2254705,6.09487673 5.2254705,5.62150649 C5.2254705,5.15022653 5.6082508,4.76532379 6.08371133,4.76532379 C6.5591397,4.76532379 6.94196038,5.15019438 6.94196038,5.62150649 C6.94401029,6.09693486 6.5591397,6.47974732 6.08371133,6.47974732 Z M6.08371133,2.4787397 C5.61030893,2.4787397 5.2254705,2.09592724 5.2254705,1.62049886 C5.2254705,1.14921891 5.6082508,0.76431616 6.08371133,0.76431616 C6.55913971,0.76431616 6.94196038,1.14918675 6.94196038,1.62049886 C6.94401029,2.09592724 6.55913971,2.4787397 6.08371133,2.4787397 Z" id="形状"></path>
            </g>
        </g>
    </g>
</svg>