<?xml version="1.0" encoding="UTF-8"?>
<svg width="30px" height="30px" viewBox="0 0 30 30" version="1.1" xmlns="http://www.w3.org/2000/svg" xmlns:xlink="http://www.w3.org/1999/xlink">
    <title>形状</title>
    <g id="页面-1" stroke="none" stroke-width="1" fill="none" fill-rule="evenodd">
        <g id="首页" transform="translate(-607.000000, -4023.000000)" fill="#DCC18D" fill-rule="nonzero">
            <g id="编组-9" transform="translate(506.000000, 3571.000000)">
                <g id="源头雨水净化" transform="translate(101.000000, 452.000000)">
                    <path d="M30.009281,15.0597911 C30.009281,23.3056658 23.2807634,30.0146946 15.0091808,30.0146946 C6.73756898,30.0146946 0.00928098097,23.3056658 0.00928098097,15.0597911 L0.00928098097,15.0598993 C0.0204517227,8.71517808 4.02677781,3.06539088 10.0105625,0.955877468 L10.0105626,0.955877427 C10.7924609,0.679460349 11.6503953,1.08923459 11.9268124,1.87113434 C12.2032295,2.65303262 11.7934553,3.51096707 11.0115555,3.78738414 L11.0115561,3.78738394 C6.22985753,5.47388369 3.02885766,9.98943661 3.02073783,15.0598141 C3.02084031,21.6509149 8.39876,27.0138407 15.0092077,27.0138407 C21.6196261,27.0138407 26.9997002,21.6509149 26.9997002,15.0597848 L26.9997007,15.0599433 C26.9878949,10.7858071 24.6957834,6.84291306 20.9874526,4.71768764 L20.9874526,4.71768785 C20.8910582,5.45266116 20.2668693,6.00363098 19.5256141,6.00804851 L19.5256141,6.00804851 C18.6969579,6.01041613 18.023282,5.34057823 18.0209135,4.51192206 C18.0209094,4.51049105 18.0209073,4.50906004 18.0209073,4.50762902 L18.0209073,2.53136285 C18.0123335,2.46491569 18.0187639,2.39846854 18.0209073,2.3298777 L18.0209073,1.50671194 L18.0209073,1.50670604 C18.0209072,0.678046937 18.6926691,0.00628516598 19.5213282,0.00628516598 C19.5227592,0.00628516598 19.5241902,0.00628516598 19.5256213,0.00628516598 L24.0397466,0.00628516598 L24.0397466,0.00628516598 C24.8684057,0.00628516598 25.5401674,0.678053078 25.5401674,1.50671218 C25.5401675,2.33537128 24.8684057,3.00713305 24.0397466,3.00713305 L23.8618397,3.00713305 L23.8618393,3.00713275 C27.7145652,5.81551115 29.9978487,10.292171 30.009281,15.0597991 L30.009281,15.0597911 Z M23.4093615,16.135806 C23.4093615,20.6092149 19.6240272,24.3881296 15.1441986,24.3881296 C10.6558104,24.3881296 6.8661671,20.6092149 6.8661671,16.135806 C6.8661671,9.97121587 14.6104885,5.00484254 14.6876415,4.97910533 C14.8291097,4.93194936 14.9727213,4.8826497 15.1441986,4.8826497 C15.3092448,4.8826497 15.7422224,4.8826497 16.0573127,5.17201629 L16.213785,5.2941933 C20.8543686,8.77088621 23.4093615,12.6205342 23.4093615,16.1358036 L23.4093615,16.135806 Z M15.1441986,8.15571641 C13.3779897,9.57468398 9.83913761,12.8284569 9.83913761,16.135806 L9.83913761,16.1358166 C9.84859983,19.0572893 12.2227231,21.4189218 15.1441986,21.4130116 L15.1441988,21.4130116 C18.0624734,21.4153739 20.4314372,19.0540736 20.4385311,16.1358166 C20.4385311,12.8177388 16.9061133,9.57039437 15.1441988,8.15571641 L15.1441986,8.15571641 Z" id="形状"></path>
                </g>
            </g>
        </g>
    </g>
</svg>