<?xml version="1.0" encoding="UTF-8"?>
<svg width="38px" height="30px" viewBox="0 0 38 30" version="1.1" xmlns="http://www.w3.org/2000/svg" xmlns:xlink="http://www.w3.org/1999/xlink">
    <title>形状</title>
    <g id="页面-1" stroke="none" stroke-width="1" fill="none" fill-rule="evenodd">
        <g id="首页" transform="translate(-754.000000, -4024.000000)" fill="#DCC18D" fill-rule="nonzero">
            <g id="编组-9" transform="translate(506.000000, 3571.000000)">
                <g id="能源" transform="translate(248.000000, 453.531433)">
                    <path d="M37.7143296,26.9657457 L35.8286131,26.9657457 L35.6400415,26.777174 C33.18861,25.6457441 31.8686085,7.54286592 31.8686085,1.88571648 C31.8686085,1.32000154 31.6800369,0.94285824 31.3028936,0.565714944 C30.7371786,0 29.7943204,0 29.4171771,0 L13.388587,0 C12.4457288,0 11.8800138,0.377143296 11.6914422,0.754286592 C11.3142989,1.32000154 11.3142989,1.88571648 11.5028705,2.07428813 L11.5028705,6.41143603 L7.35429427,6.41143603 C6.60000768,6.41143603 6.03429274,6.60000768 5.65714944,7.16572262 C5.0914345,7.73143757 5.0914345,8.10858086 5.0914345,8.29715251 C4.3371479,23.3828844 2.82857472,26.4000307 2.45143142,26.777174 L0,26.777174 L0,28.8514621 L37.7143296,28.8514621 L37.7143296,26.9657457 Z M7.16572262,8.67429581 L19.4228797,8.67429581 C19.4228797,11.1257272 19.4228797,13.954302 19.6114514,16.594305 L6.60000768,16.594305 C6.97715098,14.1428736 7.16572262,11.5028705 7.16572262,8.67429581 Z M24.1371709,26.9657457 C23.3828844,26.4000307 22.8171694,24.7028859 22.2514545,21.3085962 L31.4914652,21.3085962 C31.8686085,23.571456 32.4343235,25.6457441 33.18861,26.9657457 L24.1371709,26.9657457 Z M22.0628828,19.2343081 C22.0628828,18.4800215 21.8743112,17.5371633 21.8743112,16.594305 L30.7371786,16.594305 C30.9257503,17.5371633 30.9257503,18.4800215 31.1143219,19.2343081 L22.0628828,19.2343081 Z M19.800023,18.6685932 C19.800023,19.6114514 19.9885947,20.365738 20.1771663,21.1200246 L6.22286438,21.1200246 C6.41143603,20.365738 6.41143603,19.4228797 6.60000768,18.6685932 L19.800023,18.6685932 L19.800023,18.6685932 Z M20.5543096,23.1943127 C20.7428813,24.5143142 21.1200246,25.6457441 21.4971679,26.5886024 C16.9714483,26.5886024 8.86286746,26.777174 4.7142912,26.777174 C5.0914345,25.8343158 5.46857779,24.7028859 5.65714944,23.1943127 L20.5543096,23.1943127 Z M13.5771587,2.26285978 L29.7943204,2.26285978 C29.7943204,3.58286131 29.982892,8.86286746 30.548607,14.3314452 L21.8743112,14.3314452 C21.8743112,12.6343004 21.6857395,10.7485839 21.8743112,8.67429581 L21.8743112,8.48572416 C21.8743112,7.54286592 21.1200246,6.60000768 19.4228797,6.60000768 L13.7657303,6.60000768 L13.7657303,2.26285978 L13.5771587,2.26285978 Z" id="形状"></path>
                </g>
            </g>
        </g>
    </g>
</svg>