<?xml version="1.0" encoding="UTF-8"?>
<svg width="33px" height="33px" viewBox="0 0 33 33" version="1.1" xmlns="http://www.w3.org/2000/svg" xmlns:xlink="http://www.w3.org/1999/xlink">
    <title>节能</title>
    <g id="页面-1" stroke="none" stroke-width="1" fill="none" fill-rule="evenodd">
        <g id="首页" transform="translate(-906.000000, -4021.000000)" fill="#DCC18D" fill-rule="nonzero">
            <g id="编组-9" transform="translate(506.000000, 3571.000000)">
                <g id="节能" transform="translate(400.000000, 450.000000)">
                    <path d="M31.8375462,22.3455847 C32.7553776,22.3723978 33.2008867,23.0633495 32.9141933,23.8553658 C31.7055435,25.6250272 29.4759351,26.9429918 27.4732064,27.6298185 C28.015655,29.7274241 26.1139909,33.0708054 19.5221053,32.9986164 C15.3640197,32.8748639 11.441064,29.9996797 9.65696483,27.6009429 C7.72642511,25.1506425 7.53048358,23.2922917 7.45623205,23.3108546 C7.42116883,23.2634161 9.53321229,24.106996 11.9443244,24.1709348 C14.3987499,24.3400633 16.9893032,23.6841748 18.9054051,23.4346071 C22.4571032,22.9602224 24.4763322,23.33148 26.3099325,25.4476486 C23.2449944,27.753571 19.26635,28.1000781 16.3396023,27.7081951 C13.3592285,27.3410625 11.4245637,26.2396649 11.3069988,26.1901638 C11.3234991,26.320104 17.7194432,30.2018089 24.7217748,27.7473834 C25.3075368,27.5184412 26.0211765,27.2049347 26.7636918,26.8130517 C26.8750691,26.7511754 26.9802587,26.6892991 27.087511,26.6232978 L27.0936986,26.635673 C29.1974919,25.5115874 31.2889099,23.6903624 31.8375462,22.3455847 L31.8375462,22.3455847 Z M10.1395998,4.71909709 C13.1282238,3.89408012 14.8793223,4.42209098 14.8916975,4.34783945 C14.9473862,4.33133911 13.3303529,5.94012221 12.2908315,8.1119794 C11.1440579,10.2858991 10.6737983,12.8970778 10.1189743,14.7389282 C9.10007837,18.1565611 7.94299207,19.8581586 5.29675012,20.7244264 C4.47173315,17.0551634 5.7814476,13.2992736 7.32422934,10.7767842 C8.86907362,8.19860618 10.6449227,6.85176597 10.7356745,6.76307665 C10.611922,6.72801342 4.52123417,11.079978 3.87565839,18.4020036 C3.84265771,19.0248914 3.83440754,19.7942198 3.88184601,20.6212993 L3.92103432,20.9863693 C4.06334975,23.3356051 4.84917842,25.932346 5.83094861,26.9471169 C5.43287792,27.7721339 4.62848637,27.9185744 4.0365367,27.3534378 C2.94132666,25.5775887 2.66288343,23.0427241 2.86295005,20.9533686 C0.759156766,20.6501749 -1.46838906,17.642988 1.27685492,11.6616149 C3.08364209,7.91397532 7.26441561,5.43686186 10.1416623,4.71909709 L10.1395998,4.71909709 Z M16.9893032,2.68674285e-15 C19.0889714,0.365070011 21.2381406,1.84803802 22.7272962,3.38463214 C24.3484546,2.02335413 28.1497203,2.36367363 30.9795285,8.39661025 C32.703814,12.2350017 31.8726094,17.0035998 30.5319568,19.6271538 C29.2036795,22.4012734 27.6423349,23.354168 27.6897733,23.4119192 C27.6650228,23.4634827 27.4835191,21.190561 26.483186,18.9712653 C25.5509168,16.6674054 23.832819,14.5780499 22.7706096,12.9362662 C20.7843813,9.90020369 20.2254323,7.90366261 21.2979543,5.3564227 C24.6928992,7.18796039 26.7430664,10.6654069 27.6877108,13.4952152 C28.6736061,16.3621491 28.547791,18.5793823 28.5539786,18.7093224 C28.6632934,18.6371334 29.2964939,11.201668 24.0390732,5.84318272 C23.5811888,5.40386118 22.9871766,4.88410049 22.3127252,4.37052742 L22.0033438,4.15808555 L22.0136566,4.14364775 C20.0872419,2.69780551 17.5523773,1.55103191 16.1189103,1.6087831 C15.741465,0.763140701 16.1601611,0.0660013579 16.9851781,0.00206254244 L16.9893032,2.68674285e-15 Z" id="形状"></path>
                </g>
            </g>
        </g>
    </g>
</svg>