<?xml version="1.0" encoding="UTF-8"?>
<svg width="34px" height="34px" viewBox="0 0 34 34" version="1.1" xmlns="http://www.w3.org/2000/svg" xmlns:xlink="http://www.w3.org/1999/xlink">
    <title>节能</title>
    <g id="页面-1" stroke="none" stroke-width="1" fill="none" fill-rule="evenodd">
        <g id="首页" transform="translate(-1057.000000, -4020.000000)" fill="#DCC18D" fill-rule="nonzero">
            <g id="编组-9" transform="translate(506.000000, 3571.000000)">
                <g id="节能" transform="translate(551.000000, 449.000000)">
                    <path d="M29.0067226,28.2503425 C28.7175081,26.7838747 28.2391923,25.0319021 27.4308755,23.561713 C26.7597481,22.3381135 25.793847,21.2164783 25.0003604,20.4044539 L25.195024,20.0559139 L22.2936095,13.9842605 L29.7334704,11.9208266 L33.298604,20.5583342 L29.0067437,28.2503425 L29.0067226,28.2503425 Z M18.4837777,11.2719858 L20.3006393,9.39392568 L18.4837777,7.51588619 L16.9524245,7.51588619 C17.1971444,6.41464592 17.6513584,5.00379822 18.4837777,3.75796721 C19.0603523,2.89773793 21.1775525,1.57588161 22.5976691,0.750877432 L25.7456593,5.6360136 L27.5606671,3.75797411 L25.7456593,11.2719858 L18.4837674,11.2719858 L18.4837777,11.2719858 Z M16.6687699,3.75795343 C15.9809586,4.97043034 15.5267432,6.39796198 15.243092,7.51587241 L14.8537655,7.51587241 L11.2237499,13.151855 L5.77872645,7.51587241 L11.2237499,-1.77635684e-13 L19.8056443,-1.77635684e-13 C18.7229452,0.99556495 17.4974885,2.29888355 16.6687802,3.75791897 L16.6687699,3.75795343 Z M7.23035023,11.4128553 L10.8603659,17.9220435 L8.38164922,17.2342322 L7.71608663,19.800083 L8.48176323,21.1738518 C7.43985054,21.5038532 6.03085662,21.802339 4.5718212,21.6781225 C3.56513362,21.5928414 1.39973196,20.354409 1.62714286e-12,19.4960369 L2.51394174,14.2308431 L0.0352251065,13.5430318 L7.23037435,11.4128553 L7.23035023,11.4128553 Z M5.48023131,23.3058718 C6.83916996,23.3151415 8.26114028,23.0092415 9.33642086,22.7051947 L9.53108445,23.0537348 L16.0625283,23.489409 L14.0695447,31.1888324 L5.0593876,30.0653468 L0.767527265,22.3733661 C2.14129608,22.8461192 3.84506726,23.2929196 5.480242,23.305896 L5.48023131,23.3058718 Z M20.899442,23.9973907 L23.3800124,23.3095794 L24.145689,21.9358106 C24.9428831,22.7070485 25.8976616,23.8194114 26.5242916,25.1876189 C26.9544045,26.1331285 27.0026095,28.693418 26.9840683,30.3786618 L21.3221398,30.7568657 L21.9858486,33.3227165 L16.6057072,27.9388882 L20.2357228,21.431564 L20.8994316,23.9974148 L20.899442,23.9973907 Z" id="形状"></path>
                </g>
            </g>
        </g>
    </g>
</svg>