<?xml version="1.0" encoding="UTF-8"?>
<svg width="32px" height="32px" viewBox="0 0 32 32" version="1.1" xmlns="http://www.w3.org/2000/svg" xmlns:xlink="http://www.w3.org/1999/xlink">
    <title>改造</title>
    <g id="页面-1" stroke="none" stroke-width="1" fill="none" fill-rule="evenodd">
        <g id="首页" transform="translate(-1209.000000, -4022.000000)" fill="#DCC18D" fill-rule="nonzero">
            <g id="编组-9" transform="translate(506.000000, 3571.000000)">
                <g id="改造" transform="translate(703.000000, 451.000000)">
                    <path d="M31.3743607,5.0195622 L31.3743609,5.01956265 C32.63791,8.08727837 31.9550635,11.6126339 29.6374664,13.9866941 L29.6374666,13.9866938 C27.1265514,16.5676464 23.1789931,17.103184 20.0712151,15.2844767 L17.9734315,17.6809304 L19.552105,19.2987152 L20.4907748,18.3404897 L20.4907749,18.3404896 C20.9724658,17.865857 21.7459785,17.865857 22.2276694,18.3404897 L29.8366017,26.2089542 C30.3166044,26.7049566 30.3166044,27.4907374 29.8366017,27.9867398 L26.3610329,31.5423072 L26.3610329,31.5423072 C25.879342,32.0169397 25.1058293,32.0169397 24.6241384,31.5423072 L16.9956504,23.6720476 L16.9956504,23.6720476 C16.5160832,23.1764768 16.5160832,22.3898328 16.9956504,21.894262 L17.8543218,21.016035 L16.3556507,19.4782526 L5.73160037,31.2418381 L5.73160055,31.2418379 C4.80881961,32.2069881 3.2783477,32.2413365 2.31319369,31.3185563 C2.28705039,31.2935607 2.26147136,31.2679817 2.23647569,31.2418383 L1.37780434,30.3636113 L1.37780431,30.3636113 C0.41866595,29.3724735 0.41866595,27.7991817 1.37780438,26.8080439 L13.3600538,16.5431372 L5.37246043,8.37423419 L2.89600819,8.37423419 L1.56319402e-12,3.58131151 L2.31645134,1.16530218 L7.11113097,4.18042398 L7.11113097,6.69776733 L15.1004813,14.9644484 L17.4364882,12.9679989 L17.4364885,12.9679993 C15.0977697,9.71688464 15.4258611,5.25693463 18.2151575,2.38306019 L18.2151578,2.38305986 C20.4658228,0.0686863037 23.9017954,-0.636129654 26.8818507,0.605278074 L21.8507085,5.79817435 L26.1831574,10.2319534 L31.3742967,5.01950154 L31.3743607,5.0195622 Z M4.25426423,28.0667419 L4.25426425,28.0667419 C3.79883977,27.5866208 3.04042918,27.566603 2.56030809,28.0220271 C2.54501239,28.0365361 2.53010226,28.0514462 2.51559332,28.0667419 L2.5155933,28.0667419 C2.03602603,28.5623127 2.03602603,29.3489568 2.51559335,29.8445276 L2.51559343,29.8445276 C2.98616205,30.3454609 3.77371892,30.3700735 4.27465223,29.8995064 C4.77558555,29.4289378 4.80019813,28.6413809 4.32963103,28.1404476 C4.30556234,28.1148259 4.28041885,28.0902355 4.25426817,28.0667428 L4.25426423,28.0667419 Z" id="形状"></path>
                </g>
            </g>
        </g>
    </g>
</svg>