<?xml version="1.0" encoding="UTF-8"?>
<svg width="32px" height="36px" viewBox="0 0 32 36" version="1.1" xmlns="http://www.w3.org/2000/svg" xmlns:xlink="http://www.w3.org/1999/xlink">
    <title>矩阵碳元素结构</title>
    <g id="页面-1" stroke="none" stroke-width="1" fill="none" fill-rule="evenodd">
        <g id="首页" transform="translate(-1361.000000, -4018.000000)" fill="#DCC18D" fill-rule="nonzero">
            <g id="编组-9" transform="translate(506.000000, 3571.000000)">
                <g id="矩阵碳元素结构" transform="translate(855.000000, 447.000000)">
                    <path d="M28.7445717,7.708998 C30.3687923,7.708998 31.6879345,9.02814016 31.6879345,10.6523608 C31.6879345,11.7394714 31.094965,12.684785 30.2184015,13.1961138 L30.2184015,13.1961138 L30.2184015,22.821125 C31.094965,23.3281568 31.6879345,24.2777673 31.6922314,25.3648779 C31.6922314,26.9890986 30.3730892,28.3082407 28.7488686,28.3082407 C27.1246479,28.3082407 25.8055058,26.9890986 25.8055058,25.3648779 C25.8055058,24.2777673 26.3984752,23.3324537 27.2750387,22.821125 L27.2750387,22.821125 L27.2750387,13.2004106 C27.2707418,13.1961138 27.2621481,13.1918169 27.2578512,13.18752 L27.2578512,13.18752 L18.9433884,17.987135 L18.9433884,18.0086194 C18.9433884,19.09573 18.350419,20.0453405 17.4738554,20.5523723 L17.4738554,20.5523723 L17.4738554,30.1730866 C18.350419,30.6844154 18.9433884,31.629729 18.9433884,32.7168396 C18.9433884,34.3410602 17.6242462,35.6602024 16.0000256,35.6602024 C14.375805,35.6602024 13.0566628,34.3410602 13.0566628,32.7168396 C13.0566628,31.629729 13.6496322,30.6844154 14.5261958,30.1730866 L14.5261958,30.1730866 L14.5261958,20.5523723 C13.6496322,20.0453405 13.0566628,19.09573 13.0566628,18.0086194 L13.0566628,18.0086194 L13.0566628,18.0000256 L4.71641872,13.1832231 C4.71212184,13.18752 4.70352808,13.1918169 4.6992312,13.1961138 L4.6992312,13.1961138 L4.6992312,22.821125 C5.57579472,23.3324537 6.16876416,24.2777673 6.16876416,25.3648779 C6.16876416,26.9890986 4.849622,28.3082407 3.22540136,28.3082407 C1.60118072,28.3082407 0.28203856,26.9890986 0.28203856,25.3648779 C0.28203856,24.2777673 0.875008,23.3324537 1.75157152,22.821125 L1.75157152,22.821125 L1.75157152,13.2004106 C0.875008,12.6890819 0.28203856,11.7437683 0.28203856,10.6566577 C0.28203856,9.03243704 1.60118072,7.71329488 3.22540136,7.71329488 C4.83673136,7.71329488 6.15157664,9.01524952 6.16446728,10.6265795 L6.16446728,10.6265795 L14.5347895,15.4562726 C14.9644775,15.2113505 15.4629156,15.0652566 15.9957287,15.0652566 C16.524245,15.0652566 17.0183862,15.2070536 17.4480742,15.4519758 L17.4480742,15.4519758 L25.8055058,10.6222826 C25.8183964,9.01524952 27.1332417,7.708998 28.7445717,7.708998 Z M7.29024984,25.9965193 L13.4004132,29.5242578 C12.6269748,30.1558991 12.0941617,31.053947 11.9351771,32.0723076 L11.9351771,32.0723076 L5.82931064,28.548866 C6.59845216,27.9215215 7.13126528,27.0191767 7.29024984,25.9965193 L7.29024984,25.9965193 Z M24.6797232,26.0008162 C24.8430046,27.0234736 25.3758178,27.9258184 26.1406624,28.5531629 L26.1406624,28.5531629 L20.0562803,32.0680107 C19.8929989,31.0453533 19.3558889,30.1473054 18.5824505,29.5199609 L18.5824505,29.5199609 Z M15.9957287,0.3398488 C17.6199494,0.3398488 18.9390915,1.65899096 18.9390915,3.2832116 L18.9390915,3.2832116 L18.9390915,3.304696 L26.1406624,7.46407584 C25.3715209,8.09142032 24.8387078,8.99376512 24.6797232,10.0164226 L24.6797232,10.0164226 L17.4480742,5.8398488 C17.0183862,6.08477736 16.524245,6.2265744 15.9957287,6.2265744 C15.4629156,6.2265744 14.9644775,6.08477736 14.5347895,5.83555832 L14.5347895,5.83555832 L7.29024984,10.0164226 C7.13126528,8.99376512 6.59415528,8.09142032 5.82501376,7.46407584 L5.82501376,7.46407584 L13.0523659,3.29180536 C13.0523659,1.65899096 14.3715081,0.3398488 15.9957287,0.3398488 Z" id="形状结合"></path>
                </g>
            </g>
        </g>
    </g>
</svg>