<?xml version="1.0" encoding="UTF-8"?>
<svg width="120px" height="36px" viewBox="0 0 120 36" version="1.1" xmlns="http://www.w3.org/2000/svg" xmlns:xlink="http://www.w3.org/1999/xlink">
    <title>资源 1</title>
    <g id="页面-1" stroke="none" stroke-width="1" fill="none" fill-rule="evenodd">
        <g id="首页" transform="translate(-432.000000, -36.000000)" fill="#FFFFFF" fill-rule="nonzero">
            <g id="资源-1" transform="translate(432.000000, 36.000000)">
                <path d="M34.2251748,12.2823529 C31.636335,4.89982141 24.5764259,0.0881997877 16.8251748,0.423529412 C22.5380412,0.975220597 27.1046376,5.4583988 27.8097714,11.20747 C28.5149052,16.9565412 25.169326,22.428515 19.7622378,24.3698824 L23.4965035,35.0258824 C32.6804662,31.735315 37.4835753,21.5532851 34.2251748,12.2823529 L34.2251748,12.2823529 Z" id="路径"></path>
                <path d="M1.02377622,24.0691765 C3.61907877,31.4434283 10.6783759,36.2443231 18.4237762,35.9025882 C12.7109099,35.3508971 8.14431349,30.8677188 7.43917965,25.1186476 C6.7340458,19.3695764 10.079625,13.8976027 15.4867133,11.9562353 L11.7482517,1.31717647 C2.56317585,4.61130293 -2.23803264,14.797078 1.02377622,24.0691765 Z" id="路径"></path>
                <path d="M10.413986,18.0169412 C12.1183907,14.409964 15.955184,12.3480806 19.8713287,12.9345882 C16.9401652,12.9153616 14.3887892,14.953075 13.7332061,17.8369368 C13.0776231,20.7207987 14.4936351,23.677468 17.1398601,24.9501176 L14.6853147,30.1510588 C10.1864158,27.9908218 8.27411052,22.558288 10.413986,18.0169412 Z" id="路径"></path>
                <path d="M24.9608392,17.6061176 C23.2433894,21.24371 19.3779267,23.3268685 15.427972,22.7435294 C18.3993846,22.7928546 21.0000417,20.7374332 21.6653975,17.8137993 C22.3307534,14.8901653 20.8794621,11.8951686 18.1846154,10.6305882 L20.6559441,5.37882353 C25.1887692,7.55619285 27.1158152,13.0296266 24.9608392,17.6061176 L24.9608392,17.6061176 Z" id="路径"></path>
                <path d="M47.8531469,3.21458824 L50.7902098,3.21458824 L50.7902098,4.77317647 L57.9230769,4.77317647 L57.9230769,6.25129412 L50.7902098,6.25129412 L50.7902098,7.97505882 L53.9496503,7.97505882 L54.6629371,7.15341176 L57.7174825,7.48376471 L57.0041958,8.22070588 L57.0041958,15.2809412 L54.0671329,15.2809412 L54.0671329,14.544 L50.806993,14.544 L50.806993,23.0823529 L47.8699301,23.0823529 L47.8699301,15.9374118 C46.7174825,18.6762353 44.2,20.4832941 40.3174825,21.3585882 L40.1118881,21.1129412 C42.6293706,19.7011765 44.1230769,17.8658824 44.593007,15.6070588 L47.8531469,15.6070588 L47.8531469,14.544 L44.6979021,14.544 L44.6979021,15.2809412 L41.7608392,15.2809412 L41.7608392,7.23388235 L44.6979021,7.23388235 L44.6979021,7.97082353 L47.8531469,7.97082353 L47.8531469,6.25129412 L40.4181818,6.25129412 L40.4181818,4.77317647 L47.8531469,4.77317647 L47.8531469,3.21458824 Z M47.8531469,9.37270588 L44.6979021,9.37270588 L44.6979021,10.5204706 L47.8531469,10.5204706 L47.8531469,9.37270588 Z M44.6979021,13.1294118 L47.8531469,13.1294118 L47.8531469,11.9985882 L44.6979021,11.9985882 L44.6979021,13.1294118 Z M54.0671329,9.35576471 L50.806993,9.35576471 L50.806993,10.5035294 L54.0671329,10.5035294 L54.0671329,9.35576471 Z M50.806993,13.1294118 L54.0671329,13.1294118 L54.0671329,11.9985882 L50.806993,11.9985882 L50.806993,13.1294118 Z M51.7258741,15.5138824 L52.2335664,15.5138824 C53.0475524,16.9877647 54.9146853,18.0536471 57.834965,18.7115294 C58.0405594,18.7708235 58.1412587,18.8216471 58.1412587,18.8767059 C58.1412587,18.9317647 58.0405594,19.0164706 57.834965,19.1223529 C57.0881119,19.6729412 56.8195804,20.2997647 57.020979,21.0112941 C57.0881119,21.2315294 57.0881119,21.3416471 57.020979,21.3416471 C56.9538462,21.3967059 56.8195804,21.3670588 56.6013986,21.2569412 C53.4153846,20.232 51.7902098,18.3232941 51.7258741,15.5308235 L51.7258741,15.5138824 Z" id="形状"></path>
                <path d="M72.4825175,3.38823529 L75.5244755,3.38823529 C74.8572283,4.4160024 73.897787,5.21617229 72.772028,5.68376471 L77.9664336,5.68376471 L77.9664336,7.08141176 L71.2531469,7.08141176 L71.2531469,8.04705882 L76.9594406,8.04705882 L76.9594406,9.27952941 L71.2531469,9.27952941 L71.2531469,10.1816471 L78.1804196,10.1816471 L78.1804196,11.4988235 L61.179021,11.4988235 L61.179021,10.1901176 L68.3118881,10.1901176 L68.3118881,9.37270588 L62.7062937,9.37270588 L62.7062937,8.04705882 L68.3076923,8.04705882 L68.3076923,7.07294118 L61.6783217,7.07294118 L61.6783217,5.67529412 L66.2937063,5.67529412 C66.0022556,5.5428059 65.8058763,5.26008787 65.7818182,4.93835294 C65.6664546,4.36272641 65.2884477,3.87595672 64.7622378,3.62541176 L64.8671329,3.37976471 C66.3552448,3.32329412 67.3734266,3.48705882 67.9216783,3.87105882 C68.6013986,4.52611765 68.6685315,5.12752941 68.1230769,5.67529412 L71.3832168,5.67529412 C71.8919471,4.99139497 72.2652001,4.21485444 72.4825175,3.38823529 Z M61.993007,20.4649412 C61.8878238,19.7009002 61.6817987,18.9545083 61.3804196,18.2456471 C62.6699301,18.0790588 63.9608392,17.8870588 65.2531469,17.6696471 L65.2531469,16.0221176 L61.2797203,16.0221176 L61.2797203,14.6244706 L65.2531469,14.6244706 L65.2531469,13.6418824 C64.0237672,13.6354909 62.7970865,13.5249856 61.586014,13.3115294 L61.586014,13.1294118 C64.165035,12.7482353 66.0993007,12.2837647 67.3888112,11.736 L70.4475524,12.8032941 C69.6613798,13.1041513 68.8385617,13.2964771 68.0013986,13.3750588 L68.0013986,14.6075294 L70.648951,14.6075294 C70.5818182,13.7858824 70.5482517,12.8837647 70.5482517,11.9011765 L73.1958042,11.9011765 C73.2039818,12.42219 73.2389942,12.9424218 73.3006993,13.4597647 L73.3006993,14.6075294 L78.1888112,14.6075294 L78.1888112,16.0051765 L73.4013986,16.0051765 C73.4455585,16.652657 73.5870369,17.2895896 73.820979,17.8941176 C73.9552448,17.7289412 74.1944056,17.4705882 74.5342657,17.0724706 C74.6327097,16.8529816 74.7756437,16.6567617 74.9538462,16.4964706 L78.213986,16.4964706 C77.1042662,17.6885598 75.8753471,18.7615655 74.5468531,19.6983529 C74.6263463,19.7702074 74.695542,19.8528833 74.7524476,19.944 C74.84567,20.0355644 74.9148785,20.1490867 74.9538462,20.2743529 C75.0831061,20.4884851 75.3183668,20.6137287 75.5664336,20.6004706 C75.8461538,20.7670588 76.4909091,20.1924706 77.5006993,18.8767059 L77.7062937,18.9614118 C77.1608392,20.1077647 77.227972,20.7374118 77.9076923,20.8503529 C78.1132867,20.9011765 78.1804196,20.9858824 78.1132867,21.096 C77.7877714,22.1807766 76.7898928,22.9167924 75.6671329,22.9002353 C74.8610617,22.8329071 74.0874898,22.5492265 73.4265734,22.0785882 C72.9961179,21.726179 72.6187398,21.3124349 72.3062937,20.8503529 C71.115691,21.5445087 69.8482133,22.0946537 68.5300699,22.4894118 L68.3244755,22.2437647 C69.0713287,21.7524706 70.0895105,21.0677647 71.379021,20.1896471 C71.5174825,20.0837647 71.6181818,19.9990588 71.6853147,19.944 C71.2347203,18.6699363 70.9278868,17.348648 70.7706294,16.0051765 L68.0181818,16.0051765 L68.0181818,17.0724706 C68.8111888,16.9411765 69.6503497,16.7336471 70.4475524,16.5176471 L70.5482517,16.6828235 C69.7888828,17.4037555 68.9312439,18.0113219 68.0013986,18.4870588 L68.0013986,21.6 C68.0013986,22.4724706 66.7804196,22.9129412 64.3342657,22.9129412 C63.8601399,22.9129412 63.620979,22.8324706 63.620979,22.6672941 C63.620979,22.0108235 62.9412587,21.5703529 61.586014,21.3543529 L61.586014,21.1087059 C64.434965,21.2145882 65.6601399,21.1087059 65.2531469,20.7783529 L65.2531469,19.6348235 C64.0951049,19.9609412 63.0125874,20.2362353 61.993007,20.4564706 L61.993007,20.4649412 Z M73.9090909,11.9265882 L74.013986,11.7614118 C75.9104895,12.0367059 77.0013986,12.5534118 77.2699301,13.32 C77.2027972,14.3068235 76.5608392,14.5524706 75.3356643,14.0569412 C75.2323125,13.9364221 75.1627768,13.7901925 75.1342657,13.6334118 C74.8192573,12.999263 74.405623,12.4201583 73.9090909,11.9181176 L73.9090909,11.9265882 Z" id="形状"></path>
                <path d="M86.5216783,20.1261176 L90.6965035,20.1261176 C88.5902098,21.8202353 85.5692308,22.7774118 81.6335664,22.9976471 L81.6335664,22.752 C84.1426573,21.8738824 85.772028,20.9985882 86.5216783,20.1261176 Z M87.7426573,6.99670588 L87.9482517,7.15764706 C86.9944056,9.13411765 85.1944056,10.6941176 82.5482517,11.8376471 C82.4867662,10.9984719 82.316068,10.171124 82.0405594,9.37694118 C84.0220075,8.79523059 85.9341703,7.99561334 87.7426573,6.99247059 L87.7426573,6.99670588 Z M82.2377622,3.46023529 C84.6853147,3.57035294 86.2811189,4.03482353 87.0251748,4.85364706 C87.5664336,5.56941176 87.4993007,6.19623529 86.8237762,6.74258824 C86.0055944,7.128 85.3972028,6.96282353 84.9902098,6.25129412 C84.5118881,5.31952941 83.5608392,4.416 82.1370629,3.54070588 L82.2377622,3.46023529 Z M94.9762238,11.4352941 L98.1314685,12.4221176 L97.5230769,13.2437647 L97.5230769,19.9609412 L94.6699301,19.9609412 L94.6699301,19.4823529 L86.7230769,19.4823529 L86.7230769,19.9736471 L83.8741259,19.9736471 L83.8741259,11.7529412 L86.7230769,11.7529412 L86.7230769,12.2442353 L94.4643357,12.2442353 L94.9762238,11.4352941 Z M91.0027972,6.50964706 L93.9398601,6.50964706 C93.8621694,6.87209089 93.7598291,7.2287002 93.6335664,7.57694118 C94.9230769,8.72611765 96.8251748,9.35576471 99.3398601,9.46588235 L99.5412587,9.54635294 C99.5412587,9.60141176 99.4741259,9.68611765 99.3398601,9.792 C98.7179772,10.0757756 98.3834183,10.7654103 98.5426573,11.4352941 C98.6097902,11.5454118 98.6097902,11.6301176 98.5426573,11.6809412 C98.5426573,11.736 98.4713287,11.736 98.3370629,11.6809412 C95.9566434,11.3985882 94.2923077,10.2225882 93.3440559,8.15294118 C92.2559441,9.90352941 89.9132867,11.0527059 86.3160839,11.6004706 L86.2153846,11.52 C89.0685315,10.1929412 90.6643357,8.51858824 91.0027972,6.49694118 L91.0027972,6.50964706 Z M86.7230769,13.5529412 L86.7230769,14.2941176 L94.6699301,14.2941176 L94.6699301,13.5529412 L86.7230769,13.5529412 Z M86.7230769,15.4418824 L86.7230769,16.2635294 L94.6699301,16.2635294 L94.6699301,15.4461176 L86.7230769,15.4418824 Z M86.7230769,17.4112941 L86.7230769,18.2329412 L94.6699301,18.2329412 L94.6699301,17.4155294 L86.7230769,17.4112941 Z M89.3706294,3.21458824 L92.7272727,3.21458824 C92.4629371,3.87105882 92.3076923,4.23529412 92.2237762,4.36235294 L95.3832168,4.36235294 L96.4027972,3.38823529 L99.6587413,4.29035294 L98.5426573,4.86211765 C97.8629371,6.06776471 96.6391608,7.02635294 94.8713287,7.73788235 L94.6699301,7.65741176 C94.7370629,7.49223529 94.8041958,7.30164706 94.8713287,7.08141176 C95.0895543,6.63472663 95.2611087,6.16631862 95.3832168,5.68376471 L91.4097902,5.68376471 C90.460011,6.78213242 89.3232218,7.70012312 88.0531469,8.39435294 L87.8475524,8.22917647 C88.7141188,6.69092494 89.2341469,4.97878129 89.3706294,3.21458824 L89.3706294,3.21458824 Z M91.6111888,20.0456471 C95.1384615,20.1557647 97.5160839,20.4564706 98.7440559,20.9477647 C99.254275,21.2544823 99.4706266,21.8881651 99.2559441,22.4470588 C98.7776224,23.1585882 98.0643357,23.2404706 97.1160839,22.6927059 C96.1622378,21.9247059 94.2937063,21.1030588 91.5104895,20.2277647 L91.6111888,20.0456471 Z" id="形状"></path>
                <path d="M106.153846,9.45317647 L109.212587,9.45317647 C108.194406,14.4903529 105.916084,18.1849412 102.377622,20.5369412 L102.176224,20.3717647 C104.153846,17.472 105.47972,13.8324706 106.153846,9.45317647 Z M109.623776,3.38823529 L112.779021,3.38823529 L112.779021,6.91623529 L119.911888,6.91623529 L119.911888,8.47058824 L112.779021,8.47058824 L112.779021,17.5002353 L115.531469,17.5002353 L115.531469,19.0588235 L112.779021,19.0588235 L112.779021,22.8367059 L109.623776,22.8367059 L109.623776,19.0588235 L106.267133,19.0588235 L106.267133,17.5002353 L109.623776,17.5002353 L109.623776,8.47058824 L102.28951,8.47058824 L102.28951,6.90776471 L109.623776,6.90776471 L109.623776,3.38823529 Z M113.085315,8.97035294 L113.924476,8.97035294 C114.739515,12.1165602 116.656456,14.8580376 119.32028,16.6870588 L119.425175,16.7675294 C119.760839,16.9327059 119.727273,17.1232941 119.32028,17.3435294 C118.640559,17.7811765 118.471329,18.4870588 118.812587,19.4611765 C119.013986,19.8465882 119.081119,20.0625882 119.013986,20.1176471 C118.946853,20.1727059 118.711888,20.0922353 118.304895,19.872 C115.163636,18.0169412 113.423776,14.3802353 113.085315,8.96188235 L113.085315,8.97035294 Z" id="形状"></path>
                <path d="M41.4713287,32.6117647 L41.4713287,26.0428235 L43.7160839,26.0428235 C44.104295,26.0317242 44.4925587,26.062964 44.8741259,26.136 C45.2266114,26.2104494 45.5553034,26.3719766 45.8307692,26.6061176 C46.1802757,26.9079571 46.4462742,27.2961177 46.6027972,27.7327059 C46.7801676,28.2339651 46.8668599,28.7633181 46.8587413,29.2955294 C46.8648372,29.7434622 46.8068981,30.1899409 46.6867133,30.6211765 C46.591693,30.9648528 46.4399127,31.2898847 46.2377622,31.5825882 C45.9191358,32.0600318 45.4282803,32.3928818 44.8699301,32.5101176 C44.5255964,32.5871587 44.173649,32.6241057 43.820979,32.6202353 L41.4713287,32.6117647 Z M42.3104895,31.8367059 L43.7034965,31.8367059 C44.0447693,31.8475266 44.3856976,31.8061159 44.7146853,31.7138824 C44.9326349,31.6484612 45.1323749,31.532421 45.2979021,31.3750588 C45.5215907,31.1349579 45.6855371,30.8446255 45.7762238,30.528 C45.8995141,30.1162619 45.9575728,29.687444 45.9482517,29.2574118 C45.9793895,28.7072024 45.8634578,28.1586579 45.6125874,27.6691765 C45.4247235,27.3328012 45.1286542,27.0713023 44.7734266,26.928 C44.4119618,26.8180169 44.0343357,26.7721606 43.6573427,26.7924706 L42.2895105,26.7924706 L42.3104895,31.8367059 Z" id="形状"></path>
                <path d="M47.9664336,29.4141176 C47.9127074,28.4781972 48.2245147,27.5582992 48.834965,26.8517647 C49.4200519,26.231572 50.240217,25.8939433 51.0881119,25.9242353 C51.6576872,25.9117307 52.219614,26.058298 52.7118881,26.3477647 C53.1917288,26.6319916 53.5772292,27.0535476 53.8195804,27.5590588 C54.0799579,28.1117115 54.2106138,28.7175155 54.2013986,29.3294118 C54.2066111,29.9506407 54.0626448,30.5638967 53.7818182,31.1167059 C53.5341685,31.6235346 53.1388623,32.0417737 52.648951,32.3152941 C52.1661407,32.5904577 51.6215777,32.7362636 51.0671329,32.7388235 C50.4868259,32.7468093 49.9158029,32.5913434 49.4181818,32.2898824 C48.9427589,31.9964696 48.5622417,31.5696934 48.3230769,31.0616471 C48.0790359,30.547887 47.9569274,29.9838014 47.9664336,29.4141176 L47.9664336,29.4141176 Z M48.8559441,29.4141176 C48.819487,30.1061596 49.0546558,30.7848289 49.5104895,31.3030588 C49.9269427,31.7434857 50.5038275,31.9926725 51.106993,31.9926725 C51.7101585,31.9926725 52.2870433,31.7434857 52.7034965,31.3030588 C53.1500922,30.7527539 53.3734851,30.0520535 53.3286713,29.3421176 C53.3398691,28.8607857 53.248284,28.382661 53.0601399,27.9402353 C52.896542,27.5587096 52.6231962,27.2355751 52.2755245,27.0127059 C51.92756,26.7922545 51.524083,26.6775707 51.1132867,26.6823529 C50.524509,26.6731945 49.9565197,26.9019186 49.5356643,27.3176471 C49.0797203,27.7411765 48.8531469,28.4442353 48.8559441,29.4268235 L48.8559441,29.4141176 Z" id="形状"></path>
                <polygon id="路径" points="55.4853147 32.6117647 55.4853147 26.0428235 56.3706294 26.0428235 59.7902098 31.2056471 59.7902098 26.0428235 60.6293706 26.0428235 60.6293706 32.6117647 59.7440559 32.6117647 56.3202797 27.4404706 56.3202797 32.6117647"></polygon>
                <path d="M65.3034965,30.0409412 L65.3034965,29.2701176 L68.0643357,29.2701176 L68.0643357,31.7138824 C67.6677151,32.0363914 67.2249138,32.2962903 66.751049,32.4847059 C66.3072307,32.6542836 65.8367859,32.7417978 65.3622378,32.7430588 C64.7547225,32.749326 64.1551018,32.6038298 63.6167832,32.3195294 C63.107162,32.0557616 62.6930692,31.6362893 62.4335664,31.1209412 C62.1550235,30.5794217 62.0110313,29.9776834 62.013986,29.3675294 C62.0088672,28.7464982 62.1437368,28.1324247 62.4083916,27.5717647 C62.6488491,27.047207 63.0505697,26.6149691 63.5538462,26.3392941 C64.0830773,26.0549004 64.6746071,25.9092669 65.2741259,25.9157647 C65.7046229,25.9112109 66.1319684,25.990295 66.5328671,26.1487059 C66.8836242,26.2787473 67.1936071,26.5009943 67.4307692,26.7924706 C67.6851297,27.1127596 67.8695775,27.4836839 67.972028,27.8809412 L67.1958042,28.0969412 C67.1226723,27.8127957 66.9989837,27.5444341 66.8307692,27.3049412 C66.6664528,27.1008229 66.452492,26.9432198 66.2097902,26.8475294 C65.9249245,26.7298926 65.619656,26.6708561 65.3118881,26.6738824 C64.9619578,26.6643248 64.6137247,26.7262714 64.2881119,26.856 C64.0233301,26.9607946 63.7852884,27.1243602 63.5916084,27.3345882 C63.4157603,27.5245368 63.2738055,27.7437719 63.172028,27.9825882 C63.0074934,28.4043993 62.9276255,28.8550053 62.9370629,29.3082353 C62.9196464,29.8163839 63.0217346,30.3214692 63.234965,30.7821176 C63.4227426,31.1630625 63.7293988,31.4711167 64.1076923,31.6588235 C64.4868972,31.8495363 64.9050077,31.9481587 65.3286713,31.9468235 C65.7027374,31.9468499 66.073243,31.8734898 66.4195804,31.7308235 C66.7139599,31.6235085 66.9878772,31.4659204 67.2293706,31.2649412 L67.2293706,30.0409412 L65.3034965,30.0409412 Z" id="路径"></path>
                <path d="M71.3538462,32.6117647 L71.3538462,29.8334118 L68.8363636,26.0428235 L69.8853147,26.0428235 L71.1692308,28.0249412 C71.4083916,28.3934118 71.6307692,28.7661176 71.8321678,29.1388235 C72.0293706,28.7957647 72.2517483,28.4061176 72.5454545,27.9741176 L73.8041958,26.0428235 L74.806993,26.0428235 L72.2055944,29.8334118 L72.2055944,32.6117647 L71.3538462,32.6117647 Z" id="路径"></path>
                <polygon id="路径" points="75.9188811 32.6117647 75.9188811 26.0428235 76.7832168 26.0428235 76.7832168 32.6117647"></polygon>
                <path d="M85.8503497,30.312 L86.6895105,30.5322353 C86.5647857,31.1773467 86.2276513,31.760944 85.7328671,32.1882353 C85.2422727,32.5735927 84.6339491,32.7742818 84.0125874,32.7557647 C83.4119988,32.7853009 82.8158352,32.6381677 82.2965035,32.3322353 C81.8412255,32.0223548 81.4911862,31.5788396 81.2937063,31.0616471 C81.0615188,30.5040805 80.9444469,29.9045651 80.9496503,29.2997647 C80.9341628,28.6786259 81.0665391,28.062802 81.3356643,27.504 C81.578928,27.0121413 81.9654607,26.6071914 82.4433566,26.3435294 C82.9280388,26.0759804 83.4727903,25.9388755 84.0251748,25.9454118 C84.613407,25.9263383 85.1914718,26.1034738 85.6699301,26.4494118 C86.1278103,26.8030851 86.4556252,27.300926 86.6013986,27.864 L85.7622378,28.0630588 C85.6561577,27.6535202 85.4258221,27.2877345 85.1034965,27.0169412 C84.7878884,26.791269 84.4074949,26.6766722 84.020979,26.6908235 C83.5736463,26.6735639 83.1325731,26.8011949 82.7622378,27.0550588 C82.4289094,27.2950236 82.180423,27.6363832 82.0531469,28.0291765 C81.9185648,28.4389695 81.8505531,28.8680428 81.8517483,29.2997647 C81.8421385,29.7988795 81.9231968,30.2955486 82.0909091,30.7651765 C82.2322333,31.1534463 82.4980635,31.4828985 82.8461538,31.7011765 C83.1805468,31.9042647 83.5635933,32.0111797 83.9538462,32.0103529 C84.3993882,32.0223713 84.8343162,31.8720215 85.179021,31.5868235 C85.5394056,31.2509185 85.7761047,30.8014374 85.8503497,30.312 Z" id="路径"></path>
                <path d="M87.2391608,32.6117647 L89.7566434,26.0343529 L90.6839161,26.0343529 L93.3398601,32.6117647 L92.358042,32.6117647 L91.5986014,30.6211765 L88.8713287,30.6211765 L88.1538462,32.6117647 L87.2391608,32.6117647 Z M89.1188811,29.9096471 L91.3300699,29.9096471 L90.6503497,28.0884706 C90.4405594,27.5336471 90.2895105,27.0804706 90.1888112,26.7247059 C90.1039562,27.1567739 89.9861223,27.5815701 89.8363636,27.9952941 L89.1188811,29.9096471 Z" id="形状"></path>
                <path d="M94.2125874,32.6117647 L94.2125874,26.0428235 L96.6713287,26.0428235 C97.0024186,26.0368297 97.3334727,26.0566533 97.6615385,26.1021176 C97.9492645,26.1443654 98.2242801,26.2499127 98.4671329,26.4112941 C98.691597,26.574588 98.8707474,26.7933418 98.9874126,27.0465882 C99.1247179,27.3283389 99.193746,27.6389859 99.1888112,27.9529412 C99.2005725,28.4778066 99.0094554,28.9866791 98.6559441,29.3717647 C98.3034965,29.7614118 97.6657343,29.952 96.7468531,29.952 L95.0685315,29.952 L95.0685315,32.6117647 L94.2125874,32.6117647 Z M95.0727273,29.16 L96.751049,29.16 C97.171005,29.1991718 97.5912541,29.0882491 97.9384615,28.8465882 C98.1805099,28.6191197 98.3096847,28.2946957 98.2909091,27.9614118 C98.296738,27.7091987 98.2232978,27.4615999 98.0811189,27.2541176 C97.9511552,27.0635932 97.7574957,26.9267556 97.5356643,26.8687059 C97.2714854,26.8194028 97.0027432,26.799519 96.7342657,26.8094118 L95.0559441,26.8094118 L95.0727273,29.16 Z" id="形状"></path>
                <polygon id="路径" points="100.615385 32.6117647 100.615385 26.0428235 101.454545 26.0428235 101.454545 32.6117647"></polygon>
                <polygon id="路径" points="104.836364 32.6117647 104.836364 26.8178824 102.692308 26.8178824 102.692308 26.0428235 107.857343 26.0428235 107.857343 26.8178824 105.700699 26.8178824 105.700699 32.6117647"></polygon>
                <path d="M108.20979,32.6117647 L110.727273,26.0343529 L111.658741,26.0343529 L114.31049,32.6117647 L113.324476,32.6117647 L112.565035,30.6211765 L109.841958,30.6211765 L109.124476,32.6117647 L108.20979,32.6117647 Z M110.08951,29.9096471 L112.300699,29.9096471 L111.608392,28.0969412 C111.402797,27.5421176 111.247552,27.0889412 111.146853,26.7331765 C111.063448,27.165148 110.947016,27.5899483 110.798601,28.0037647 L110.08951,29.9096471 Z" id="形状"></path>
                <polygon id="路径" points="115.145455 32.6117647 115.145455 26.0428235 116.005594 26.0428235 116.005594 31.8451765 119.215385 31.8451765 119.215385 32.6117647"></polygon>
            </g>
        </g>
    </g>
</svg>
