<?xml version="1.0" encoding="UTF-8"?>
<svg width="42px" height="42px" viewBox="0 0 42 42" version="1.1" xmlns="http://www.w3.org/2000/svg" xmlns:xlink="http://www.w3.org/1999/xlink">
    <title>循环</title>
    <g id="页面-1" stroke="none" stroke-width="1" fill="none" fill-rule="evenodd">
        <g id="投资理念" transform="translate(-489.000000, -4100.000000)" fill="#DCC18D" fill-rule="nonzero">
            <g id="编组-6备份" transform="translate(438.000000, 4006.000000)">
                <g id="编组-7" transform="translate(0.000000, 52.000000)">
                    <g id="循环" transform="translate(51.000000, 42.000000)">
                        <path d="M31.3898814,6.4550868 L27.789096,0.94648664 L26.9168294,2.67812928 C25.0090146,2.05937856 23.0238561,1.7500032 21.0000256,1.7500032 C16.9566615,1.7500032 13.0851726,2.99180152 9.81095008,5.33360112 L11.4093894,7.56797872 C14.219549,5.56133576 17.5324434,4.5000064 21.0000256,4.5000064 C22.5898712,4.5000064 24.1496386,4.72344416 25.6535466,5.1660228 L24.8199519,6.8203216 L31.3898814,6.4550868 Z M32.1891011,36.6664501 L30.5906618,34.4320725 C27.7805022,36.4387154 24.4676078,37.5000448 21.0000256,37.5000448 C19.41018,37.5000448 17.8504126,37.276607 16.3465046,36.8340284 L17.1843962,35.1797296 L10.6144666,35.5492613 L14.2109552,41.0535646 L15.0832218,39.3219219 C16.9910366,39.9406726 18.9761951,40.250048 21.0000256,40.250048 C25.0433897,40.250048 28.9148786,39.0082497 32.1891011,36.6664501 L32.1891011,36.6664501 Z M39.3219219,26.9125325 C39.9406726,25.0090146 40.250048,23.0238561 40.250048,21.0000256 C40.250048,16.9566615 39.0082497,13.0851726 36.6664501,9.81095008 L34.4320725,11.4093894 C36.4387154,14.219549 37.5000448,17.5324434 37.5000448,21.0000256 C37.5000448,22.5898712 37.276607,24.1496386 36.8340284,25.6535466 L35.1797296,24.8199519 L35.5492613,31.3898814 L41.0535646,27.789096 L39.3219219,26.9125325 L39.3219219,26.9125325 Z M4.5000064,21.0000256 C4.5000064,19.41018 4.72344416,17.8504126 5.1660228,16.3465046 L6.8203216,17.1843962 L6.45078992,10.6144666 L0.94648664,14.2109552 L2.67812928,15.0832218 C2.05937856,16.9910366 1.7500032,18.9761951 1.7500032,21.0000256 C1.7500032,25.0433897 2.99180152,28.9148786 5.33360112,32.1891011 L7.56797872,30.5906618 C5.56133576,27.7805022 4.5000064,24.4676078 4.5000064,21.0000256 L4.5000064,21.0000256 Z M21.0000256,11.89064 C20.2953373,11.89064 19.5992427,11.9722807 18.9203357,12.1269684 L18.4133038,11.031264 L16.0500198,14.4000179 L20.1492434,14.7609558 L19.6679928,13.7297046 C20.1062746,13.6480639 20.5531501,13.609392 21.0000256,13.609392 C22.6156525,13.609392 24.1496386,14.1207207 25.4344058,15.0875187 L26.465657,13.7125171 C24.8801082,12.5222814 22.989481,11.89064 21.0000256,11.89064 L21.0000256,11.89064 Z M25.9500314,27.6000333 L21.8508078,27.2390954 L22.3320584,28.2703466 C21.8937766,28.3519873 21.4469011,28.3906592 21.0000256,28.3906592 C19.3843987,28.3906592 17.8504126,27.8793305 16.5656454,26.9125325 L15.5343942,28.2875341 C17.119943,29.4777698 19.0105702,30.1094112 21.0000256,30.1094112 C21.7047139,30.1094112 22.4008085,30.0277705 23.0797155,29.8730828 L23.5910442,30.9687872 L25.9500314,27.6000333 Z M13.609392,21.0000256 C13.609392,19.3843987 14.1207207,17.8504126 15.0875187,16.5656454 L13.7125171,15.5343942 C12.5222814,17.119943 11.89064,19.0105702 11.89064,21.0000256 C11.89064,21.7047139 11.9722807,22.4008085 12.1269684,23.0797155 L11.031264,23.5867474 L14.4000179,25.9500314 L14.7609558,21.8508078 L13.7297046,22.3320584 C13.6480639,21.8937766 13.609392,21.451198 13.609392,21.0000256 Z M30.9687872,18.4133038 L27.6000333,16.0500198 L27.2390954,20.1492434 L28.2703466,19.6679928 C28.3519873,20.1062746 28.3906592,20.5531501 28.3906592,21.0000256 C28.3906592,22.6156525 27.8793305,24.1496386 26.9125325,25.4344058 L28.2875341,26.465657 C29.4777698,24.8801082 30.1094112,22.989481 30.1094112,21.0000256 C30.1094112,20.2953373 30.0277705,19.5992427 29.8730828,18.9203357 L30.9687872,18.4133038 Z" id="形状"></path>
                    </g>
                </g>
            </g>
        </g>
    </g>
</svg>