<?xml version="1.0" encoding="UTF-8"?>
<svg width="40px" height="40px" viewBox="0 0 40 40" version="1.1" xmlns="http://www.w3.org/2000/svg" xmlns:xlink="http://www.w3.org/1999/xlink">
    <title>全球</title>
    <g id="页面-1" stroke="none" stroke-width="1" fill="none" fill-rule="evenodd">
        <g id="投资理念" transform="translate(-839.000000, -3354.000000)" fill="#DCC18D" fill-rule="nonzero">
            <g id="编组-6" transform="translate(406.000000, 3255.000000)">
                <g id="编组-9" transform="translate(373.000000, 52.000000)">
                    <g id="全球" transform="translate(60.000000, 47.000000)">
                        <path d="M19.9862756,0.7500032 C9.35751322,0.7500032 0.736253184,9.37126323 0.736253184,20.0000256 C0.736253184,30.628788 9.35751322,39.250048 19.9862756,39.250048 C30.615038,39.250048 39.236298,30.628788 39.236298,20.0000256 C39.236298,9.37126323 30.621913,0.7500032 19.9862756,0.7500032 Z M21.6294025,2.11125478 C21.6294025,2.11125478 22.8325289,1.41000397 23.2519044,1.82937946 C23.6712799,2.24875494 25.1425316,1.76062938 28.916911,3.99500698 C28.916911,3.99500698 28.085035,4.88188301 27.9062848,4.82688294 C28.0094099,5.01938317 28.3394103,5.61063386 28.5731606,5.96813427 C28.8550359,6.40813478 28.923786,6.43563482 28.923786,6.43563482 L28.6419107,6.8550103 L28.923786,6.92376038 C28.6419107,6.8550103 28.5044105,7.69376128 28.098785,7.83126144 C27.6931596,7.9687616 28.2225352,8.7387625 28.085035,8.88313766 C27.9475348,9.02063782 28.1537851,10.2787643 28.085035,11.0212652 C28.0162849,11.763766 27.7344096,11.1175153 27.3837842,11.0212652 C27.0331588,10.925015 26.4762831,10.6981398 26.4281581,10.4918895 C26.380033,10.2787643 26.2631579,9.65313856 26.4075331,9.30251315 C26.5450332,8.95188774 25.9881576,8.60126234 25.7062822,8.34688704 C25.4244069,8.09251174 24.3106556,8.3950121 24.0975304,8.34688704 C23.8844051,8.29876198 23.746905,7.69376128 23.746905,7.13688563 C23.746905,6.58000998 24.7231561,7.20563571 25.2800317,7.13688563 C25.8300324,7.06813555 25.9194075,5.67250893 25.9194075,5.67250893 L25.8850324,4.49000755 C25.6581572,4.40063245 25.6237821,4.28375731 25.9881576,4.13250714 C25.9881576,4.13250714 24.7987812,3.85063181 24.5169059,4.48313254 C24.2350305,5.11563328 24.0975304,5.05375821 24.0287803,5.67938394 C23.9600302,6.30500966 22.8600289,5.75500902 22.6056536,5.67938394 C22.3512783,5.60375885 21.6500275,4.76500787 21.6500275,4.76500787 C21.8631528,4.2768823 22.0006529,3.9262569 22.0006529,3.9262569 L21.6362775,3.08750592 L21.6362775,2.11125478 L21.6294025,2.11125478 Z M10.5950147,8.61501235 C10.7118898,8.45688717 11.5025157,7.07501056 12.4856419,7.49438605 C13.461893,7.91376154 14.0943937,7.00626048 14.0943937,7.00626048 C14.0943937,7.00626048 15.5312704,5.53500877 15.6206455,5.74813402 C15.6550205,5.8237591 15.6825206,5.89938419 15.7031456,5.96125926 C15.6206455,5.74813402 16.892522,5.40438362 17.0300221,6.09875942 C17.1675223,6.80001024 18.0062733,7.15063565 18.0062733,7.15063565 C18.0062733,7.15063565 17.5181477,7.98938662 17.6556479,8.61501235 C17.793148,9.24751309 18.2881486,9.38501325 18.0062733,9.9418889 C17.724398,10.4987645 17.1675223,10.7118898 17.0300221,10.9937651 C16.892522,11.2756404 15.7375206,10.0862641 15.6137705,9.66688858 C15.4900204,9.24751309 14.8781446,8.8281376 14.341894,8.96563776 C13.8125184,9.10313792 12.4100168,9.45376333 12.1281414,9.31626317 C11.8600161,9.17876301 10.2718893,9.05501286 10.5950147,8.61501235 L10.5950147,8.61501235 Z M29.3431615,29.1781613 C28.7862858,30.649413 27.4525343,33.1656659 26.7581585,33.8669167 C26.0569076,34.5681676 25.2181567,35.8950441 24.5925309,36.3831697 C23.9600302,36.8712952 23.9600302,37.7787963 23.1969043,37.7100462 C22.4269034,37.6412961 21.5194024,35.4687936 21.7256526,34.911918 C21.9387779,34.3550423 17.8825231,33.3719162 17.8825231,33.3719162 C17.8825231,33.3719162 16.1362711,33.1587909 15.7856457,29.803787 C15.7237706,29.2056613 15.6825206,28.7794108 15.6618956,28.4906605 C15.1393949,28.2569102 13.0768925,27.4044092 11.8050161,27.7069096 C10.3337644,28.057535 9.99001395,27.239409 8.72501248,27.0537838 L6.55938496,25.0462815 C6.55938496,25.0462815 2.99125581,20.9212767 3.4106313,20.2200259 C3.83000678,19.518775 3.83000678,17.6350228 3.89875686,17.2156474 C3.96750694,16.7962719 3.34188122,14.1356438 3.37625626,13.7918934 C3.4106313,13.441268 2.85375565,12.1143914 2.85375565,12.1143914 C2.85375565,12.1143914 4.18063219,9.31626317 4.39375744,9.31626317 C4.60688269,9.31626317 5.37000858,11.6950159 6.14000947,11.763766 C6.91001037,11.8325161 9.00688781,11.6950159 9.32313818,11.3443905 C9.63938854,10.9937651 9.91438886,10.5743896 10.2650143,10.5743896 C10.6156397,10.5743896 10.6156397,10.3612644 11.2412654,10.6431397 C11.8737661,10.925015 12.568142,11.3443905 12.8500173,11.763766 C13.1318926,12.1831415 12.636892,13.0218925 14.1081437,13.0218925 C15.5793955,13.0218925 15.5793955,12.6712671 15.7856457,13.6543932 C15.9987709,14.6306444 16.2462712,16.8031469 15.6275205,16.940647 C15.0156448,17.0781472 13.1937677,19.2093997 13.3381428,19.8969005 C13.475643,20.5775263 13.475643,21.6294025 13.2006427,22.2619032 C12.9187674,22.894404 12.7125171,23.1006542 11.6606409,23.0319041 C10.6087647,22.963154 9.72188864,22.3994034 9.4331383,23.2450294 C9.14438797,24.0906554 8.58751232,25.9744076 9.56376346,25.7819073 C9.56376346,25.7819073 11.1037652,25.3144068 11.6606409,25.7819073 C12.2175165,26.2494079 15.7856457,27.7894097 15.7856457,27.7894097 C15.7856457,27.7894097 19.0031494,24.2900306 24.0356553,26.5312832 L24.8744063,27.0881588 L26.2700329,26.7856585 C26.2700329,26.7856585 28.085035,26.2494079 28.7175357,26.393783 L29.3500365,26.5312832 L29.3500365,26.2494079 C29.3431615,26.2425329 29.9000371,27.7137846 29.3431615,29.1781613 L29.3431615,29.1781613 Z M37.524421,21.203152 C37.524421,21.203152 37.1050455,20.5706513 37.1050455,19.9106505 C37.1050455,19.2506497 36.6169199,19.3125248 36.6169199,18.4737738 C36.6169199,17.6350228 35.9844192,17.9168982 35.5650437,17.3531475 C35.1456682,16.7962719 34.932543,17.5662728 34.5887926,17.6350228 C34.2381672,17.7037729 34.3069172,18.2675236 33.9562918,18.9275244 C33.6056664,19.5944001 32.6981654,20.0137756 32.41629,19.8900255 C32.1344147,19.7662753 31.0894135,18.8243992 31.0206634,18.618149 C30.9519133,18.4050237 29.5494117,17.2225224 29.5906618,16.940647 C29.6319118,16.6587717 29.1987863,15.194395 28.923786,14.4931442 C28.6419107,13.7918934 28.923786,11.0350152 28.923786,11.0350152 C28.5044105,10.7943899 32.7669155,9.03438784 32.2100398,8.8281376 C31.6531642,8.61501235 31.3712888,6.31188467 31.3712888,6.31188467 L33.4062912,7.3637609 C35.4412936,8.41563712 38.0125466,16.7343968 38.0125466,16.7343968 L38.0125466,19.1062746 L37.524421,21.203152 L37.524421,21.203152 Z" id="形状"></path>
                    </g>
                </g>
            </g>
        </g>
    </g>
</svg>